<svg width="1540" height="849" viewBox="0 0 1540 849" fill="none" xmlns="http://www.w3.org/2000/svg">
<g clip-path="url(#clip0_187_1977)">
<path d="M180.944 63V35.16H171.152V29.4H197.072V35.16H187.28V63H180.944ZM208.407 63.672C206.039 63.672 203.911 63.192 202.023 62.232C200.135 61.272 198.647 59.88 197.559 58.056C196.471 56.232 195.927 54.04 195.927 51.48V50.712C195.927 48.152 196.471 45.96 197.559 44.136C198.647 42.312 200.135 40.92 202.023 39.96C203.911 39 206.039 38.52 208.407 38.52C210.775 38.52 212.903 39 214.791 39.96C216.679 40.92 218.167 42.312 219.255 44.136C220.343 45.96 220.887 48.152 220.887 50.712V51.48C220.887 54.04 220.343 56.232 219.255 58.056C218.167 59.88 216.679 61.272 214.791 62.232C212.903 63.192 210.775 63.672 208.407 63.672ZM208.407 58.296C210.263 58.296 211.799 57.704 213.015 56.52C214.231 55.304 214.839 53.576 214.839 51.336V50.856C214.839 48.616 214.231 46.904 213.015 45.72C211.831 44.504 210.295 43.896 208.407 43.896C206.551 43.896 205.015 44.504 203.799 45.72C202.583 46.904 201.975 48.616 201.975 50.856V51.336C201.975 53.576 202.583 55.304 203.799 56.52C205.015 57.704 206.551 58.296 208.407 58.296ZM226.469 63V29.4H232.517V47.976H233.381L241.253 39.192H249.125L238.133 50.712L249.509 63H241.733L233.381 53.544H232.517V63H226.469ZM262.958 63.672C260.59 63.672 258.494 63.176 256.67 62.184C254.878 61.16 253.47 59.736 252.446 57.912C251.454 56.056 250.958 53.88 250.958 51.384V50.808C250.958 48.312 251.454 46.152 252.446 44.328C253.438 42.472 254.83 41.048 256.622 40.056C258.414 39.032 260.494 38.52 262.862 38.52C265.198 38.52 267.23 39.048 268.958 40.104C270.686 41.128 272.03 42.568 272.99 44.424C273.95 46.248 274.43 48.376 274.43 50.808V52.872H257.102C257.166 54.504 257.774 55.832 258.926 56.856C260.078 57.88 261.486 58.392 263.15 58.392C264.846 58.392 266.094 58.024 266.894 57.288C267.694 56.552 268.302 55.736 268.718 54.84L273.662 57.432C273.214 58.264 272.558 59.176 271.694 60.168C270.862 61.128 269.742 61.96 268.334 62.664C266.926 63.336 265.134 63.672 262.958 63.672ZM257.15 48.36H268.286C268.158 46.984 267.598 45.88 266.606 45.048C265.646 44.216 264.382 43.8 262.814 43.8C261.182 43.8 259.886 44.216 258.926 45.048C257.966 45.88 257.374 46.984 257.15 48.36ZM279.813 63V39.192H285.765V42.312H286.629C287.013 41.48 287.733 40.696 288.789 39.96C289.845 39.192 291.445 38.808 293.589 38.808C295.445 38.808 297.061 39.24 298.437 40.104C299.845 40.936 300.933 42.104 301.701 43.608C302.469 45.08 302.853 46.808 302.853 48.792V63H296.805V49.272C296.805 47.48 296.357 46.136 295.461 45.24C294.597 44.344 293.349 43.896 291.717 43.896C289.861 43.896 288.421 44.52 287.397 45.768C286.373 46.984 285.861 48.696 285.861 50.904V63H279.813ZM320.719 63.672C318.351 63.672 316.223 63.192 314.335 62.232C312.447 61.272 310.959 59.88 309.871 58.056C308.783 56.232 308.239 54.04 308.239 51.48V50.712C308.239 48.152 308.783 45.96 309.871 44.136C310.959 42.312 312.447 40.92 314.335 39.96C316.223 39 318.351 38.52 320.719 38.52C323.087 38.52 325.215 39 327.103 39.96C328.991 40.92 330.479 42.312 331.567 44.136C332.655 45.96 333.199 48.152 333.199 50.712V51.48C333.199 54.04 332.655 56.232 331.567 58.056C330.479 59.88 328.991 61.272 327.103 62.232C325.215 63.192 323.087 63.672 320.719 63.672ZM320.719 58.296C322.575 58.296 324.111 57.704 325.327 56.52C326.543 55.304 327.151 53.576 327.151 51.336V50.856C327.151 48.616 326.543 46.904 325.327 45.72C324.143 44.504 322.607 43.896 320.719 43.896C318.863 43.896 317.327 44.504 316.111 45.72C314.895 46.904 314.287 48.616 314.287 50.856V51.336C314.287 53.576 314.895 55.304 316.111 56.52C317.327 57.704 318.863 58.296 320.719 58.296ZM338.782 63V39.192H344.734V41.784H345.598C346.014 40.984 346.702 40.296 347.662 39.72C348.622 39.112 349.886 38.808 351.454 38.808C353.15 38.808 354.51 39.144 355.534 39.816C356.558 40.456 357.342 41.304 357.886 42.36H358.75C359.294 41.336 360.062 40.488 361.054 39.816C362.046 39.144 363.454 38.808 365.278 38.808C366.75 38.808 368.078 39.128 369.262 39.768C370.478 40.376 371.438 41.32 372.142 42.6C372.878 43.848 373.246 45.432 373.246 47.352V63H367.198V47.784C367.198 46.472 366.862 45.496 366.19 44.856C365.518 44.184 364.574 43.848 363.358 43.848C361.982 43.848 360.91 44.296 360.142 45.192C359.406 46.056 359.038 47.304 359.038 48.936V63H352.99V47.784C352.99 46.472 352.654 45.496 351.982 44.856C351.31 44.184 350.366 43.848 349.15 43.848C347.774 43.848 346.702 44.296 345.934 45.192C345.198 46.056 344.83 47.304 344.83 48.936V63H338.782ZM379.751 63V39.192H385.799V63H379.751ZM382.775 36.408C381.687 36.408 380.759 36.056 379.991 35.352C379.255 34.648 378.887 33.72 378.887 32.568C378.887 31.416 379.255 30.488 379.991 29.784C380.759 29.08 381.687 28.728 382.775 28.728C383.895 28.728 384.823 29.08 385.559 29.784C386.295 30.488 386.663 31.416 386.663 32.568C386.663 33.72 386.295 34.648 385.559 35.352C384.823 36.056 383.895 36.408 382.775 36.408ZM403.685 63.672C401.381 63.672 399.285 63.192 397.397 62.232C395.541 61.272 394.069 59.88 392.981 58.056C391.893 56.232 391.349 54.024 391.349 51.432V50.76C391.349 48.168 391.893 45.96 392.981 44.136C394.069 42.312 395.541 40.92 397.397 39.96C399.285 39 401.381 38.52 403.685 38.52C405.957 38.52 407.909 38.92 409.541 39.72C411.173 40.52 412.485 41.624 413.477 43.032C414.501 44.408 415.173 45.976 415.493 47.736L409.637 48.984C409.509 48.024 409.221 47.16 408.773 46.392C408.325 45.624 407.685 45.016 406.853 44.568C406.053 44.12 405.045 43.896 403.829 43.896C402.613 43.896 401.509 44.168 400.517 44.712C399.557 45.224 398.789 46.008 398.213 47.064C397.669 48.088 397.397 49.352 397.397 50.856V51.336C397.397 52.84 397.669 54.12 398.213 55.176C398.789 56.2 399.557 56.984 400.517 57.528C401.509 58.04 402.613 58.296 403.829 58.296C405.653 58.296 407.029 57.832 407.957 56.904C408.917 55.944 409.525 54.696 409.781 53.16L415.637 54.552C415.221 56.248 414.501 57.8 413.477 59.208C412.485 60.584 411.173 61.672 409.541 62.472C407.909 63.272 405.957 63.672 403.685 63.672ZM430.514 63.672C427.41 63.672 424.866 63 422.882 61.656C420.898 60.312 419.698 58.392 419.282 55.896L424.85 54.456C425.074 55.576 425.442 56.456 425.954 57.096C426.498 57.736 427.154 58.2 427.922 58.488C428.722 58.744 429.586 58.872 430.514 58.872C431.922 58.872 432.962 58.632 433.634 58.152C434.306 57.64 434.642 57.016 434.642 56.28C434.642 55.544 434.322 54.984 433.682 54.6C433.042 54.184 432.018 53.848 430.61 53.592L429.266 53.352C427.602 53.032 426.082 52.6 424.706 52.056C423.33 51.48 422.226 50.696 421.394 49.704C420.562 48.712 420.146 47.432 420.146 45.864C420.146 43.496 421.01 41.688 422.738 40.44C424.466 39.16 426.738 38.52 429.554 38.52C432.21 38.52 434.418 39.112 436.178 40.296C437.938 41.48 439.09 43.032 439.634 44.952L434.018 46.68C433.762 45.464 433.234 44.6 432.434 44.088C431.666 43.576 430.706 43.32 429.554 43.32C428.402 43.32 427.522 43.528 426.914 43.944C426.306 44.328 426.002 44.872 426.002 45.576C426.002 46.344 426.322 46.92 426.962 47.304C427.602 47.656 428.466 47.928 429.554 48.12L430.898 48.36C432.69 48.68 434.306 49.112 435.746 49.656C437.218 50.168 438.37 50.92 439.202 51.912C440.066 52.872 440.498 54.184 440.498 55.848C440.498 58.344 439.586 60.28 437.762 61.656C435.97 63 433.554 63.672 430.514 63.672Z" fill="#FFD3D3"/>
<path d="M555 543C555.142 428.125 648.382 335.115 763.257 335.257C878.133 335.4 971.142 428.64 971 543.515C970.858 658.39 877.618 751.399 762.743 751.257C647.867 751.115 554.858 657.875 555 543ZM881.225 543.404C881.306 478.11 828.44 425.113 763.146 425.033C697.853 424.952 644.856 477.817 644.775 543.111C644.694 608.405 697.56 661.401 762.854 661.482C828.147 661.563 881.144 608.697 881.225 543.404Z" fill="url(#paint0_linear_187_1977)"/>
<path d="M572.216 626.116C555.828 588.382 550.998 546.637 558.335 506.158C565.673 465.679 584.849 428.285 613.439 398.705C642.029 369.124 678.748 348.686 718.953 339.974C759.159 331.263 801.045 334.669 839.314 349.763L806.376 433.277C784.624 424.698 760.817 422.762 737.964 427.714C715.112 432.665 694.241 444.282 677.991 461.095C661.741 477.908 650.842 499.163 646.671 522.17C642.5 545.178 645.246 568.906 654.561 590.353L572.216 626.116Z" fill="url(#paint1_linear_187_1977)"/>
<path d="M829.432 346.151C869.169 359.544 903.931 384.635 929.156 418.133C954.382 451.631 968.894 491.971 970.788 533.862L881.104 537.917C880.028 514.107 871.779 491.178 857.441 472.138C843.103 453.098 823.345 438.837 800.759 431.224L829.432 346.151Z" fill="url(#paint2_linear_187_1977)"/>
<path d="M940 478L969.445 433.991C972.786 428.997 978.397 426 984.405 426H1282.5" stroke="#FFD3D3" stroke-width="6" stroke-linecap="round"/>
<path d="M999.36 401L1003.04 387H1007.64L1011.32 401H1008.6L1007.84 397.92H1002.84L1002.08 401H999.36ZM1003.46 395.48H1007.22L1005.52 388.66H1005.16L1003.46 395.48ZM1013 401V387H1015.64V401H1013ZM1018.27 401V387H1024.35C1025.23 387 1026 387.153 1026.65 387.46C1027.3 387.767 1027.81 388.2 1028.17 388.76C1028.53 389.32 1028.71 389.98 1028.71 390.74V390.98C1028.71 391.82 1028.51 392.5 1028.11 393.02C1027.71 393.54 1027.22 393.92 1026.63 394.16V394.52C1027.16 394.547 1027.58 394.733 1027.87 395.08C1028.16 395.413 1028.31 395.86 1028.31 396.42V401H1025.67V396.8C1025.67 396.48 1025.58 396.22 1025.41 396.02C1025.25 395.82 1024.98 395.72 1024.59 395.72H1020.91V401H1018.27ZM1020.91 393.32H1024.07C1024.7 393.32 1025.18 393.153 1025.53 392.82C1025.89 392.473 1026.07 392.02 1026.07 391.46V391.26C1026.07 390.7 1025.9 390.253 1025.55 389.92C1025.2 389.573 1024.71 389.4 1024.07 389.4H1020.91V393.32ZM1030.51 401V398.68H1032.35V389.32H1030.51V387H1036.27C1038.15 387 1039.57 387.48 1040.55 388.44C1041.53 389.387 1042.03 390.8 1042.03 392.68V395.32C1042.03 397.2 1041.53 398.62 1040.55 399.58C1039.57 400.527 1038.15 401 1036.27 401H1030.51ZM1034.99 398.6H1036.31C1037.37 398.6 1038.15 398.32 1038.65 397.76C1039.14 397.2 1039.39 396.413 1039.39 395.4V392.6C1039.39 391.573 1039.14 390.787 1038.65 390.24C1038.15 389.68 1037.37 389.4 1036.31 389.4H1034.99V398.6ZM1044.23 401V387H1050.31C1051.19 387 1051.95 387.153 1052.61 387.46C1053.26 387.767 1053.77 388.2 1054.13 388.76C1054.49 389.32 1054.67 389.98 1054.67 390.74V390.98C1054.67 391.82 1054.47 392.5 1054.07 393.02C1053.67 393.54 1053.17 393.92 1052.59 394.16V394.52C1053.12 394.547 1053.53 394.733 1053.83 395.08C1054.12 395.413 1054.27 395.86 1054.27 396.42V401H1051.63V396.8C1051.63 396.48 1051.54 396.22 1051.37 396.02C1051.21 395.82 1050.93 395.72 1050.55 395.72H1046.87V401H1044.23ZM1046.87 393.32H1050.03C1050.65 393.32 1051.14 393.153 1051.49 392.82C1051.85 392.473 1052.03 392.02 1052.03 391.46V391.26C1052.03 390.7 1051.85 390.253 1051.51 389.92C1051.16 389.573 1050.67 389.4 1050.03 389.4H1046.87V393.32ZM1062.3 401.28C1060.54 401.28 1059.14 400.8 1058.1 399.84C1057.06 398.867 1056.54 397.48 1056.54 395.68V392.32C1056.54 390.52 1057.06 389.14 1058.1 388.18C1059.14 387.207 1060.54 386.72 1062.3 386.72C1064.06 386.72 1065.46 387.207 1066.5 388.18C1067.54 389.14 1068.06 390.52 1068.06 392.32V395.68C1068.06 397.48 1067.54 398.867 1066.5 399.84C1065.46 400.8 1064.06 401.28 1062.3 401.28ZM1062.3 398.92C1063.29 398.92 1064.06 398.633 1064.6 398.06C1065.15 397.487 1065.42 396.72 1065.42 395.76V392.24C1065.42 391.28 1065.15 390.513 1064.6 389.94C1064.06 389.367 1063.29 389.08 1062.3 389.08C1061.33 389.08 1060.56 389.367 1060 389.94C1059.46 390.513 1059.18 391.28 1059.18 392.24V395.76C1059.18 396.72 1059.46 397.487 1060 398.06C1060.56 398.633 1061.33 398.92 1062.3 398.92ZM1070.38 401V387H1076.14C1077.02 387 1077.79 387.18 1078.46 387.54C1079.14 387.887 1079.67 388.38 1080.04 389.02C1080.43 389.66 1080.62 390.42 1080.62 391.3V391.58C1080.62 392.447 1080.42 393.207 1080.02 393.86C1079.63 394.5 1079.1 395 1078.42 395.36C1077.75 395.707 1076.99 395.88 1076.14 395.88H1073.02V401H1070.38ZM1073.02 393.48H1075.88C1076.51 393.48 1077.01 393.307 1077.4 392.96C1077.79 392.613 1077.98 392.14 1077.98 391.54V391.34C1077.98 390.74 1077.79 390.267 1077.4 389.92C1077.01 389.573 1076.51 389.4 1075.88 389.4H1073.02V393.48ZM1088.53 401L1086.69 387H1089.31L1090.67 399.16H1091.03L1092.79 387H1097.35L1099.11 399.16H1099.47L1100.83 387H1103.45L1101.61 401H1097.05L1095.25 388.56H1094.89L1093.09 401H1088.53ZM1104.07 401L1107.75 387H1112.35L1116.03 401H1113.31L1112.55 397.92H1107.55L1106.79 401H1104.07ZM1108.17 395.48H1111.93L1110.23 388.66H1109.87L1108.17 395.48ZM1117.7 401V387H1120.34V398.6H1126.74V401H1117.7ZM1128.54 401V387H1131.18V398.6H1137.58V401H1128.54ZM1139.38 401V387H1148.38V389.4H1142.02V392.74H1147.82V395.14H1142.02V398.6H1148.5V401H1139.38ZM1153.7 401V389.4H1149.62V387H1160.42V389.4H1156.34V401H1153.7ZM1191.6 401V399.32C1191.6 398.347 1191.76 397.54 1192.08 396.9C1192.4 396.247 1192.86 395.713 1193.46 395.3C1194.07 394.873 1194.82 394.527 1195.7 394.26L1197.04 393.84C1197.53 393.68 1197.94 393.487 1198.28 393.26C1198.61 393.02 1198.86 392.733 1199.04 392.4C1199.22 392.067 1199.32 391.687 1199.32 391.26V391.18C1199.32 390.513 1199.09 389.987 1198.64 389.6C1198.18 389.2 1197.56 389 1196.78 389C1196 389 1195.38 389.213 1194.9 389.64C1194.43 390.053 1194.2 390.653 1194.2 391.44V391.8H1191.64V391.48C1191.64 390.467 1191.86 389.607 1192.32 388.9C1192.77 388.193 1193.38 387.653 1194.16 387.28C1194.94 386.907 1195.82 386.72 1196.78 386.72C1197.74 386.72 1198.6 386.907 1199.38 387.28C1200.15 387.64 1200.76 388.153 1201.2 388.82C1201.65 389.473 1201.88 390.247 1201.88 391.14V391.34C1201.88 392.233 1201.69 392.993 1201.32 393.62C1200.96 394.233 1200.46 394.74 1199.84 395.14C1199.21 395.527 1198.5 395.847 1197.7 396.1L1196.42 396.5C1195.84 396.673 1195.4 396.867 1195.08 397.08C1194.76 397.28 1194.53 397.507 1194.4 397.76C1194.28 398 1194.22 398.293 1194.22 398.64V398.72H1201.76V401H1191.6ZM1208.69 401.28C1207.6 401.28 1206.65 401.087 1205.85 400.7C1205.07 400.313 1204.46 399.767 1204.03 399.06C1203.61 398.353 1203.39 397.533 1203.39 396.6V396.4H1205.99V396.58C1205.99 397.247 1206.21 397.82 1206.65 398.3C1207.11 398.767 1207.77 399 1208.65 399C1209.53 399 1210.21 398.767 1210.67 398.3C1211.15 397.82 1211.39 397.2 1211.39 396.44V396.24C1211.39 395.493 1211.15 394.9 1210.67 394.46C1210.21 394.02 1209.62 393.8 1208.91 393.8C1208.53 393.8 1208.21 393.853 1207.95 393.96C1207.7 394.067 1207.49 394.2 1207.33 394.36C1207.17 394.52 1207.04 394.68 1206.93 394.84H1203.83V387H1213.39V389.32H1206.39V392.74H1206.75C1206.89 392.567 1207.07 392.4 1207.29 392.24C1207.52 392.08 1207.81 391.947 1208.17 391.84C1208.53 391.733 1208.96 391.68 1209.45 391.68C1210.28 391.68 1211.03 391.853 1211.71 392.2C1212.39 392.547 1212.93 393.06 1213.33 393.74C1213.75 394.407 1213.95 395.233 1213.95 396.22V396.46C1213.95 397.447 1213.74 398.3 1213.31 399.02C1212.9 399.74 1212.3 400.3 1211.51 400.7C1210.73 401.087 1209.79 401.28 1208.69 401.28ZM1217.59 401.26L1216.07 400.04L1226.83 386.74L1228.35 387.96L1217.59 401.26ZM1226.03 401.2C1225.01 401.2 1224.22 400.933 1223.65 400.4C1223.07 399.853 1222.79 399.113 1222.79 398.18V398.04C1222.79 397.093 1223.07 396.353 1223.65 395.82C1224.22 395.273 1225.01 395 1226.03 395C1227.01 395 1227.8 395.273 1228.39 395.82C1228.97 396.353 1229.27 397.093 1229.27 398.04V398.18C1229.27 399.113 1228.98 399.853 1228.41 400.4C1227.83 400.933 1227.04 401.2 1226.03 401.2ZM1226.03 399.56C1226.41 399.56 1226.71 399.44 1226.93 399.2C1227.15 398.96 1227.27 398.647 1227.27 398.26V397.94C1227.27 397.553 1227.15 397.24 1226.93 397C1226.71 396.76 1226.41 396.64 1226.03 396.64C1225.64 396.64 1225.33 396.76 1225.11 397C1224.89 397.24 1224.79 397.553 1224.79 397.94V398.26C1224.79 398.647 1224.89 398.96 1225.11 399.2C1225.33 399.44 1225.64 399.56 1226.03 399.56ZM1218.39 393C1217.37 393 1216.58 392.733 1216.01 392.2C1215.43 391.653 1215.15 390.913 1215.15 389.98V389.84C1215.15 388.893 1215.43 388.153 1216.01 387.62C1216.58 387.073 1217.37 386.8 1218.39 386.8C1219.37 386.8 1220.16 387.073 1220.75 387.62C1221.33 388.153 1221.63 388.893 1221.63 389.84V389.98C1221.63 390.913 1221.34 391.653 1220.77 392.2C1220.19 392.733 1219.4 393 1218.39 393ZM1218.39 391.36C1218.77 391.36 1219.07 391.24 1219.29 391C1219.51 390.76 1219.62 390.447 1219.62 390.06V389.74C1219.62 389.353 1219.51 389.04 1219.29 388.8C1219.07 388.56 1218.77 388.44 1218.39 388.44C1218 388.44 1217.69 388.56 1217.47 388.8C1217.25 389.04 1217.15 389.353 1217.15 389.74V390.06C1217.15 390.447 1217.25 390.76 1217.47 391C1217.69 391.24 1218 391.36 1218.39 391.36Z" fill="#FFD3D3"/>
<path d="M820 725.257L849.445 769.267C852.786 774.26 858.397 777.257 864.405 777.257H1160" stroke="#FFD3D3" stroke-width="6" stroke-linecap="round"/>
<path d="M954.92 749.257V746.937H956.76V737.577H954.92V735.257H962.12C962.973 735.257 963.713 735.404 964.34 735.697C964.98 735.977 965.473 736.384 965.82 736.917C966.18 737.437 966.36 738.064 966.36 738.797V738.997C966.36 739.637 966.24 740.164 966 740.577C965.76 740.977 965.473 741.291 965.14 741.517C964.82 741.731 964.513 741.884 964.22 741.977V742.337C964.513 742.417 964.833 742.571 965.18 742.797C965.527 743.011 965.82 743.324 966.06 743.737C966.313 744.151 966.44 744.691 966.44 745.357V745.557C966.44 746.331 966.26 746.997 965.9 747.557C965.54 748.104 965.04 748.524 964.4 748.817C963.773 749.111 963.04 749.257 962.2 749.257H954.92ZM959.4 746.857H961.88C962.453 746.857 962.913 746.717 963.26 746.437C963.62 746.157 963.8 745.757 963.8 745.237V745.037C963.8 744.517 963.627 744.117 963.28 743.837C962.933 743.557 962.467 743.417 961.88 743.417H959.4V746.857ZM959.4 741.017H961.84C962.387 741.017 962.833 740.877 963.18 740.597C963.54 740.317 963.72 739.931 963.72 739.437V739.237C963.72 738.731 963.547 738.344 963.2 738.077C962.853 737.797 962.4 737.657 961.84 737.657H959.4V741.017ZM974.001 749.537C972.855 749.537 971.868 749.331 971.041 748.917C970.228 748.491 969.601 747.891 969.161 747.117C968.735 746.331 968.521 745.404 968.521 744.337V735.257H971.161V744.417C971.161 745.271 971.401 745.944 971.881 746.437C972.375 746.931 973.081 747.177 974.001 747.177C974.921 747.177 975.621 746.931 976.101 746.437C976.595 745.944 976.841 745.271 976.841 744.417V735.257H979.481V744.337C979.481 745.404 979.261 746.331 978.821 747.117C978.395 747.891 977.768 748.491 976.941 748.917C976.128 749.331 975.148 749.537 974.001 749.537ZM982.039 749.257V735.257H988.119C988.999 735.257 989.765 735.411 990.419 735.717C991.072 736.024 991.579 736.457 991.939 737.017C992.299 737.577 992.479 738.237 992.479 738.997V739.237C992.479 740.077 992.279 740.757 991.879 741.277C991.479 741.797 990.985 742.177 990.399 742.417V742.777C990.932 742.804 991.345 742.991 991.639 743.337C991.932 743.671 992.079 744.117 992.079 744.677V749.257H989.439V745.057C989.439 744.737 989.352 744.477 989.179 744.277C989.019 744.077 988.745 743.977 988.359 743.977H984.679V749.257H982.039ZM984.679 741.577H987.839C988.465 741.577 988.952 741.411 989.299 741.077C989.659 740.731 989.839 740.277 989.839 739.717V739.517C989.839 738.957 989.665 738.511 989.319 738.177C988.972 737.831 988.479 737.657 987.839 737.657H984.679V741.577ZM994.675 749.257V735.257H999.695L1002.48 747.457H1002.84V735.257H1005.44V749.257H1000.42L997.635 737.057H997.275V749.257H994.675ZM1011.31 749.257V737.657H1007.23V735.257H1018.03V737.657H1013.95V749.257H1011.31ZM1026.94 749.257V737.657H1022.86V735.257H1033.66V737.657H1029.58V749.257H1026.94ZM1040.33 749.537C1038.57 749.537 1037.17 749.057 1036.13 748.097C1035.09 747.124 1034.57 745.737 1034.57 743.937V740.577C1034.57 738.777 1035.09 737.397 1036.13 736.437C1037.17 735.464 1038.57 734.977 1040.33 734.977C1042.09 734.977 1043.49 735.464 1044.53 736.437C1045.57 737.397 1046.09 738.777 1046.09 740.577V743.937C1046.09 745.737 1045.57 747.124 1044.53 748.097C1043.49 749.057 1042.09 749.537 1040.33 749.537ZM1040.33 747.177C1041.32 747.177 1042.08 746.891 1042.63 746.317C1043.18 745.744 1043.45 744.977 1043.45 744.017V740.497C1043.45 739.537 1043.18 738.771 1042.63 738.197C1042.08 737.624 1041.32 737.337 1040.33 737.337C1039.36 737.337 1038.59 737.624 1038.03 738.197C1037.48 738.771 1037.21 739.537 1037.21 740.497V744.017C1037.21 744.977 1037.48 745.744 1038.03 746.317C1038.59 746.891 1039.36 747.177 1040.33 747.177ZM1048.41 749.257V735.257H1051.05V740.817H1051.41L1055.95 735.257H1059.33L1053.49 742.157L1059.53 749.257H1056.05L1051.41 743.577H1051.05V749.257H1048.41ZM1060.93 749.257V735.257H1069.93V737.657H1063.57V740.997H1069.37V743.397H1063.57V746.857H1070.05V749.257H1060.93ZM1072 749.257V735.257H1077.02L1079.8 747.457H1080.16V735.257H1082.76V749.257H1077.74L1074.96 737.057H1074.6V749.257H1072ZM1096.56 749.257V746.417H1089.68V743.457L1094.52 735.257H1099.12V744.137H1101.44V746.417H1099.12V749.257H1096.56ZM1092.12 744.137H1096.56V736.897H1096.2L1092.12 743.817V744.137ZM1107.93 749.537C1106.84 749.537 1105.89 749.344 1105.09 748.957C1104.3 748.571 1103.7 748.024 1103.27 747.317C1102.84 746.611 1102.63 745.791 1102.63 744.857V744.657H1105.23V744.837C1105.23 745.504 1105.45 746.077 1105.89 746.557C1106.34 747.024 1107.01 747.257 1107.89 747.257C1108.77 747.257 1109.44 747.024 1109.91 746.557C1110.39 746.077 1110.63 745.457 1110.63 744.697V744.497C1110.63 743.751 1110.39 743.157 1109.91 742.717C1109.44 742.277 1108.86 742.057 1108.15 742.057C1107.76 742.057 1107.44 742.111 1107.19 742.217C1106.94 742.324 1106.73 742.457 1106.57 742.617C1106.41 742.777 1106.28 742.937 1106.17 743.097H1103.07V735.257H1112.63V737.577H1105.63V740.997H1105.99C1106.12 740.824 1106.3 740.657 1106.53 740.497C1106.76 740.337 1107.05 740.204 1107.41 740.097C1107.77 739.991 1108.2 739.937 1108.69 739.937C1109.52 739.937 1110.27 740.111 1110.95 740.457C1111.63 740.804 1112.17 741.317 1112.57 741.997C1112.98 742.664 1113.19 743.491 1113.19 744.477V744.717C1113.19 745.704 1112.98 746.557 1112.55 747.277C1112.14 747.997 1111.54 748.557 1110.75 748.957C1109.96 749.344 1109.02 749.537 1107.93 749.537ZM1116.82 749.517L1115.3 748.297L1126.06 734.997L1127.58 736.217L1116.82 749.517ZM1125.26 749.457C1124.25 749.457 1123.46 749.191 1122.88 748.657C1122.31 748.111 1122.02 747.371 1122.02 746.437V746.297C1122.02 745.351 1122.31 744.611 1122.88 744.077C1123.46 743.531 1124.25 743.257 1125.26 743.257C1126.25 743.257 1127.04 743.531 1127.62 744.077C1128.21 744.611 1128.5 745.351 1128.5 746.297V746.437C1128.5 747.371 1128.22 748.111 1127.64 748.657C1127.07 749.191 1126.28 749.457 1125.26 749.457ZM1125.26 747.817C1125.65 747.817 1125.95 747.697 1126.16 747.457C1126.39 747.217 1126.5 746.904 1126.5 746.517V746.197C1126.5 745.811 1126.39 745.497 1126.16 745.257C1125.95 745.017 1125.65 744.897 1125.26 744.897C1124.88 744.897 1124.57 745.017 1124.34 745.257C1124.13 745.497 1124.02 745.811 1124.02 746.197V746.517C1124.02 746.904 1124.13 747.217 1124.34 747.457C1124.57 747.697 1124.88 747.817 1125.26 747.817ZM1117.62 741.257C1116.61 741.257 1115.82 740.991 1115.24 740.457C1114.67 739.911 1114.38 739.171 1114.38 738.237V738.097C1114.38 737.151 1114.67 736.411 1115.24 735.877C1115.82 735.331 1116.61 735.057 1117.62 735.057C1118.61 735.057 1119.4 735.331 1119.98 735.877C1120.57 736.411 1120.86 737.151 1120.86 738.097V738.237C1120.86 739.171 1120.58 739.911 1120 740.457C1119.43 740.991 1118.64 741.257 1117.62 741.257ZM1117.62 739.617C1118.01 739.617 1118.31 739.497 1118.52 739.257C1118.75 739.017 1118.86 738.704 1118.86 738.317V737.997C1118.86 737.611 1118.75 737.297 1118.52 737.057C1118.31 736.817 1118.01 736.697 1117.62 736.697C1117.24 736.697 1116.93 736.817 1116.7 737.057C1116.49 737.297 1116.38 737.611 1116.38 737.997V738.317C1116.38 738.704 1116.49 739.017 1116.7 739.257C1116.93 739.497 1117.24 739.617 1117.62 739.617Z" fill="#FFD3D3"/>
<path d="M599 510.11L580.831 476.507C577.691 470.699 571.622 467.076 565.019 467.068L302.053 466.743" stroke="#FFD3D3" stroke-width="6" stroke-linecap="round"/>
<path d="M325.32 448V434H327.96V445.6H334.36V448H325.32ZM336.16 448V434H338.8V448H336.16ZM346.873 448.28C345.113 448.28 343.713 447.8 342.673 446.84C341.633 445.867 341.113 444.48 341.113 442.68V439.32C341.113 437.52 341.633 436.14 342.673 435.18C343.713 434.207 345.113 433.72 346.873 433.72C348.633 433.72 350.033 434.207 351.073 435.18C352.113 436.14 352.633 437.52 352.633 439.32V442.68C352.633 444.48 352.113 445.867 351.073 446.84C350.033 447.8 348.633 448.28 346.873 448.28ZM346.873 445.92C347.86 445.92 348.627 445.633 349.173 445.06C349.72 444.487 349.993 443.72 349.993 442.76V439.24C349.993 438.28 349.72 437.513 349.173 436.94C348.627 436.367 347.86 436.08 346.873 436.08C345.9 436.08 345.133 436.367 344.573 436.94C344.027 437.513 343.753 438.28 343.753 439.24V442.76C343.753 443.72 344.027 444.487 344.573 445.06C345.133 445.633 345.9 445.92 346.873 445.92ZM347.793 451.6C347.14 451.6 346.607 451.393 346.193 450.98C345.793 450.58 345.593 450.04 345.593 449.36V448H348.153V448.96C348.153 449.36 348.34 449.56 348.713 449.56H349.893V451.6H347.793ZM360.349 448.28C359.202 448.28 358.216 448.073 357.389 447.66C356.576 447.233 355.949 446.633 355.509 445.86C355.082 445.073 354.869 444.147 354.869 443.08V434H357.509V443.16C357.509 444.013 357.749 444.687 358.229 445.18C358.722 445.673 359.429 445.92 360.349 445.92C361.269 445.92 361.969 445.673 362.449 445.18C362.942 444.687 363.189 444.013 363.189 443.16V434H365.829V443.08C365.829 444.147 365.609 445.073 365.169 445.86C364.742 446.633 364.116 447.233 363.289 447.66C362.476 448.073 361.496 448.28 360.349 448.28ZM368.386 448V434H371.026V448H368.386ZM373.26 448V445.68H375.1V436.32H373.26V434H379.02C380.9 434 382.327 434.48 383.3 435.44C384.287 436.387 384.78 437.8 384.78 439.68V442.32C384.78 444.2 384.287 445.62 383.3 446.58C382.327 447.527 380.9 448 379.02 448H373.26ZM377.74 445.6H379.06C380.127 445.6 380.907 445.32 381.4 444.76C381.893 444.2 382.14 443.413 382.14 442.4V439.6C382.14 438.573 381.893 437.787 381.4 437.24C380.907 436.68 380.127 436.4 379.06 436.4H377.74V445.6ZM386.98 448V434H389.62V448H386.98ZM395.494 448V436.4H391.414V434H402.214V436.4H398.134V448H395.494ZM407.611 448V443.18L402.851 434H405.791L408.751 440H409.111L412.071 434H415.011L410.251 443.18V448H407.611ZM426.135 448.28C425.081 448.28 424.148 448.093 423.335 447.72C422.521 447.347 421.881 446.813 421.415 446.12C420.961 445.413 420.735 444.58 420.735 443.62V443.26H423.295V443.54C423.295 444.287 423.555 444.887 424.075 445.34C424.595 445.78 425.281 446 426.135 446C427.001 446 427.668 445.793 428.135 445.38C428.615 444.967 428.855 444.447 428.855 443.82V443.62C428.855 443.193 428.748 442.847 428.535 442.58C428.321 442.313 428.035 442.12 427.675 442C427.315 441.867 426.908 441.8 426.455 441.8H423.655V439L428.175 436.6V436.28H421.095V434H431.015V437.4L426.795 439.64V439.96H427.535C428.161 439.96 428.768 440.087 429.355 440.34C429.955 440.593 430.448 440.987 430.835 441.52C431.221 442.04 431.415 442.72 431.415 443.56V443.8C431.415 444.707 431.195 445.5 430.755 446.18C430.315 446.847 429.695 447.367 428.895 447.74C428.108 448.1 427.188 448.28 426.135 448.28ZM438.283 448.28C437.189 448.28 436.243 448.087 435.443 447.7C434.656 447.313 434.049 446.767 433.623 446.06C433.196 445.353 432.983 444.533 432.983 443.6V443.4H435.583V443.58C435.583 444.247 435.803 444.82 436.243 445.3C436.696 445.767 437.363 446 438.243 446C439.123 446 439.796 445.767 440.263 445.3C440.743 444.82 440.983 444.2 440.983 443.44V443.24C440.983 442.493 440.743 441.9 440.263 441.46C439.796 441.02 439.209 440.8 438.503 440.8C438.116 440.8 437.796 440.853 437.543 440.96C437.289 441.067 437.083 441.2 436.923 441.36C436.763 441.52 436.629 441.68 436.523 441.84H433.423V434H442.983V436.32H435.983V439.74H436.343C436.476 439.567 436.656 439.4 436.883 439.24C437.109 439.08 437.403 438.947 437.763 438.84C438.123 438.733 438.549 438.68 439.043 438.68C439.869 438.68 440.623 438.853 441.303 439.2C441.983 439.547 442.523 440.06 442.923 440.74C443.336 441.407 443.543 442.233 443.543 443.22V443.46C443.543 444.447 443.329 445.3 442.903 446.02C442.489 446.74 441.889 447.3 441.103 447.7C440.316 448.087 439.376 448.28 438.283 448.28ZM447.175 448.26L445.655 447.04L456.415 433.74L457.935 434.96L447.175 448.26ZM455.615 448.2C454.602 448.2 453.808 447.933 453.235 447.4C452.662 446.853 452.375 446.113 452.375 445.18V445.04C452.375 444.093 452.662 443.353 453.235 442.82C453.808 442.273 454.602 442 455.615 442C456.602 442 457.388 442.273 457.975 442.82C458.562 443.353 458.855 444.093 458.855 445.04V445.18C458.855 446.113 458.568 446.853 457.995 447.4C457.422 447.933 456.628 448.2 455.615 448.2ZM455.615 446.56C456.002 446.56 456.302 446.44 456.515 446.2C456.742 445.96 456.855 445.647 456.855 445.26V444.94C456.855 444.553 456.742 444.24 456.515 444C456.302 443.76 456.002 443.64 455.615 443.64C455.228 443.64 454.922 443.76 454.695 444C454.482 444.24 454.375 444.553 454.375 444.94V445.26C454.375 445.647 454.482 445.96 454.695 446.2C454.922 446.44 455.228 446.56 455.615 446.56ZM447.975 440C446.962 440 446.168 439.733 445.595 439.2C445.022 438.653 444.735 437.913 444.735 436.98V436.84C444.735 435.893 445.022 435.153 445.595 434.62C446.168 434.073 446.962 433.8 447.975 433.8C448.962 433.8 449.748 434.073 450.335 434.62C450.922 435.153 451.215 435.893 451.215 436.84V436.98C451.215 437.913 450.928 438.653 450.355 439.2C449.782 439.733 448.988 440 447.975 440ZM447.975 438.36C448.362 438.36 448.662 438.24 448.875 438C449.102 437.76 449.215 437.447 449.215 437.06V436.74C449.215 436.353 449.102 436.04 448.875 435.8C448.662 435.56 448.362 435.44 447.975 435.44C447.588 435.44 447.282 435.56 447.055 435.8C446.842 436.04 446.735 436.353 446.735 436.74V437.06C446.735 437.447 446.842 437.76 447.055 438C447.282 438.24 447.588 438.36 447.975 438.36Z" fill="#FFD3D3"/>
<path d="M621.472 241V227.08H616.576V224.2H629.536V227.08H624.64V241H621.472ZM637.542 241.336C635.43 241.336 633.75 240.76 632.502 239.608C631.254 238.44 630.63 236.776 630.63 234.616V230.584C630.63 228.424 631.254 226.768 632.502 225.616C633.75 224.448 635.43 223.864 637.542 223.864C639.654 223.864 641.334 224.448 642.582 225.616C643.83 226.768 644.454 228.424 644.454 230.584V234.616C644.454 236.776 643.83 238.44 642.582 239.608C641.334 240.76 639.654 241.336 637.542 241.336ZM637.542 238.504C638.726 238.504 639.646 238.16 640.302 237.472C640.958 236.784 641.286 235.864 641.286 234.712V230.488C641.286 229.336 640.958 228.416 640.302 227.728C639.646 227.04 638.726 226.696 637.542 226.696C636.374 226.696 635.454 227.04 634.782 227.728C634.126 228.416 633.798 229.336 633.798 230.488V234.712C633.798 235.864 634.126 236.784 634.782 237.472C635.454 238.16 636.374 238.504 637.542 238.504ZM650.441 241V227.08H645.545V224.2H658.505V227.08H653.609V241H650.441ZM657.963 241L662.379 224.2H667.899L672.315 241H669.051L668.139 237.304H662.139L661.227 241H657.963ZM662.883 234.376H667.395L665.355 226.192H664.923L662.883 234.376ZM674.326 241V224.2H677.494V238.12H685.174V241H674.326ZM698.533 241.336C697.237 241.336 696.093 241.104 695.101 240.64C694.109 240.176 693.333 239.512 692.773 238.648C692.213 237.784 691.933 236.744 691.933 235.528V234.856H695.053V235.528C695.053 236.536 695.365 237.296 695.989 237.808C696.613 238.304 697.461 238.552 698.533 238.552C699.621 238.552 700.429 238.336 700.957 237.904C701.501 237.472 701.773 236.92 701.773 236.248C701.773 235.784 701.637 235.408 701.365 235.12C701.109 234.832 700.725 234.6 700.213 234.424C699.717 234.232 699.109 234.056 698.389 233.896L697.837 233.776C696.685 233.52 695.693 233.2 694.861 232.816C694.045 232.416 693.413 231.896 692.965 231.256C692.533 230.616 692.317 229.784 692.317 228.76C692.317 227.736 692.557 226.864 693.037 226.144C693.533 225.408 694.221 224.848 695.101 224.464C695.997 224.064 697.045 223.864 698.245 223.864C699.445 223.864 700.509 224.072 701.437 224.488C702.381 224.888 703.117 225.496 703.645 226.312C704.189 227.112 704.461 228.12 704.461 229.336V230.056H701.341V229.336C701.341 228.696 701.213 228.184 700.957 227.8C700.717 227.4 700.365 227.112 699.901 226.936C699.437 226.744 698.885 226.648 698.245 226.648C697.285 226.648 696.573 226.832 696.109 227.2C695.661 227.552 695.437 228.04 695.437 228.664C695.437 229.08 695.541 229.432 695.749 229.72C695.973 230.008 696.301 230.248 696.733 230.44C697.165 230.632 697.717 230.8 698.389 230.944L698.941 231.064C700.141 231.32 701.181 231.648 702.061 232.048C702.957 232.448 703.653 232.976 704.149 233.632C704.645 234.288 704.893 235.128 704.893 236.152C704.893 237.176 704.629 238.08 704.101 238.864C703.589 239.632 702.853 240.24 701.893 240.688C700.949 241.12 699.829 241.336 698.533 241.336ZM713.736 241.336C712.36 241.336 711.176 241.088 710.184 240.592C709.208 240.08 708.456 239.36 707.928 238.432C707.416 237.488 707.16 236.376 707.16 235.096V224.2H710.328V235.192C710.328 236.216 710.616 237.024 711.192 237.616C711.784 238.208 712.632 238.504 713.736 238.504C714.84 238.504 715.68 238.208 716.256 237.616C716.848 237.024 717.144 236.216 717.144 235.192V224.2H720.312V235.096C720.312 236.376 720.048 237.488 719.52 238.432C719.008 239.36 718.256 240.08 717.264 240.592C716.288 241.088 715.112 241.336 713.736 241.336ZM723.381 241V224.2H730.293C731.349 224.2 732.277 224.416 733.077 224.848C733.893 225.264 734.525 225.856 734.973 226.624C735.437 227.392 735.669 228.304 735.669 229.36V229.696C735.669 230.736 735.429 231.648 734.949 232.432C734.485 233.2 733.845 233.8 733.029 234.232C732.229 234.648 731.317 234.856 730.293 234.856H726.549V241H723.381ZM726.549 231.976H729.981C730.733 231.976 731.341 231.768 731.805 231.352C732.269 230.936 732.501 230.368 732.501 229.648V229.408C732.501 228.688 732.269 228.12 731.805 227.704C731.341 227.288 730.733 227.08 729.981 227.08H726.549V231.976ZM737.865 241V224.2H744.777C745.833 224.2 746.761 224.416 747.561 224.848C748.377 225.264 749.009 225.856 749.457 226.624C749.921 227.392 750.153 228.304 750.153 229.36V229.696C750.153 230.736 749.913 231.648 749.433 232.432C748.969 233.2 748.329 233.8 747.513 234.232C746.713 234.648 745.801 234.856 744.777 234.856H741.033V241H737.865ZM741.033 231.976H744.465C745.217 231.976 745.825 231.768 746.289 231.352C746.753 230.936 746.985 230.368 746.985 229.648V229.408C746.985 228.688 746.753 228.12 746.289 227.704C745.825 227.288 745.217 227.08 744.465 227.08H741.033V231.976ZM752.35 241V224.2H755.518V238.12H763.198V241H752.35ZM766.935 241V235.216L761.223 224.2H764.751L768.303 231.4H768.735L772.287 224.2H775.815L770.103 235.216V241H766.935ZM788.059 241V226.456H787.627L785.371 231.784H782.155L785.587 224.2H791.131V241H788.059ZM800.495 241.336C798.511 241.336 796.919 240.792 795.719 239.704C794.519 238.6 793.919 236.936 793.919 234.712V230.488C793.919 228.328 794.519 226.688 795.719 225.568C796.919 224.432 798.511 223.864 800.495 223.864C802.495 223.864 804.087 224.432 805.271 225.568C806.471 226.688 807.071 228.328 807.071 230.488V234.712C807.071 236.936 806.471 238.6 805.271 239.704C804.087 240.792 802.495 241.336 800.495 241.336ZM800.495 238.6C801.695 238.6 802.575 238.272 803.135 237.616C803.711 236.96 803.999 236.024 803.999 234.808V230.344C803.999 229.112 803.679 228.184 803.039 227.56C802.415 226.92 801.567 226.6 800.495 226.6C799.391 226.6 798.527 226.928 797.903 227.584C797.295 228.24 796.991 229.16 796.991 230.344V234.808C796.991 236.072 797.279 237.024 797.855 237.664C798.447 238.288 799.327 238.6 800.495 238.6ZM816.057 241.336C814.073 241.336 812.481 240.792 811.281 239.704C810.081 238.6 809.481 236.936 809.481 234.712V230.488C809.481 228.328 810.081 226.688 811.281 225.568C812.481 224.432 814.073 223.864 816.057 223.864C818.057 223.864 819.649 224.432 820.833 225.568C822.033 226.688 822.633 228.328 822.633 230.488V234.712C822.633 236.936 822.033 238.6 820.833 239.704C819.649 240.792 818.057 241.336 816.057 241.336ZM816.057 238.6C817.257 238.6 818.137 238.272 818.697 237.616C819.273 236.96 819.561 236.024 819.561 234.808V230.344C819.561 229.112 819.241 228.184 818.601 227.56C817.977 226.92 817.129 226.6 816.057 226.6C814.953 226.6 814.089 226.928 813.465 227.584C812.857 228.24 812.553 229.16 812.553 230.344V234.808C812.553 236.072 812.841 237.024 813.417 237.664C814.009 238.288 814.889 238.6 816.057 238.6ZM831.521 241V224.2H837.402L840.306 238.84H840.738L843.642 224.2H849.522V241H846.45V226.528H846.018L843.138 241H837.906L835.026 226.528H834.594V241H831.521ZM852.686 241V224.2H855.854V241H852.686ZM859.014 241V224.2H862.182V238.12H869.862V241H859.014ZM872.021 241V224.2H875.19V238.12H882.87V241H872.021ZM885.029 241V224.2H888.197V241H885.029ZM897.885 241.336C895.773 241.336 894.093 240.76 892.845 239.608C891.597 238.44 890.973 236.776 890.973 234.616V230.584C890.973 228.424 891.597 226.768 892.845 225.616C894.093 224.448 895.773 223.864 897.885 223.864C899.997 223.864 901.677 224.448 902.925 225.616C904.173 226.768 904.797 228.424 904.797 230.584V234.616C904.797 236.776 904.173 238.44 902.925 239.608C901.677 240.76 899.997 241.336 897.885 241.336ZM897.885 238.504C899.069 238.504 899.989 238.16 900.645 237.472C901.301 236.784 901.629 235.864 901.629 234.712V230.488C901.629 229.336 901.301 228.416 900.645 227.728C899.989 227.04 899.069 226.696 897.885 226.696C896.717 226.696 895.797 227.04 895.125 227.728C894.469 228.416 894.141 229.336 894.141 230.488V234.712C894.141 235.864 894.469 236.784 895.125 237.472C895.797 238.16 896.717 238.504 897.885 238.504ZM907.576 241V224.2H913.6L916.936 238.84H917.368V224.2H920.488V241H914.464L911.128 226.36H910.696V241H907.576Z" fill="#FFD3D3"/>
<path d="M464 310.274L464.03 286.998C464.043 277.058 472.111 269.01 482.051 269.021L1058 269.705C1067.94 269.716 1075.99 277.786 1075.98 287.728L1075.95 311" stroke="#FFD3D3" stroke-width="6" stroke-linecap="round"/>
</g>
<defs>
<linearGradient id="paint0_linear_187_1977" x1="676.5" y1="712" x2="1013.5" y2="604" gradientUnits="userSpaceOnUse">
<stop offset="0.0263714" stop-color="#FF0000"/>
<stop offset="1" stop-color="#580107"/>
</linearGradient>
<linearGradient id="paint1_linear_187_1977" x1="713.5" y1="752" x2="627.5" y2="417.5" gradientUnits="userSpaceOnUse">
<stop stop-color="#144C00"/>
<stop offset="1" stop-color="#43F100"/>
</linearGradient>
<linearGradient id="paint2_linear_187_1977" x1="712.243" y1="751.195" x2="931.933" y2="597.466" gradientUnits="userSpaceOnUse">
<stop stop-color="#7A6800"/>
<stop offset="1" stop-color="#FFD420"/>
</linearGradient>
<clipPath id="clip0_187_1977">
<rect width="1540" height="849" fill="white"/>
</clipPath>
</defs>
</svg>
