<svg width="1540" height="849" viewBox="0 0 1540 849" fill="none" xmlns="http://www.w3.org/2000/svg">
<g clip-path="url(#clip0_187_1977)">
<rect width="1540" height="849" fill="black"/>
<path d="M180.944 63V35.16H171.152V29.4H197.072V35.16H187.28V63H180.944ZM208.407 63.672C206.039 63.672 203.911 63.192 202.023 62.232C200.135 61.272 198.647 59.88 197.559 58.056C196.471 56.232 195.927 54.04 195.927 51.48V50.712C195.927 48.152 196.471 45.96 197.559 44.136C198.647 42.312 200.135 40.92 202.023 39.96C203.911 39 206.039 38.52 208.407 38.52C210.775 38.52 212.903 39 214.791 39.96C216.679 40.92 218.167 42.312 219.255 44.136C220.343 45.96 220.887 48.152 220.887 50.712V51.48C220.887 54.04 220.343 56.232 219.255 58.056C218.167 59.88 216.679 61.272 214.791 62.232C212.903 63.192 210.775 63.672 208.407 63.672ZM208.407 58.296C210.263 58.296 211.799 57.704 213.015 56.52C214.231 55.304 214.839 53.576 214.839 51.336V50.856C214.839 48.616 214.231 46.904 213.015 45.72C211.831 44.504 210.295 43.896 208.407 43.896C206.551 43.896 205.015 44.504 203.799 45.72C202.583 46.904 201.975 48.616 201.975 50.856V51.336C201.975 53.576 202.583 55.304 203.799 56.52C205.015 57.704 206.551 58.296 208.407 58.296ZM226.469 63V29.4H232.517V47.976H233.381L241.253 39.192H249.125L238.133 50.712L249.509 63H241.733L233.381 53.544H232.517V63H226.469ZM262.958 63.672C260.59 63.672 258.494 63.176 256.67 62.184C254.878 61.16 253.47 59.736 252.446 57.912C251.454 56.056 250.958 53.88 250.958 51.384V50.808C250.958 48.312 251.454 46.152 252.446 44.328C253.438 42.472 254.83 41.048 256.622 40.056C258.414 39.032 260.494 38.52 262.862 38.52C265.198 38.52 267.23 39.048 268.958 40.104C270.686 41.128 272.03 42.568 272.99 44.424C273.95 46.248 274.43 48.376 274.43 50.808V52.872H257.102C257.166 54.504 257.774 55.832 258.926 56.856C260.078 57.88 261.486 58.392 263.15 58.392C264.846 58.392 266.094 58.024 266.894 57.288C267.694 56.552 268.302 55.736 268.718 54.84L273.662 57.432C273.214 58.264 272.558 59.176 271.694 60.168C270.862 61.128 269.742 61.96 268.334 62.664C266.926 63.336 265.134 63.672 262.958 63.672ZM257.15 48.36H268.286C268.158 46.984 267.598 45.88 266.606 45.048C265.646 44.216 264.382 43.8 262.814 43.8C261.182 43.8 259.886 44.216 258.926 45.048C257.966 45.88 257.374 46.984 257.15 48.36ZM279.813 63V39.192H285.765V42.312H286.629C287.013 41.48 287.733 40.696 288.789 39.96C289.845 39.192 291.445 38.808 293.589 38.808C295.445 38.808 297.061 39.24 298.437 40.104C299.845 40.936 300.933 42.104 301.701 43.608C302.469 45.08 302.853 46.808 302.853 48.792V63H296.805V49.272C296.805 47.48 296.357 46.136 295.461 45.24C294.597 44.344 293.349 43.896 291.717 43.896C289.861 43.896 288.421 44.52 287.397 45.768C286.373 46.984 285.861 48.696 285.861 50.904V63H279.813ZM320.719 63.672C318.351 63.672 316.223 63.192 314.335 62.232C312.447 61.272 310.959 59.88 309.871 58.056C308.783 56.232 308.239 54.04 308.239 51.48V50.712C308.239 48.152 308.783 45.96 309.871 44.136C310.959 42.312 312.447 40.92 314.335 39.96C316.223 39 318.351 38.52 320.719 38.52C323.087 38.52 325.215 39 327.103 39.96C328.991 40.92 330.479 42.312 331.567 44.136C332.655 45.96 333.199 48.152 333.199 50.712V51.48C333.199 54.04 332.655 56.232 331.567 58.056C330.479 59.88 328.991 61.272 327.103 62.232C325.215 63.192 323.087 63.672 320.719 63.672ZM320.719 58.296C322.575 58.296 324.111 57.704 325.327 56.52C326.543 55.304 327.151 53.576 327.151 51.336V50.856C327.151 48.616 326.543 46.904 325.327 45.72C324.143 44.504 322.607 43.896 320.719 43.896C318.863 43.896 317.327 44.504 316.111 45.72C314.895 46.904 314.287 48.616 314.287 50.856V51.336C314.287 53.576 314.895 55.304 316.111 56.52C317.327 57.704 318.863 58.296 320.719 58.296ZM338.782 63V39.192H344.734V41.784H345.598C346.014 40.984 346.702 40.296 347.662 39.72C348.622 39.112 349.886 38.808 351.454 38.808C353.15 38.808 354.51 39.144 355.534 39.816C356.558 40.456 357.342 41.304 357.886 42.36H358.75C359.294 41.336 360.062 40.488 361.054 39.816C362.046 39.144 363.454 38.808 365.278 38.808C366.75 38.808 368.078 39.128 369.262 39.768C370.478 40.376 371.438 41.32 372.142 42.6C372.878 43.848 373.246 45.432 373.246 47.352V63H367.198V47.784C367.198 46.472 366.862 45.496 366.19 44.856C365.518 44.184 364.574 43.848 363.358 43.848C361.982 43.848 360.91 44.296 360.142 45.192C359.406 46.056 359.038 47.304 359.038 48.936V63H352.99V47.784C352.99 46.472 352.654 45.496 351.982 44.856C351.31 44.184 350.366 43.848 349.15 43.848C347.774 43.848 346.702 44.296 345.934 45.192C345.198 46.056 344.83 47.304 344.83 48.936V63H338.782ZM379.751 63V39.192H385.799V63H379.751ZM382.775 36.408C381.687 36.408 380.759 36.056 379.991 35.352C379.255 34.648 378.887 33.72 378.887 32.568C378.887 31.416 379.255 30.488 379.991 29.784C380.759 29.08 381.687 28.728 382.775 28.728C383.895 28.728 384.823 29.08 385.559 29.784C386.295 30.488 386.663 31.416 386.663 32.568C386.663 33.72 386.295 34.648 385.559 35.352C384.823 36.056 383.895 36.408 382.775 36.408ZM403.685 63.672C401.381 63.672 399.285 63.192 397.397 62.232C395.541 61.272 394.069 59.88 392.981 58.056C391.893 56.232 391.349 54.024 391.349 51.432V50.76C391.349 48.168 391.893 45.96 392.981 44.136C394.069 42.312 395.541 40.92 397.397 39.96C399.285 39 401.381 38.52 403.685 38.52C405.957 38.52 407.909 38.92 409.541 39.72C411.173 40.52 412.485 41.624 413.477 43.032C414.501 44.408 415.173 45.976 415.493 47.736L409.637 48.984C409.509 48.024 409.221 47.16 408.773 46.392C408.325 45.624 407.685 45.016 406.853 44.568C406.053 44.12 405.045 43.896 403.829 43.896C402.613 43.896 401.509 44.168 400.517 44.712C399.557 45.224 398.789 46.008 398.213 47.064C397.669 48.088 397.397 49.352 397.397 50.856V51.336C397.397 52.84 397.669 54.12 398.213 55.176C398.789 56.2 399.557 56.984 400.517 57.528C401.509 58.04 402.613 58.296 403.829 58.296C405.653 58.296 407.029 57.832 407.957 56.904C408.917 55.944 409.525 54.696 409.781 53.16L415.637 54.552C415.221 56.248 414.501 57.8 413.477 59.208C412.485 60.584 411.173 61.672 409.541 62.472C407.909 63.272 405.957 63.672 403.685 63.672ZM430.514 63.672C427.41 63.672 424.866 63 422.882 61.656C420.898 60.312 419.698 58.392 419.282 55.896L424.85 54.456C425.074 55.576 425.442 56.456 425.954 57.096C426.498 57.736 427.154 58.2 427.922 58.488C428.722 58.744 429.586 58.872 430.514 58.872C431.922 58.872 432.962 58.632 433.634 58.152C434.306 57.64 434.642 57.016 434.642 56.28C434.642 55.544 434.322 54.984 433.682 54.6C433.042 54.184 432.018 53.848 430.61 53.592L429.266 53.352C427.602 53.032 426.082 52.6 424.706 52.056C423.33 51.48 422.226 50.696 421.394 49.704C420.562 48.712 420.146 47.432 420.146 45.864C420.146 43.496 421.01 41.688 422.738 40.44C424.466 39.16 426.738 38.52 429.554 38.52C432.21 38.52 434.418 39.112 436.178 40.296C437.938 41.48 439.09 43.032 439.634 44.952L434.018 46.68C433.762 45.464 433.234 44.6 432.434 44.088C431.666 43.576 430.706 43.32 429.554 43.32C428.402 43.32 427.522 43.528 426.914 43.944C426.306 44.328 426.002 44.872 426.002 45.576C426.002 46.344 426.322 46.92 426.962 47.304C427.602 47.656 428.466 47.928 429.554 48.12L430.898 48.36C432.69 48.68 434.306 49.112 435.746 49.656C437.218 50.168 438.37 50.92 439.202 51.912C440.066 52.872 440.498 54.184 440.498 55.848C440.498 58.344 439.586 60.28 437.762 61.656C435.97 63 433.554 63.672 430.514 63.672Z" fill="#FFD3D3"/>
<path d="M581.566 644.971C606.995 690.331 648.493 724.52 697.88 740.801C747.267 757.081 800.961 754.272 848.379 732.926C895.798 711.581 933.501 673.248 954.058 625.482C974.615 577.716 976.534 523.983 959.437 474.873L876.034 503.907C885.872 532.167 884.768 563.086 872.939 590.571C861.11 618.057 839.415 640.115 812.129 652.397C784.844 664.68 753.947 666.296 725.528 656.928C697.11 647.56 673.231 627.887 658.599 601.786L581.566 644.971Z" fill="#FFF38B"/>
<path d="M585.211 651.216C566.72 620.765 556.361 586.075 555.125 550.47C553.89 514.866 561.82 479.541 578.156 447.881C594.492 416.221 618.685 389.288 648.418 369.663C678.151 350.037 712.427 338.378 747.959 335.802L754.397 424.599C734.074 426.073 714.469 432.742 697.463 443.967C680.457 455.192 666.619 470.597 657.275 488.705C647.931 506.813 643.395 527.018 644.102 547.383C644.809 567.747 650.734 587.589 661.31 605.006L585.211 651.216Z" fill="#FFB800"/>
<path d="M743.349 336.188C791.752 331.594 840.235 344.102 880.374 371.539C920.514 398.975 949.773 439.606 963.07 486.372L877.798 510.618C870.168 483.783 853.379 460.47 830.348 444.727C807.316 428.985 779.498 421.808 751.725 424.444L743.349 336.188Z" fill="#FFE500"/>
<circle cx="762" cy="542" r="36" fill="#B7860B"/>
<circle cx="764" cy="543" r="36" fill="#FFB800"/>
<circle cx="764" cy="543" r="29" fill="#FFE600"/>
<path fill-rule="evenodd" clip-rule="evenodd" d="M763 571C779.017 571 792 558.016 792 542C792 534.246 788.957 527.203 784 522C789.545 527.282 793 534.738 793 543C793 559.016 780.017 572 764 572C755.738 572 748.282 568.545 743 563C748.203 567.957 755.246 571 763 571Z" fill="#B7860B"/>
<path d="M854 700L883.445 744.009C886.786 749.003 892.397 752 898.405 752H1194" stroke="#FFD3D3" stroke-width="6" stroke-linecap="round"/>
<path d="M988.92 724V721.68H990.76V712.32H988.92V710H996.12C996.973 710 997.713 710.147 998.34 710.44C998.98 710.72 999.473 711.127 999.82 711.66C1000.18 712.18 1000.36 712.807 1000.36 713.54V713.74C1000.36 714.38 1000.24 714.907 1000 715.32C999.76 715.72 999.473 716.033 999.14 716.26C998.82 716.473 998.513 716.627 998.22 716.72V717.08C998.513 717.16 998.833 717.313 999.18 717.54C999.527 717.753 999.82 718.067 1000.06 718.48C1000.31 718.893 1000.44 719.433 1000.44 720.1V720.3C1000.44 721.073 1000.26 721.74 999.9 722.3C999.54 722.847 999.04 723.267 998.4 723.56C997.773 723.853 997.04 724 996.2 724H988.92ZM993.4 721.6H995.88C996.453 721.6 996.913 721.46 997.26 721.18C997.62 720.9 997.8 720.5 997.8 719.98V719.78C997.8 719.26 997.627 718.86 997.28 718.58C996.933 718.3 996.467 718.16 995.88 718.16H993.4V721.6ZM993.4 715.76H995.84C996.387 715.76 996.833 715.62 997.18 715.34C997.54 715.06 997.72 714.673 997.72 714.18V713.98C997.72 713.473 997.547 713.087 997.2 712.82C996.853 712.54 996.4 712.4 995.84 712.4H993.4V715.76ZM1008 724.28C1006.85 724.28 1005.87 724.073 1005.04 723.66C1004.23 723.233 1003.6 722.633 1003.16 721.86C1002.73 721.073 1002.52 720.147 1002.52 719.08V710H1005.16V719.16C1005.16 720.013 1005.4 720.687 1005.88 721.18C1006.37 721.673 1007.08 721.92 1008 721.92C1008.92 721.92 1009.62 721.673 1010.1 721.18C1010.59 720.687 1010.84 720.013 1010.84 719.16V710H1013.48V719.08C1013.48 720.147 1013.26 721.073 1012.82 721.86C1012.39 722.633 1011.77 723.233 1010.94 723.66C1010.13 724.073 1009.15 724.28 1008 724.28ZM1016.04 724V710H1022.12C1023 710 1023.77 710.153 1024.42 710.46C1025.07 710.767 1025.58 711.2 1025.94 711.76C1026.3 712.32 1026.48 712.98 1026.48 713.74V713.98C1026.48 714.82 1026.28 715.5 1025.88 716.02C1025.48 716.54 1024.99 716.92 1024.4 717.16V717.52C1024.93 717.547 1025.35 717.733 1025.64 718.08C1025.93 718.413 1026.08 718.86 1026.08 719.42V724H1023.44V719.8C1023.44 719.48 1023.35 719.22 1023.18 719.02C1023.02 718.82 1022.75 718.72 1022.36 718.72H1018.68V724H1016.04ZM1018.68 716.32H1021.84C1022.47 716.32 1022.95 716.153 1023.3 715.82C1023.66 715.473 1023.84 715.02 1023.84 714.46V714.26C1023.84 713.7 1023.67 713.253 1023.32 712.92C1022.97 712.573 1022.48 712.4 1021.84 712.4H1018.68V716.32ZM1028.68 724V710H1033.7L1036.48 722.2H1036.84V710H1039.44V724H1034.42L1031.64 711.8H1031.28V724H1028.68ZM1045.31 724V712.4H1041.23V710H1052.03V712.4H1047.95V724H1045.31ZM1060.94 724V712.4H1056.86V710H1067.66V712.4H1063.58V724H1060.94ZM1074.33 724.28C1072.57 724.28 1071.17 723.8 1070.13 722.84C1069.09 721.867 1068.57 720.48 1068.57 718.68V715.32C1068.57 713.52 1069.09 712.14 1070.13 711.18C1071.17 710.207 1072.57 709.72 1074.33 709.72C1076.09 709.72 1077.49 710.207 1078.53 711.18C1079.57 712.14 1080.09 713.52 1080.09 715.32V718.68C1080.09 720.48 1079.57 721.867 1078.53 722.84C1077.49 723.8 1076.09 724.28 1074.33 724.28ZM1074.33 721.92C1075.32 721.92 1076.08 721.633 1076.63 721.06C1077.18 720.487 1077.45 719.72 1077.45 718.76V715.24C1077.45 714.28 1077.18 713.513 1076.63 712.94C1076.08 712.367 1075.32 712.08 1074.33 712.08C1073.36 712.08 1072.59 712.367 1072.03 712.94C1071.48 713.513 1071.21 714.28 1071.21 715.24V718.76C1071.21 719.72 1071.48 720.487 1072.03 721.06C1072.59 721.633 1073.36 721.92 1074.33 721.92ZM1082.41 724V710H1085.05V715.56H1085.41L1089.95 710H1093.33L1087.49 716.9L1093.53 724H1090.05L1085.41 718.32H1085.05V724H1082.41ZM1094.93 724V710H1103.93V712.4H1097.57V715.74H1103.37V718.14H1097.57V721.6H1104.05V724H1094.93ZM1106 724V710H1111.02L1113.8 722.2H1114.16V710H1116.76V724H1111.74L1108.96 711.8H1108.6V724H1106ZM1130.56 724V721.16H1123.68V718.2L1128.52 710H1133.12V718.88H1135.44V721.16H1133.12V724H1130.56ZM1126.12 718.88H1130.56V711.64H1130.2L1126.12 718.56V718.88ZM1141.93 724.28C1140.84 724.28 1139.89 724.087 1139.09 723.7C1138.3 723.313 1137.7 722.767 1137.27 722.06C1136.84 721.353 1136.63 720.533 1136.63 719.6V719.4H1139.23V719.58C1139.23 720.247 1139.45 720.82 1139.89 721.3C1140.34 721.767 1141.01 722 1141.89 722C1142.77 722 1143.44 721.767 1143.91 721.3C1144.39 720.82 1144.63 720.2 1144.63 719.44V719.24C1144.63 718.493 1144.39 717.9 1143.91 717.46C1143.44 717.02 1142.86 716.8 1142.15 716.8C1141.76 716.8 1141.44 716.853 1141.19 716.96C1140.94 717.067 1140.73 717.2 1140.57 717.36C1140.41 717.52 1140.28 717.68 1140.17 717.84H1137.07V710H1146.63V712.32H1139.63V715.74H1139.99C1140.12 715.567 1140.3 715.4 1140.53 715.24C1140.76 715.08 1141.05 714.947 1141.41 714.84C1141.77 714.733 1142.2 714.68 1142.69 714.68C1143.52 714.68 1144.27 714.853 1144.95 715.2C1145.63 715.547 1146.17 716.06 1146.57 716.74C1146.98 717.407 1147.19 718.233 1147.19 719.22V719.46C1147.19 720.447 1146.98 721.3 1146.55 722.02C1146.14 722.74 1145.54 723.3 1144.75 723.7C1143.96 724.087 1143.02 724.28 1141.93 724.28ZM1150.82 724.26L1149.3 723.04L1160.06 709.74L1161.58 710.96L1150.82 724.26ZM1159.26 724.2C1158.25 724.2 1157.46 723.933 1156.88 723.4C1156.31 722.853 1156.02 722.113 1156.02 721.18V721.04C1156.02 720.093 1156.31 719.353 1156.88 718.82C1157.46 718.273 1158.25 718 1159.26 718C1160.25 718 1161.04 718.273 1161.62 718.82C1162.21 719.353 1162.5 720.093 1162.5 721.04V721.18C1162.5 722.113 1162.22 722.853 1161.64 723.4C1161.07 723.933 1160.28 724.2 1159.26 724.2ZM1159.26 722.56C1159.65 722.56 1159.95 722.44 1160.16 722.2C1160.39 721.96 1160.5 721.647 1160.5 721.26V720.94C1160.5 720.553 1160.39 720.24 1160.16 720C1159.95 719.76 1159.65 719.64 1159.26 719.64C1158.88 719.64 1158.57 719.76 1158.34 720C1158.13 720.24 1158.02 720.553 1158.02 720.94V721.26C1158.02 721.647 1158.13 721.96 1158.34 722.2C1158.57 722.44 1158.88 722.56 1159.26 722.56ZM1151.62 716C1150.61 716 1149.82 715.733 1149.24 715.2C1148.67 714.653 1148.38 713.913 1148.38 712.98V712.84C1148.38 711.893 1148.67 711.153 1149.24 710.62C1149.82 710.073 1150.61 709.8 1151.62 709.8C1152.61 709.8 1153.4 710.073 1153.98 710.62C1154.57 711.153 1154.86 711.893 1154.86 712.84V712.98C1154.86 713.913 1154.58 714.653 1154 715.2C1153.43 715.733 1152.64 716 1151.62 716ZM1151.62 714.36C1152.01 714.36 1152.31 714.24 1152.52 714C1152.75 713.76 1152.86 713.447 1152.86 713.06V712.74C1152.86 712.353 1152.75 712.04 1152.52 711.8C1152.31 711.56 1152.01 711.44 1151.62 711.44C1151.24 711.44 1150.93 711.56 1150.7 711.8C1150.49 712.04 1150.38 712.353 1150.38 712.74V713.06C1150.38 713.447 1150.49 713.76 1150.7 714C1150.93 714.24 1151.24 714.36 1151.62 714.36Z" fill="#FFD3D3"/>
<path d="M578 510.11L559.831 476.507C556.691 470.699 550.622 467.076 544.019 467.068L281.053 466.743" stroke="#FFD3D3" stroke-width="6" stroke-linecap="round"/>
<path d="M304.32 448V434H306.96V445.6H313.36V448H304.32ZM315.16 448V434H317.8V448H315.16ZM325.873 448.28C324.113 448.28 322.713 447.8 321.673 446.84C320.633 445.867 320.113 444.48 320.113 442.68V439.32C320.113 437.52 320.633 436.14 321.673 435.18C322.713 434.207 324.113 433.72 325.873 433.72C327.633 433.72 329.033 434.207 330.073 435.18C331.113 436.14 331.633 437.52 331.633 439.32V442.68C331.633 444.48 331.113 445.867 330.073 446.84C329.033 447.8 327.633 448.28 325.873 448.28ZM325.873 445.92C326.86 445.92 327.627 445.633 328.173 445.06C328.72 444.487 328.993 443.72 328.993 442.76V439.24C328.993 438.28 328.72 437.513 328.173 436.94C327.627 436.367 326.86 436.08 325.873 436.08C324.9 436.08 324.133 436.367 323.573 436.94C323.027 437.513 322.753 438.28 322.753 439.24V442.76C322.753 443.72 323.027 444.487 323.573 445.06C324.133 445.633 324.9 445.92 325.873 445.92ZM326.793 451.6C326.14 451.6 325.607 451.393 325.193 450.98C324.793 450.58 324.593 450.04 324.593 449.36V448H327.153V448.96C327.153 449.36 327.34 449.56 327.713 449.56H328.893V451.6H326.793ZM339.349 448.28C338.202 448.28 337.216 448.073 336.389 447.66C335.576 447.233 334.949 446.633 334.509 445.86C334.082 445.073 333.869 444.147 333.869 443.08V434H336.509V443.16C336.509 444.013 336.749 444.687 337.229 445.18C337.722 445.673 338.429 445.92 339.349 445.92C340.269 445.92 340.969 445.673 341.449 445.18C341.942 444.687 342.189 444.013 342.189 443.16V434H344.829V443.08C344.829 444.147 344.609 445.073 344.169 445.86C343.742 446.633 343.116 447.233 342.289 447.66C341.476 448.073 340.496 448.28 339.349 448.28ZM347.386 448V434H350.026V448H347.386ZM352.26 448V445.68H354.1V436.32H352.26V434H358.02C359.9 434 361.327 434.48 362.3 435.44C363.287 436.387 363.78 437.8 363.78 439.68V442.32C363.78 444.2 363.287 445.62 362.3 446.58C361.327 447.527 359.9 448 358.02 448H352.26ZM356.74 445.6H358.06C359.127 445.6 359.907 445.32 360.4 444.76C360.893 444.2 361.14 443.413 361.14 442.4V439.6C361.14 438.573 360.893 437.787 360.4 437.24C359.907 436.68 359.127 436.4 358.06 436.4H356.74V445.6ZM365.98 448V434H368.62V448H365.98ZM374.494 448V436.4H370.414V434H381.214V436.4H377.134V448H374.494ZM386.611 448V443.18L381.851 434H384.791L387.751 440H388.111L391.071 434H394.011L389.251 443.18V448H386.611ZM405.135 448.28C404.081 448.28 403.148 448.093 402.335 447.72C401.521 447.347 400.881 446.813 400.415 446.12C399.961 445.413 399.735 444.58 399.735 443.62V443.26H402.295V443.54C402.295 444.287 402.555 444.887 403.075 445.34C403.595 445.78 404.281 446 405.135 446C406.001 446 406.668 445.793 407.135 445.38C407.615 444.967 407.855 444.447 407.855 443.82V443.62C407.855 443.193 407.748 442.847 407.535 442.58C407.321 442.313 407.035 442.12 406.675 442C406.315 441.867 405.908 441.8 405.455 441.8H402.655V439L407.175 436.6V436.28H400.095V434H410.015V437.4L405.795 439.64V439.96H406.535C407.161 439.96 407.768 440.087 408.355 440.34C408.955 440.593 409.448 440.987 409.835 441.52C410.221 442.04 410.415 442.72 410.415 443.56V443.8C410.415 444.707 410.195 445.5 409.755 446.18C409.315 446.847 408.695 447.367 407.895 447.74C407.108 448.1 406.188 448.28 405.135 448.28ZM417.283 448.28C416.189 448.28 415.243 448.087 414.443 447.7C413.656 447.313 413.049 446.767 412.623 446.06C412.196 445.353 411.983 444.533 411.983 443.6V443.4H414.583V443.58C414.583 444.247 414.803 444.82 415.243 445.3C415.696 445.767 416.363 446 417.243 446C418.123 446 418.796 445.767 419.263 445.3C419.743 444.82 419.983 444.2 419.983 443.44V443.24C419.983 442.493 419.743 441.9 419.263 441.46C418.796 441.02 418.209 440.8 417.503 440.8C417.116 440.8 416.796 440.853 416.543 440.96C416.289 441.067 416.083 441.2 415.923 441.36C415.763 441.52 415.629 441.68 415.523 441.84H412.423V434H421.983V436.32H414.983V439.74H415.343C415.476 439.567 415.656 439.4 415.883 439.24C416.109 439.08 416.403 438.947 416.763 438.84C417.123 438.733 417.549 438.68 418.043 438.68C418.869 438.68 419.623 438.853 420.303 439.2C420.983 439.547 421.523 440.06 421.923 440.74C422.336 441.407 422.543 442.233 422.543 443.22V443.46C422.543 444.447 422.329 445.3 421.903 446.02C421.489 446.74 420.889 447.3 420.103 447.7C419.316 448.087 418.376 448.28 417.283 448.28ZM426.175 448.26L424.655 447.04L435.415 433.74L436.935 434.96L426.175 448.26ZM434.615 448.2C433.602 448.2 432.808 447.933 432.235 447.4C431.662 446.853 431.375 446.113 431.375 445.18V445.04C431.375 444.093 431.662 443.353 432.235 442.82C432.808 442.273 433.602 442 434.615 442C435.602 442 436.388 442.273 436.975 442.82C437.562 443.353 437.855 444.093 437.855 445.04V445.18C437.855 446.113 437.568 446.853 436.995 447.4C436.422 447.933 435.628 448.2 434.615 448.2ZM434.615 446.56C435.002 446.56 435.302 446.44 435.515 446.2C435.742 445.96 435.855 445.647 435.855 445.26V444.94C435.855 444.553 435.742 444.24 435.515 444C435.302 443.76 435.002 443.64 434.615 443.64C434.228 443.64 433.922 443.76 433.695 444C433.482 444.24 433.375 444.553 433.375 444.94V445.26C433.375 445.647 433.482 445.96 433.695 446.2C433.922 446.44 434.228 446.56 434.615 446.56ZM426.975 440C425.962 440 425.168 439.733 424.595 439.2C424.022 438.653 423.735 437.913 423.735 436.98V436.84C423.735 435.893 424.022 435.153 424.595 434.62C425.168 434.073 425.962 433.8 426.975 433.8C427.962 433.8 428.748 434.073 429.335 434.62C429.922 435.153 430.215 435.893 430.215 436.84V436.98C430.215 437.913 429.928 438.653 429.355 439.2C428.782 439.733 427.988 440 426.975 440ZM426.975 438.36C427.362 438.36 427.662 438.24 427.875 438C428.102 437.76 428.215 437.447 428.215 437.06V436.74C428.215 436.353 428.102 436.04 427.875 435.8C427.662 435.56 427.362 435.44 426.975 435.44C426.588 435.44 426.282 435.56 426.055 435.8C425.842 436.04 425.735 436.353 425.735 436.74V437.06C425.735 437.447 425.842 437.76 426.055 438C426.282 438.24 426.588 438.36 426.975 438.36Z" fill="#FFD3D3"/>
<path d="M913 442L942.445 397.991C945.786 392.997 951.397 390 957.405 390H1255.5" stroke="#FFD3D3" stroke-width="6" stroke-linecap="round"/>
<path d="M972.36 365L976.04 351H980.64L984.32 365H981.6L980.84 361.92H975.84L975.08 365H972.36ZM976.46 359.48H980.22L978.52 352.66H978.16L976.46 359.48ZM985.996 365V351H988.636V365H985.996ZM991.269 365V351H997.349C998.229 351 998.996 351.153 999.649 351.46C1000.3 351.767 1000.81 352.2 1001.17 352.76C1001.53 353.32 1001.71 353.98 1001.71 354.74V354.98C1001.71 355.82 1001.51 356.5 1001.11 357.02C1000.71 357.54 1000.22 357.92 999.629 358.16V358.52C1000.16 358.547 1000.58 358.733 1000.87 359.08C1001.16 359.413 1001.31 359.86 1001.31 360.42V365H998.669V360.8C998.669 360.48 998.583 360.22 998.409 360.02C998.249 359.82 997.976 359.72 997.589 359.72H993.909V365H991.269ZM993.909 357.32H997.069C997.696 357.32 998.183 357.153 998.529 356.82C998.889 356.473 999.069 356.02 999.069 355.46V355.26C999.069 354.7 998.896 354.253 998.549 353.92C998.203 353.573 997.709 353.4 997.069 353.4H993.909V357.32ZM1003.51 365V362.68H1005.35V353.32H1003.51V351H1009.27C1011.15 351 1012.57 351.48 1013.55 352.44C1014.53 353.387 1015.03 354.8 1015.03 356.68V359.32C1015.03 361.2 1014.53 362.62 1013.55 363.58C1012.57 364.527 1011.15 365 1009.27 365H1003.51ZM1007.99 362.6H1009.31C1010.37 362.6 1011.15 362.32 1011.65 361.76C1012.14 361.2 1012.39 360.413 1012.39 359.4V356.6C1012.39 355.573 1012.14 354.787 1011.65 354.24C1011.15 353.68 1010.37 353.4 1009.31 353.4H1007.99V362.6ZM1017.23 365V351H1023.31C1024.19 351 1024.95 351.153 1025.61 351.46C1026.26 351.767 1026.77 352.2 1027.13 352.76C1027.49 353.32 1027.67 353.98 1027.67 354.74V354.98C1027.67 355.82 1027.47 356.5 1027.07 357.02C1026.67 357.54 1026.17 357.92 1025.59 358.16V358.52C1026.12 358.547 1026.53 358.733 1026.83 359.08C1027.12 359.413 1027.27 359.86 1027.27 360.42V365H1024.63V360.8C1024.63 360.48 1024.54 360.22 1024.37 360.02C1024.21 359.82 1023.93 359.72 1023.55 359.72H1019.87V365H1017.23ZM1019.87 357.32H1023.03C1023.65 357.32 1024.14 357.153 1024.49 356.82C1024.85 356.473 1025.03 356.02 1025.03 355.46V355.26C1025.03 354.7 1024.85 354.253 1024.51 353.92C1024.16 353.573 1023.67 353.4 1023.03 353.4H1019.87V357.32ZM1035.3 365.28C1033.54 365.28 1032.14 364.8 1031.1 363.84C1030.06 362.867 1029.54 361.48 1029.54 359.68V356.32C1029.54 354.52 1030.06 353.14 1031.1 352.18C1032.14 351.207 1033.54 350.72 1035.3 350.72C1037.06 350.72 1038.46 351.207 1039.5 352.18C1040.54 353.14 1041.06 354.52 1041.06 356.32V359.68C1041.06 361.48 1040.54 362.867 1039.5 363.84C1038.46 364.8 1037.06 365.28 1035.3 365.28ZM1035.3 362.92C1036.29 362.92 1037.06 362.633 1037.6 362.06C1038.15 361.487 1038.42 360.72 1038.42 359.76V356.24C1038.42 355.28 1038.15 354.513 1037.6 353.94C1037.06 353.367 1036.29 353.08 1035.3 353.08C1034.33 353.08 1033.56 353.367 1033 353.94C1032.46 354.513 1032.18 355.28 1032.18 356.24V359.76C1032.18 360.72 1032.46 361.487 1033 362.06C1033.56 362.633 1034.33 362.92 1035.3 362.92ZM1043.38 365V351H1049.14C1050.02 351 1050.79 351.18 1051.46 351.54C1052.14 351.887 1052.67 352.38 1053.04 353.02C1053.43 353.66 1053.62 354.42 1053.62 355.3V355.58C1053.62 356.447 1053.42 357.207 1053.02 357.86C1052.63 358.5 1052.1 359 1051.42 359.36C1050.75 359.707 1049.99 359.88 1049.14 359.88H1046.02V365H1043.38ZM1046.02 357.48H1048.88C1049.51 357.48 1050.01 357.307 1050.4 356.96C1050.79 356.613 1050.98 356.14 1050.98 355.54V355.34C1050.98 354.74 1050.79 354.267 1050.4 353.92C1050.01 353.573 1049.51 353.4 1048.88 353.4H1046.02V357.48ZM1061.53 365L1059.69 351H1062.31L1063.67 363.16H1064.03L1065.79 351H1070.35L1072.11 363.16H1072.47L1073.83 351H1076.45L1074.61 365H1070.05L1068.25 352.56H1067.89L1066.09 365H1061.53ZM1077.07 365L1080.75 351H1085.35L1089.03 365H1086.31L1085.55 361.92H1080.55L1079.79 365H1077.07ZM1081.17 359.48H1084.93L1083.23 352.66H1082.87L1081.17 359.48ZM1090.7 365V351H1093.34V362.6H1099.74V365H1090.7ZM1101.54 365V351H1104.18V362.6H1110.58V365H1101.54ZM1112.38 365V351H1121.38V353.4H1115.02V356.74H1120.82V359.14H1115.02V362.6H1121.5V365H1112.38ZM1126.7 365V353.4H1122.62V351H1133.42V353.4H1129.34V365H1126.7ZM1164.6 365V363.32C1164.6 362.347 1164.76 361.54 1165.08 360.9C1165.4 360.247 1165.86 359.713 1166.46 359.3C1167.07 358.873 1167.82 358.527 1168.7 358.26L1170.04 357.84C1170.53 357.68 1170.94 357.487 1171.28 357.26C1171.61 357.02 1171.86 356.733 1172.04 356.4C1172.22 356.067 1172.32 355.687 1172.32 355.26V355.18C1172.32 354.513 1172.09 353.987 1171.64 353.6C1171.18 353.2 1170.56 353 1169.78 353C1169 353 1168.38 353.213 1167.9 353.64C1167.43 354.053 1167.2 354.653 1167.2 355.44V355.8H1164.64V355.48C1164.64 354.467 1164.86 353.607 1165.32 352.9C1165.77 352.193 1166.38 351.653 1167.16 351.28C1167.94 350.907 1168.82 350.72 1169.78 350.72C1170.74 350.72 1171.6 350.907 1172.38 351.28C1173.15 351.64 1173.76 352.153 1174.2 352.82C1174.65 353.473 1174.88 354.247 1174.88 355.14V355.34C1174.88 356.233 1174.69 356.993 1174.32 357.62C1173.96 358.233 1173.46 358.74 1172.84 359.14C1172.21 359.527 1171.5 359.847 1170.7 360.1L1169.42 360.5C1168.84 360.673 1168.4 360.867 1168.08 361.08C1167.76 361.28 1167.53 361.507 1167.4 361.76C1167.28 362 1167.22 362.293 1167.22 362.64V362.72H1174.76V365H1164.6ZM1181.69 365.28C1180.6 365.28 1179.65 365.087 1178.85 364.7C1178.07 364.313 1177.46 363.767 1177.03 363.06C1176.61 362.353 1176.39 361.533 1176.39 360.6V360.4H1178.99V360.58C1178.99 361.247 1179.21 361.82 1179.65 362.3C1180.11 362.767 1180.77 363 1181.65 363C1182.53 363 1183.21 362.767 1183.67 362.3C1184.15 361.82 1184.39 361.2 1184.39 360.44V360.24C1184.39 359.493 1184.15 358.9 1183.67 358.46C1183.21 358.02 1182.62 357.8 1181.91 357.8C1181.53 357.8 1181.21 357.853 1180.95 357.96C1180.7 358.067 1180.49 358.2 1180.33 358.36C1180.17 358.52 1180.04 358.68 1179.93 358.84H1176.83V351H1186.39V353.32H1179.39V356.74H1179.75C1179.89 356.567 1180.07 356.4 1180.29 356.24C1180.52 356.08 1180.81 355.947 1181.17 355.84C1181.53 355.733 1181.96 355.68 1182.45 355.68C1183.28 355.68 1184.03 355.853 1184.71 356.2C1185.39 356.547 1185.93 357.06 1186.33 357.74C1186.75 358.407 1186.95 359.233 1186.95 360.22V360.46C1186.95 361.447 1186.74 362.3 1186.31 363.02C1185.9 363.74 1185.3 364.3 1184.51 364.7C1183.73 365.087 1182.79 365.28 1181.69 365.28ZM1190.59 365.26L1189.07 364.04L1199.83 350.74L1201.35 351.96L1190.59 365.26ZM1199.03 365.2C1198.01 365.2 1197.22 364.933 1196.65 364.4C1196.07 363.853 1195.79 363.113 1195.79 362.18V362.04C1195.79 361.093 1196.07 360.353 1196.65 359.82C1197.22 359.273 1198.01 359 1199.03 359C1200.01 359 1200.8 359.273 1201.39 359.82C1201.97 360.353 1202.27 361.093 1202.27 362.04V362.18C1202.27 363.113 1201.98 363.853 1201.41 364.4C1200.83 364.933 1200.04 365.2 1199.03 365.2ZM1199.03 363.56C1199.41 363.56 1199.71 363.44 1199.93 363.2C1200.15 362.96 1200.27 362.647 1200.27 362.26V361.94C1200.27 361.553 1200.15 361.24 1199.93 361C1199.71 360.76 1199.41 360.64 1199.03 360.64C1198.64 360.64 1198.33 360.76 1198.11 361C1197.89 361.24 1197.79 361.553 1197.79 361.94V362.26C1197.79 362.647 1197.89 362.96 1198.11 363.2C1198.33 363.44 1198.64 363.56 1199.03 363.56ZM1191.39 357C1190.37 357 1189.58 356.733 1189.01 356.2C1188.43 355.653 1188.15 354.913 1188.15 353.98V353.84C1188.15 352.893 1188.43 352.153 1189.01 351.62C1189.58 351.073 1190.37 350.8 1191.39 350.8C1192.37 350.8 1193.16 351.073 1193.75 351.62C1194.33 352.153 1194.63 352.893 1194.63 353.84V353.98C1194.63 354.913 1194.34 355.653 1193.77 356.2C1193.19 356.733 1192.4 357 1191.39 357ZM1191.39 355.36C1191.77 355.36 1192.07 355.24 1192.29 355C1192.51 354.76 1192.62 354.447 1192.62 354.06V353.74C1192.62 353.353 1192.51 353.04 1192.29 352.8C1192.07 352.56 1191.77 352.44 1191.39 352.44C1191 352.44 1190.69 352.56 1190.47 352.8C1190.25 353.04 1190.15 353.353 1190.15 353.74V354.06C1190.15 354.447 1190.25 354.76 1190.47 355C1190.69 355.24 1191 355.36 1191.39 355.36Z" fill="#FFD3D3"/>
<path d="M621.472 241V227.08H616.576V224.2H629.536V227.08H624.64V241H621.472ZM637.542 241.336C635.43 241.336 633.75 240.76 632.502 239.608C631.254 238.44 630.63 236.776 630.63 234.616V230.584C630.63 228.424 631.254 226.768 632.502 225.616C633.75 224.448 635.43 223.864 637.542 223.864C639.654 223.864 641.334 224.448 642.582 225.616C643.83 226.768 644.454 228.424 644.454 230.584V234.616C644.454 236.776 643.83 238.44 642.582 239.608C641.334 240.76 639.654 241.336 637.542 241.336ZM637.542 238.504C638.726 238.504 639.646 238.16 640.302 237.472C640.958 236.784 641.286 235.864 641.286 234.712V230.488C641.286 229.336 640.958 228.416 640.302 227.728C639.646 227.04 638.726 226.696 637.542 226.696C636.374 226.696 635.454 227.04 634.782 227.728C634.126 228.416 633.798 229.336 633.798 230.488V234.712C633.798 235.864 634.126 236.784 634.782 237.472C635.454 238.16 636.374 238.504 637.542 238.504ZM650.441 241V227.08H645.545V224.2H658.505V227.08H653.609V241H650.441ZM657.963 241L662.379 224.2H667.899L672.315 241H669.051L668.139 237.304H662.139L661.227 241H657.963ZM662.883 234.376H667.395L665.355 226.192H664.923L662.883 234.376ZM674.326 241V224.2H677.494V238.12H685.174V241H674.326ZM698.533 241.336C697.237 241.336 696.093 241.104 695.101 240.64C694.109 240.176 693.333 239.512 692.773 238.648C692.213 237.784 691.933 236.744 691.933 235.528V234.856H695.053V235.528C695.053 236.536 695.365 237.296 695.989 237.808C696.613 238.304 697.461 238.552 698.533 238.552C699.621 238.552 700.429 238.336 700.957 237.904C701.501 237.472 701.773 236.92 701.773 236.248C701.773 235.784 701.637 235.408 701.365 235.12C701.109 234.832 700.725 234.6 700.213 234.424C699.717 234.232 699.109 234.056 698.389 233.896L697.837 233.776C696.685 233.52 695.693 233.2 694.861 232.816C694.045 232.416 693.413 231.896 692.965 231.256C692.533 230.616 692.317 229.784 692.317 228.76C692.317 227.736 692.557 226.864 693.037 226.144C693.533 225.408 694.221 224.848 695.101 224.464C695.997 224.064 697.045 223.864 698.245 223.864C699.445 223.864 700.509 224.072 701.437 224.488C702.381 224.888 703.117 225.496 703.645 226.312C704.189 227.112 704.461 228.12 704.461 229.336V230.056H701.341V229.336C701.341 228.696 701.213 228.184 700.957 227.8C700.717 227.4 700.365 227.112 699.901 226.936C699.437 226.744 698.885 226.648 698.245 226.648C697.285 226.648 696.573 226.832 696.109 227.2C695.661 227.552 695.437 228.04 695.437 228.664C695.437 229.08 695.541 229.432 695.749 229.72C695.973 230.008 696.301 230.248 696.733 230.44C697.165 230.632 697.717 230.8 698.389 230.944L698.941 231.064C700.141 231.32 701.181 231.648 702.061 232.048C702.957 232.448 703.653 232.976 704.149 233.632C704.645 234.288 704.893 235.128 704.893 236.152C704.893 237.176 704.629 238.08 704.101 238.864C703.589 239.632 702.853 240.24 701.893 240.688C700.949 241.12 699.829 241.336 698.533 241.336ZM713.736 241.336C712.36 241.336 711.176 241.088 710.184 240.592C709.208 240.08 708.456 239.36 707.928 238.432C707.416 237.488 707.16 236.376 707.16 235.096V224.2H710.328V235.192C710.328 236.216 710.616 237.024 711.192 237.616C711.784 238.208 712.632 238.504 713.736 238.504C714.84 238.504 715.68 238.208 716.256 237.616C716.848 237.024 717.144 236.216 717.144 235.192V224.2H720.312V235.096C720.312 236.376 720.048 237.488 719.52 238.432C719.008 239.36 718.256 240.08 717.264 240.592C716.288 241.088 715.112 241.336 713.736 241.336ZM723.381 241V224.2H730.293C731.349 224.2 732.277 224.416 733.077 224.848C733.893 225.264 734.525 225.856 734.973 226.624C735.437 227.392 735.669 228.304 735.669 229.36V229.696C735.669 230.736 735.429 231.648 734.949 232.432C734.485 233.2 733.845 233.8 733.029 234.232C732.229 234.648 731.317 234.856 730.293 234.856H726.549V241H723.381ZM726.549 231.976H729.981C730.733 231.976 731.341 231.768 731.805 231.352C732.269 230.936 732.501 230.368 732.501 229.648V229.408C732.501 228.688 732.269 228.12 731.805 227.704C731.341 227.288 730.733 227.08 729.981 227.08H726.549V231.976ZM737.865 241V224.2H744.777C745.833 224.2 746.761 224.416 747.561 224.848C748.377 225.264 749.009 225.856 749.457 226.624C749.921 227.392 750.153 228.304 750.153 229.36V229.696C750.153 230.736 749.913 231.648 749.433 232.432C748.969 233.2 748.329 233.8 747.513 234.232C746.713 234.648 745.801 234.856 744.777 234.856H741.033V241H737.865ZM741.033 231.976H744.465C745.217 231.976 745.825 231.768 746.289 231.352C746.753 230.936 746.985 230.368 746.985 229.648V229.408C746.985 228.688 746.753 228.12 746.289 227.704C745.825 227.288 745.217 227.08 744.465 227.08H741.033V231.976ZM752.35 241V224.2H755.518V238.12H763.198V241H752.35ZM766.935 241V235.216L761.223 224.2H764.751L768.303 231.4H768.735L772.287 224.2H775.815L770.103 235.216V241H766.935ZM788.059 241V226.456H787.627L785.371 231.784H782.155L785.587 224.2H791.131V241H788.059ZM800.495 241.336C798.511 241.336 796.919 240.792 795.719 239.704C794.519 238.6 793.919 236.936 793.919 234.712V230.488C793.919 228.328 794.519 226.688 795.719 225.568C796.919 224.432 798.511 223.864 800.495 223.864C802.495 223.864 804.087 224.432 805.271 225.568C806.471 226.688 807.071 228.328 807.071 230.488V234.712C807.071 236.936 806.471 238.6 805.271 239.704C804.087 240.792 802.495 241.336 800.495 241.336ZM800.495 238.6C801.695 238.6 802.575 238.272 803.135 237.616C803.711 236.96 803.999 236.024 803.999 234.808V230.344C803.999 229.112 803.679 228.184 803.039 227.56C802.415 226.92 801.567 226.6 800.495 226.6C799.391 226.6 798.527 226.928 797.903 227.584C797.295 228.24 796.991 229.16 796.991 230.344V234.808C796.991 236.072 797.279 237.024 797.855 237.664C798.447 238.288 799.327 238.6 800.495 238.6ZM816.057 241.336C814.073 241.336 812.481 240.792 811.281 239.704C810.081 238.6 809.481 236.936 809.481 234.712V230.488C809.481 228.328 810.081 226.688 811.281 225.568C812.481 224.432 814.073 223.864 816.057 223.864C818.057 223.864 819.649 224.432 820.833 225.568C822.033 226.688 822.633 228.328 822.633 230.488V234.712C822.633 236.936 822.033 238.6 820.833 239.704C819.649 240.792 818.057 241.336 816.057 241.336ZM816.057 238.6C817.257 238.6 818.137 238.272 818.697 237.616C819.273 236.96 819.561 236.024 819.561 234.808V230.344C819.561 229.112 819.241 228.184 818.601 227.56C817.977 226.92 817.129 226.6 816.057 226.6C814.953 226.6 814.089 226.928 813.465 227.584C812.857 228.24 812.553 229.16 812.553 230.344V234.808C812.553 236.072 812.841 237.024 813.417 237.664C814.009 238.288 814.889 238.6 816.057 238.6ZM831.521 241V224.2H837.402L840.306 238.84H840.738L843.642 224.2H849.522V241H846.45V226.528H846.018L843.138 241H837.906L835.026 226.528H834.594V241H831.521ZM852.686 241V224.2H855.854V241H852.686ZM859.014 241V224.2H862.182V238.12H869.862V241H859.014ZM872.021 241V224.2H875.19V238.12H882.87V241H872.021ZM885.029 241V224.2H888.197V241H885.029ZM897.885 241.336C895.773 241.336 894.093 240.76 892.845 239.608C891.597 238.44 890.973 236.776 890.973 234.616V230.584C890.973 228.424 891.597 226.768 892.845 225.616C894.093 224.448 895.773 223.864 897.885 223.864C899.997 223.864 901.677 224.448 902.925 225.616C904.173 226.768 904.797 228.424 904.797 230.584V234.616C904.797 236.776 904.173 238.44 902.925 239.608C901.677 240.76 899.997 241.336 897.885 241.336ZM897.885 238.504C899.069 238.504 899.989 238.16 900.645 237.472C901.301 236.784 901.629 235.864 901.629 234.712V230.488C901.629 229.336 901.301 228.416 900.645 227.728C899.989 227.04 899.069 226.696 897.885 226.696C896.717 226.696 895.797 227.04 895.125 227.728C894.469 228.416 894.141 229.336 894.141 230.488V234.712C894.141 235.864 894.469 236.784 895.125 237.472C895.797 238.16 896.717 238.504 897.885 238.504ZM907.576 241V224.2H913.6L916.936 238.84H917.368V224.2H920.488V241H914.464L911.128 226.36H910.696V241H907.576Z" fill="#FFD3D3"/>
<path d="M464 310.274L464.03 286.998C464.043 277.058 472.111 269.01 482.051 269.021L1058 269.705C1067.94 269.716 1075.99 277.786 1075.98 287.728L1075.95 311" stroke="#FFD3D3" stroke-width="6" stroke-linecap="round"/>
</g>
<defs>
<clipPath id="clip0_187_1977">
<rect width="1540" height="849" fill="white"/>
</clipPath>
</defs>
</svg>
