<svg width="59" height="59" viewBox="0 0 59 59" fill="none" xmlns="http://www.w3.org/2000/svg">
<path d="M29.5 16.9938C40.1775 16.9938 48.8333 25.6496 48.8333 36.3272C48.8333 47.0047 40.1775 55.6605 29.5 55.6605C18.8225 55.6605 10.1667 47.0047 10.1667 36.3272C10.1667 25.6496 18.8225 16.9938 29.5 16.9938ZM29.5 21.8272C21.4919 21.8272 15 28.3191 15 36.3272C15 44.3353 21.4919 50.8272 29.5 50.8272C37.5081 50.8272 44 44.3353 44 36.3272C44 28.3191 37.5081 21.8272 29.5 21.8272ZM29.5 25.4522L32.696 31.9281L39.8428 32.9666L34.6714 38.0075L35.8921 45.1253L29.5 41.7647L23.1078 45.1253L24.3286 38.0075L19.1573 32.9666L26.3039 31.9281L29.5 25.4522ZM44 4.9105V12.1605L40.7051 14.9096C38.032 13.5083 35.0644 12.5927 31.9193 12.2801L31.9167 4.90808L44 4.9105ZM27.0833 4.90808L27.0826 12.2799C23.9378 12.5922 20.9703 13.5075 18.2973 14.9083L15 12.1605V4.9105L27.0833 4.90808Z" fill="#FFE600"/>
</svg>
