<svg width="430" height="238" viewBox="0 0 430 238" fill="none" xmlns="http://www.w3.org/2000/svg">
<g clip-path="url(#clip0_212_3030)">
<path d="M135.84 23.7415V6.34145H129.72V2.74145H145.92V6.34145H139.8V23.7415H135.84ZM153.004 24.1615C151.524 24.1615 150.194 23.8615 149.014 23.2615C147.834 22.6615 146.904 21.7915 146.224 20.6515C145.544 19.5115 145.204 18.1415 145.204 16.5415V16.0615C145.204 14.4615 145.544 13.0915 146.224 11.9515C146.904 10.8115 147.834 9.94145 149.014 9.34145C150.194 8.74145 151.524 8.44145 153.004 8.44145C154.484 8.44145 155.814 8.74145 156.994 9.34145C158.174 9.94145 159.104 10.8115 159.784 11.9515C160.464 13.0915 160.804 14.4615 160.804 16.0615V16.5415C160.804 18.1415 160.464 19.5115 159.784 20.6515C159.104 21.7915 158.174 22.6615 156.994 23.2615C155.814 23.8615 154.484 24.1615 153.004 24.1615ZM153.004 20.8015C154.164 20.8015 155.124 20.4315 155.884 19.6915C156.644 18.9315 157.024 17.8515 157.024 16.4515V16.1515C157.024 14.7515 156.644 13.6815 155.884 12.9415C155.144 12.1815 154.184 11.8015 153.004 11.8015C151.844 11.8015 150.884 12.1815 150.124 12.9415C149.364 13.6815 148.984 14.7515 148.984 16.1515V16.4515C148.984 17.8515 149.364 18.9315 150.124 19.6915C150.884 20.4315 151.844 20.8015 153.004 20.8015ZM164.293 23.7415V2.74145H168.073V14.3515H168.613L173.533 8.86145H178.453L171.583 16.0615L178.693 23.7415H173.833L168.613 17.8315H168.073V23.7415H164.293ZM187.099 24.1615C185.619 24.1615 184.309 23.8515 183.169 23.2315C182.049 22.5915 181.169 21.7015 180.529 20.5615C179.909 19.4015 179.599 18.0415 179.599 16.4815V16.1215C179.599 14.5615 179.909 13.2115 180.529 12.0715C181.149 10.9115 182.019 10.0215 183.139 9.40145C184.259 8.76145 185.559 8.44145 187.039 8.44145C188.499 8.44145 189.769 8.77145 190.849 9.43145C191.929 10.0715 192.769 10.9715 193.369 12.1315C193.969 13.2715 194.269 14.6015 194.269 16.1215V17.4115H183.439C183.479 18.4315 183.859 19.2615 184.579 19.9015C185.299 20.5415 186.179 20.8615 187.219 20.8615C188.279 20.8615 189.059 20.6315 189.559 20.1715C190.059 19.7115 190.439 19.2015 190.699 18.6415L193.789 20.2615C193.509 20.7815 193.099 21.3515 192.559 21.9715C192.039 22.5715 191.339 23.0915 190.459 23.5315C189.579 23.9515 188.459 24.1615 187.099 24.1615ZM183.469 14.5915H190.429C190.349 13.7315 189.999 13.0415 189.379 12.5215C188.779 12.0015 187.989 11.7415 187.009 11.7415C185.989 11.7415 185.179 12.0015 184.579 12.5215C183.979 13.0415 183.609 13.7315 183.469 14.5915ZM197.633 23.7415V8.86145H201.353V10.8115H201.893C202.133 10.2915 202.583 9.80145 203.243 9.34145C203.903 8.86145 204.903 8.62145 206.243 8.62145C207.403 8.62145 208.413 8.89145 209.273 9.43145C210.153 9.95145 210.833 10.6815 211.313 11.6215C211.793 12.5415 212.033 13.6215 212.033 14.8615V23.7415H208.253V15.1615C208.253 14.0415 207.973 13.2015 207.413 12.6415C206.873 12.0815 206.093 11.8015 205.073 11.8015C203.913 11.8015 203.013 12.1915 202.373 12.9715C201.733 13.7315 201.413 14.8015 201.413 16.1815V23.7415H197.633ZM223.2 24.1615C221.72 24.1615 220.39 23.8615 219.21 23.2615C218.03 22.6615 217.1 21.7915 216.42 20.6515C215.74 19.5115 215.4 18.1415 215.4 16.5415V16.0615C215.4 14.4615 215.74 13.0915 216.42 11.9515C217.1 10.8115 218.03 9.94145 219.21 9.34145C220.39 8.74145 221.72 8.44145 223.2 8.44145C224.68 8.44145 226.01 8.74145 227.19 9.34145C228.37 9.94145 229.3 10.8115 229.98 11.9515C230.66 13.0915 231 14.4615 231 16.0615V16.5415C231 18.1415 230.66 19.5115 229.98 20.6515C229.3 21.7915 228.37 22.6615 227.19 23.2615C226.01 23.8615 224.68 24.1615 223.2 24.1615ZM223.2 20.8015C224.36 20.8015 225.32 20.4315 226.08 19.6915C226.84 18.9315 227.22 17.8515 227.22 16.4515V16.1515C227.22 14.7515 226.84 13.6815 226.08 12.9415C225.34 12.1815 224.38 11.8015 223.2 11.8015C222.04 11.8015 221.08 12.1815 220.32 12.9415C219.56 13.6815 219.18 14.7515 219.18 16.1515V16.4515C219.18 17.8515 219.56 18.9315 220.32 19.6915C221.08 20.4315 222.04 20.8015 223.2 20.8015ZM234.489 23.7415V8.86145H238.209V10.4815H238.749C239.009 9.98145 239.439 9.55145 240.039 9.19145C240.639 8.81145 241.429 8.62145 242.409 8.62145C243.469 8.62145 244.319 8.83145 244.959 9.25145C245.599 9.65145 246.089 10.1815 246.429 10.8415H246.969C247.309 10.2015 247.789 9.67145 248.409 9.25145C249.029 8.83145 249.909 8.62145 251.049 8.62145C251.969 8.62145 252.799 8.82145 253.539 9.22145C254.299 9.60145 254.899 10.1915 255.339 10.9915C255.799 11.7715 256.029 12.7615 256.029 13.9615V23.7415H252.249V14.2315C252.249 13.4115 252.039 12.8015 251.619 12.4015C251.199 11.9815 250.609 11.7715 249.849 11.7715C248.989 11.7715 248.319 12.0515 247.839 12.6115C247.379 13.1515 247.149 13.9315 247.149 14.9515V23.7415H243.369V14.2315C243.369 13.4115 243.159 12.8015 242.739 12.4015C242.319 11.9815 241.729 11.7715 240.969 11.7715C240.109 11.7715 239.439 12.0515 238.959 12.6115C238.499 13.1515 238.269 13.9315 238.269 14.9515V23.7415H234.489ZM260.094 23.7415V8.86145H263.874V23.7415H260.094ZM261.984 7.12145C261.304 7.12145 260.724 6.90145 260.244 6.46145C259.784 6.02145 259.554 5.44145 259.554 4.72145C259.554 4.00145 259.784 3.42145 260.244 2.98145C260.724 2.54145 261.304 2.32145 261.984 2.32145C262.684 2.32145 263.264 2.54145 263.724 2.98145C264.184 3.42145 264.414 4.00145 264.414 4.72145C264.414 5.44145 264.184 6.02145 263.724 6.46145C263.264 6.90145 262.684 7.12145 261.984 7.12145ZM275.053 24.1615C273.613 24.1615 272.303 23.8615 271.123 23.2615C269.963 22.6615 269.043 21.7915 268.363 20.6515C267.683 19.5115 267.343 18.1315 267.343 16.5115V16.0915C267.343 14.4715 267.683 13.0915 268.363 11.9515C269.043 10.8115 269.963 9.94145 271.123 9.34145C272.303 8.74145 273.613 8.44145 275.053 8.44145C276.473 8.44145 277.693 8.69145 278.713 9.19145C279.733 9.69145 280.553 10.3815 281.173 11.2615C281.813 12.1215 282.233 13.1015 282.433 14.2015L278.773 14.9815C278.693 14.3815 278.513 13.8415 278.233 13.3615C277.953 12.8815 277.553 12.5015 277.033 12.2215C276.533 11.9415 275.903 11.8015 275.143 11.8015C274.383 11.8015 273.693 11.9715 273.073 12.3115C272.473 12.6315 271.993 13.1215 271.633 13.7815C271.293 14.4215 271.123 15.2115 271.123 16.1515V16.4515C271.123 17.3915 271.293 18.1915 271.633 18.8515C271.993 19.4915 272.473 19.9815 273.073 20.3215C273.693 20.6415 274.383 20.8015 275.143 20.8015C276.283 20.8015 277.143 20.5115 277.723 19.9315C278.323 19.3315 278.703 18.5515 278.863 17.5915L282.523 18.4615C282.263 19.5215 281.813 20.4915 281.173 21.3715C280.553 22.2315 279.733 22.9115 278.713 23.4115C277.693 23.9115 276.473 24.1615 275.053 24.1615ZM291.821 24.1615C289.881 24.1615 288.291 23.7415 287.051 22.9015C285.811 22.0615 285.061 20.8615 284.801 19.3015L288.281 18.4015C288.421 19.1015 288.651 19.6515 288.971 20.0515C289.311 20.4515 289.721 20.7415 290.201 20.9215C290.701 21.0815 291.241 21.1615 291.821 21.1615C292.701 21.1615 293.351 21.0115 293.771 20.7115C294.191 20.3915 294.401 20.0015 294.401 19.5415C294.401 19.0815 294.201 18.7315 293.801 18.4915C293.401 18.2315 292.761 18.0215 291.881 17.8615L291.041 17.7115C290.001 17.5115 289.051 17.2415 288.191 16.9015C287.331 16.5415 286.641 16.0515 286.121 15.4315C285.601 14.8115 285.341 14.0115 285.341 13.0315C285.341 11.5515 285.881 10.4215 286.961 9.64145C288.041 8.84145 289.461 8.44145 291.221 8.44145C292.881 8.44145 294.261 8.81145 295.361 9.55145C296.461 10.2915 297.181 11.2615 297.521 12.4615L294.011 13.5415C293.851 12.7815 293.521 12.2415 293.021 11.9215C292.541 11.6015 291.941 11.4415 291.221 11.4415C290.501 11.4415 289.951 11.5715 289.571 11.8315C289.191 12.0715 289.001 12.4115 289.001 12.8515C289.001 13.3315 289.201 13.6915 289.601 13.9315C290.001 14.1515 290.541 14.3215 291.221 14.4415L292.061 14.5915C293.181 14.7915 294.191 15.0615 295.091 15.4015C296.011 15.7215 296.731 16.1915 297.251 16.8115C297.791 17.4115 298.061 18.2315 298.061 19.2715C298.061 20.8315 297.491 22.0415 296.351 22.9015C295.231 23.7415 293.721 24.1615 291.821 24.1615Z" fill="#FFD3D3"/>
<path d="M146.457 154.146C146.502 117.615 176.154 88.0367 212.685 88.0819C249.217 88.1271 278.795 117.778 278.75 154.31C278.705 190.842 249.053 220.42 212.522 220.375C175.99 220.329 146.412 190.678 146.457 154.146ZM250.2 154.275C250.226 133.511 233.414 116.657 212.65 116.631C191.886 116.606 175.032 133.418 175.007 154.182C174.981 174.946 191.793 191.799 212.557 191.825C233.321 191.851 250.175 175.039 250.2 154.275Z" fill="url(#paint0_linear_212_3030)"/>
<path d="M151.932 180.578C146.72 168.579 145.184 155.303 147.518 142.43C149.851 129.558 155.949 117.666 165.041 108.259C174.133 98.852 185.81 92.3523 198.596 89.582C211.382 86.8116 224.702 87.8948 236.872 92.6948L226.398 119.253C219.48 116.525 211.909 115.909 204.642 117.484C197.375 119.059 190.737 122.753 185.57 128.1C180.402 133.447 176.936 140.206 175.609 147.522C174.283 154.839 175.156 162.385 178.118 169.205L151.932 180.578Z" fill="url(#paint1_linear_212_3030)"/>
<path d="M233.73 91.5462C246.367 95.8054 257.421 103.785 265.443 114.437C273.465 125.09 278.08 137.919 278.682 151.241L250.162 152.53C249.82 144.958 247.197 137.666 242.637 131.612C238.077 125.557 231.794 121.021 224.611 118.601L233.73 91.5462Z" fill="url(#paint2_linear_212_3030)"/>
<path d="M268.892 133.476L278.255 119.48C279.318 117.892 281.102 116.939 283.013 116.939H377.811" stroke="#FFD3D3" stroke-width="1.90807" stroke-linecap="round"/>
<path d="M287.769 109.583L288.939 105.13H290.402L291.572 109.583H290.707L290.466 108.603H288.875L288.634 109.583H287.769ZM289.073 107.827H290.268L289.728 105.658H289.613L289.073 107.827ZM292.105 109.583V105.13H292.945V109.583H292.105ZM293.782 109.583V105.13H295.716C295.995 105.13 296.239 105.179 296.447 105.277C296.655 105.374 296.816 105.512 296.93 105.69C297.045 105.868 297.102 106.078 297.102 106.32V106.396C297.102 106.663 297.039 106.879 296.911 107.045C296.784 107.21 296.627 107.331 296.441 107.407V107.522C296.61 107.53 296.742 107.59 296.835 107.7C296.928 107.806 296.975 107.948 296.975 108.126V109.583H296.135V108.247C296.135 108.145 296.108 108.062 296.053 107.999C296.002 107.935 295.915 107.903 295.792 107.903H294.622V109.583H293.782ZM294.622 107.14H295.627C295.826 107.14 295.981 107.087 296.091 106.981C296.205 106.871 296.263 106.727 296.263 106.549V106.485C296.263 106.307 296.208 106.165 296.097 106.059C295.987 105.949 295.83 105.894 295.627 105.894H294.622V107.14ZM297.674 109.583V108.845H298.259V105.868H297.674V105.13H299.505C300.103 105.13 300.557 105.283 300.866 105.588C301.18 105.889 301.337 106.339 301.337 106.937V107.776C301.337 108.374 301.18 108.826 300.866 109.131C300.557 109.432 300.103 109.583 299.505 109.583H297.674ZM299.098 108.819H299.518C299.857 108.819 300.105 108.73 300.262 108.552C300.419 108.374 300.497 108.124 300.497 107.802V106.911C300.497 106.585 300.419 106.335 300.262 106.161C300.105 105.983 299.857 105.894 299.518 105.894H299.098V108.819ZM302.037 109.583V105.13H303.97C304.25 105.13 304.494 105.179 304.702 105.277C304.909 105.374 305.071 105.512 305.185 105.69C305.3 105.868 305.357 106.078 305.357 106.32V106.396C305.357 106.663 305.293 106.879 305.166 107.045C305.039 107.21 304.882 107.331 304.695 107.407V107.522C304.865 107.53 304.996 107.59 305.09 107.7C305.183 107.806 305.23 107.948 305.23 108.126V109.583H304.39V108.247C304.39 108.145 304.363 108.062 304.307 107.999C304.256 107.935 304.17 107.903 304.047 107.903H302.876V109.583H302.037ZM302.876 107.14H303.881C304.081 107.14 304.235 107.087 304.346 106.981C304.46 106.871 304.517 106.727 304.517 106.549V106.485C304.517 106.307 304.462 106.165 304.352 106.059C304.242 105.949 304.085 105.894 303.881 105.894H302.876V107.14ZM307.785 109.672C307.226 109.672 306.78 109.519 306.45 109.214C306.119 108.904 305.954 108.463 305.954 107.891V106.822C305.954 106.25 306.119 105.811 306.45 105.506C306.78 105.196 307.226 105.041 307.785 105.041C308.345 105.041 308.79 105.196 309.121 105.506C309.452 105.811 309.617 106.25 309.617 106.822V107.891C309.617 108.463 309.452 108.904 309.121 109.214C308.79 109.519 308.345 109.672 307.785 109.672ZM307.785 108.921C308.099 108.921 308.343 108.83 308.517 108.648C308.691 108.465 308.778 108.221 308.778 107.916V106.797C308.778 106.491 308.691 106.248 308.517 106.065C308.343 105.883 308.099 105.792 307.785 105.792C307.476 105.792 307.232 105.883 307.054 106.065C306.88 106.248 306.793 106.491 306.793 106.797V107.916C306.793 108.221 306.88 108.465 307.054 108.648C307.232 108.83 307.476 108.921 307.785 108.921ZM310.354 109.583V105.13H312.185C312.465 105.13 312.711 105.188 312.923 105.302C313.139 105.412 313.307 105.569 313.426 105.773C313.548 105.976 313.61 106.218 313.61 106.498V106.587C313.61 106.862 313.546 107.104 313.419 107.312C313.296 107.515 313.127 107.674 312.91 107.789C312.698 107.899 312.457 107.954 312.185 107.954H311.193V109.583H310.354ZM311.193 107.191H312.103C312.302 107.191 312.463 107.136 312.586 107.026C312.709 106.915 312.77 106.765 312.77 106.574V106.511C312.77 106.32 312.709 106.169 312.586 106.059C312.463 105.949 312.302 105.894 312.103 105.894H311.193V107.191ZM316.126 109.583L315.541 105.13H316.374L316.806 108.997H316.921L317.481 105.13H318.931L319.49 108.997H319.605L320.037 105.13H320.871L320.285 109.583H318.835L318.263 105.626H318.148L317.576 109.583H316.126ZM321.067 109.583L322.237 105.13H323.7L324.87 109.583H324.005L323.764 108.603H322.174L321.932 109.583H321.067ZM322.371 107.827H323.566L323.026 105.658H322.911L322.371 107.827ZM325.403 109.583V105.13H326.243V108.819H328.278V109.583H325.403ZM328.85 109.583V105.13H329.69V108.819H331.725V109.583H328.85ZM332.298 109.583V105.13H335.16V105.894H333.137V106.956H334.982V107.719H333.137V108.819H335.198V109.583H332.298ZM336.85 109.583V105.894H335.552V105.13H338.987V105.894H337.689V109.583H336.85ZM348.903 109.583V109.048C348.903 108.739 348.954 108.482 349.055 108.279C349.157 108.071 349.303 107.901 349.494 107.77C349.689 107.634 349.927 107.524 350.207 107.439L350.633 107.306C350.79 107.255 350.921 107.193 351.027 107.121C351.133 107.045 351.214 106.954 351.269 106.848C351.328 106.742 351.358 106.621 351.358 106.485V106.46C351.358 106.248 351.286 106.08 351.141 105.957C350.997 105.83 350.8 105.766 350.55 105.766C350.304 105.766 350.105 105.834 349.952 105.97C349.804 106.101 349.729 106.292 349.729 106.542V106.657H348.915V106.555C348.915 106.233 348.987 105.959 349.132 105.735C349.276 105.51 349.471 105.338 349.717 105.219C349.967 105.101 350.245 105.041 350.55 105.041C350.855 105.041 351.131 105.101 351.377 105.219C351.623 105.334 351.816 105.497 351.956 105.709C352.1 105.917 352.172 106.163 352.172 106.447V106.511C352.172 106.795 352.112 107.036 351.994 107.236C351.879 107.431 351.722 107.592 351.523 107.719C351.324 107.842 351.097 107.944 350.843 108.024L350.435 108.151C350.253 108.207 350.111 108.268 350.009 108.336C349.908 108.4 349.836 108.472 349.793 108.552C349.755 108.628 349.736 108.722 349.736 108.832V108.857H352.134V109.583H348.903ZM354.339 109.672C353.991 109.672 353.69 109.61 353.436 109.487C353.186 109.364 352.993 109.19 352.857 108.966C352.721 108.741 352.654 108.48 352.654 108.183V108.12H353.48V108.177C353.48 108.389 353.55 108.571 353.69 108.724C353.834 108.872 354.047 108.946 354.326 108.946C354.606 108.946 354.82 108.872 354.969 108.724C355.121 108.571 355.198 108.374 355.198 108.132V108.069C355.198 107.831 355.121 107.643 354.969 107.503C354.82 107.363 354.634 107.293 354.409 107.293C354.286 107.293 354.184 107.31 354.104 107.344C354.023 107.378 353.957 107.42 353.907 107.471C353.856 107.522 353.813 107.573 353.779 107.624H352.794V105.13H355.834V105.868H353.608V106.956H353.722C353.765 106.901 353.822 106.848 353.894 106.797C353.966 106.746 354.059 106.703 354.174 106.67C354.288 106.636 354.424 106.619 354.581 106.619C354.844 106.619 355.083 106.674 355.299 106.784C355.516 106.894 355.687 107.058 355.815 107.274C355.946 107.486 356.012 107.749 356.012 108.062V108.139C356.012 108.453 355.944 108.724 355.808 108.953C355.677 109.182 355.486 109.36 355.236 109.487C354.986 109.61 354.687 109.672 354.339 109.672ZM357.167 109.665L356.684 109.277L360.105 105.048L360.589 105.436L357.167 109.665ZM359.851 109.646C359.529 109.646 359.276 109.561 359.094 109.392C358.912 109.218 358.821 108.983 358.821 108.686V108.641C358.821 108.34 358.912 108.105 359.094 107.935C359.276 107.761 359.529 107.674 359.851 107.674C360.165 107.674 360.415 107.761 360.601 107.935C360.788 108.105 360.881 108.34 360.881 108.641V108.686C360.881 108.983 360.79 109.218 360.608 109.392C360.425 109.561 360.173 109.646 359.851 109.646ZM359.851 109.125C359.974 109.125 360.069 109.086 360.137 109.01C360.209 108.934 360.245 108.834 360.245 108.711V108.609C360.245 108.486 360.209 108.387 360.137 108.31C360.069 108.234 359.974 108.196 359.851 108.196C359.728 108.196 359.63 108.234 359.558 108.31C359.491 108.387 359.457 108.486 359.457 108.609V108.711C359.457 108.834 359.491 108.934 359.558 109.01C359.63 109.086 359.728 109.125 359.851 109.125ZM357.421 107.038C357.099 107.038 356.847 106.954 356.664 106.784C356.482 106.61 356.391 106.375 356.391 106.078V106.034C356.391 105.732 356.482 105.497 356.664 105.328C356.847 105.154 357.099 105.067 357.421 105.067C357.735 105.067 357.985 105.154 358.172 105.328C358.358 105.497 358.452 105.732 358.452 106.034V106.078C358.452 106.375 358.361 106.61 358.178 106.784C357.996 106.954 357.744 107.038 357.421 107.038ZM357.421 106.517C357.544 106.517 357.64 106.479 357.708 106.402C357.78 106.326 357.816 106.226 357.816 106.103V106.002C357.816 105.879 357.78 105.779 357.708 105.703C357.64 105.626 357.544 105.588 357.421 105.588C357.298 105.588 357.201 105.626 357.129 105.703C357.061 105.779 357.027 105.879 357.027 106.002V106.103C357.027 106.226 357.061 106.326 357.129 106.402C357.201 106.479 357.298 106.517 357.421 106.517Z" fill="#FFD3D3"/>
<path d="M230.73 212.106L240.094 226.102C241.156 227.69 242.941 228.643 244.851 228.643H338.854" stroke="#FFD3D3" stroke-width="1.90807" stroke-linecap="round"/>
<path d="M273.636 220.333V219.595H274.221V216.618H273.636V215.88H275.926C276.197 215.88 276.433 215.927 276.632 216.02C276.836 216.109 276.992 216.239 277.103 216.408C277.217 216.574 277.274 216.773 277.274 217.006V217.07C277.274 217.273 277.236 217.441 277.16 217.572C277.084 217.699 276.992 217.799 276.886 217.871C276.785 217.939 276.687 217.988 276.594 218.017V218.132C276.687 218.157 276.789 218.206 276.899 218.278C277.009 218.346 277.103 218.446 277.179 218.577C277.26 218.709 277.3 218.88 277.3 219.092V219.156C277.3 219.402 277.243 219.614 277.128 219.792C277.014 219.966 276.855 220.099 276.651 220.193C276.452 220.286 276.219 220.333 275.951 220.333H273.636ZM275.061 219.569H275.85C276.032 219.569 276.178 219.525 276.289 219.436C276.403 219.347 276.46 219.219 276.46 219.054V218.991C276.46 218.825 276.405 218.698 276.295 218.609C276.185 218.52 276.036 218.475 275.85 218.475H275.061V219.569ZM275.061 217.712H275.837C276.011 217.712 276.153 217.668 276.263 217.579C276.378 217.489 276.435 217.367 276.435 217.21V217.146C276.435 216.985 276.38 216.862 276.269 216.777C276.159 216.688 276.015 216.644 275.837 216.644H275.061V217.712ZM279.704 220.422C279.34 220.422 279.026 220.356 278.763 220.224C278.504 220.089 278.305 219.898 278.165 219.652C278.03 219.402 277.962 219.107 277.962 218.768V215.88H278.801V218.793C278.801 219.065 278.878 219.279 279.03 219.436C279.187 219.593 279.412 219.671 279.704 219.671C279.997 219.671 280.22 219.593 280.372 219.436C280.529 219.279 280.608 219.065 280.608 218.793V215.88H281.447V218.768C281.447 219.107 281.377 219.402 281.237 219.652C281.102 219.898 280.902 220.089 280.639 220.224C280.381 220.356 280.069 220.422 279.704 220.422ZM282.26 220.333V215.88H284.194C284.474 215.88 284.718 215.929 284.925 216.027C285.133 216.124 285.294 216.262 285.409 216.44C285.523 216.618 285.58 216.828 285.58 217.07V217.146C285.58 217.413 285.517 217.629 285.39 217.795C285.262 217.96 285.106 218.081 284.919 218.157V218.272C285.089 218.28 285.22 218.34 285.313 218.45C285.407 218.556 285.453 218.698 285.453 218.876V220.333H284.614V218.997C284.614 218.895 284.586 218.812 284.531 218.749C284.48 218.685 284.393 218.653 284.27 218.653H283.1V220.333H282.26ZM283.1 217.89H284.105C284.304 217.89 284.459 217.837 284.569 217.731C284.684 217.621 284.741 217.477 284.741 217.299V217.235C284.741 217.057 284.686 216.915 284.576 216.809C284.465 216.699 284.308 216.644 284.105 216.644H283.1V217.89ZM286.279 220.333V215.88H287.875L288.76 219.76H288.874V215.88H289.701V220.333H288.104L287.22 216.453H287.106V220.333H286.279ZM291.57 220.333V216.644H290.273V215.88H293.707V216.644H292.41V220.333H291.57ZM296.539 220.333V216.644H295.242V215.88H298.676V216.644H297.379V220.333H296.539ZM300.798 220.422C300.238 220.422 299.793 220.269 299.462 219.964C299.131 219.654 298.966 219.213 298.966 218.641V217.572C298.966 217 299.131 216.561 299.462 216.256C299.793 215.946 300.238 215.791 300.798 215.791C301.358 215.791 301.803 215.946 302.133 216.256C302.464 216.561 302.63 217 302.63 217.572V218.641C302.63 219.213 302.464 219.654 302.133 219.964C301.803 220.269 301.358 220.422 300.798 220.422ZM300.798 219.671C301.112 219.671 301.355 219.58 301.529 219.398C301.703 219.215 301.79 218.971 301.79 218.666V217.547C301.79 217.241 301.703 216.998 301.529 216.815C301.355 216.633 301.112 216.542 300.798 216.542C300.488 216.542 300.244 216.633 300.066 216.815C299.893 216.998 299.806 217.241 299.806 217.547V218.666C299.806 218.971 299.893 219.215 300.066 219.398C300.244 219.58 300.488 219.671 300.798 219.671ZM303.366 220.333V215.88H304.205V217.649H304.32L305.764 215.88H306.839L304.981 218.075L306.902 220.333H305.796L304.32 218.526H304.205V220.333H303.366ZM307.347 220.333V215.88H310.209V216.644H308.187V217.706H310.031V218.469H308.187V219.569H310.248V220.333H307.347ZM310.869 220.333V215.88H312.465L313.35 219.76H313.464V215.88H314.291V220.333H312.694L311.81 216.453H311.696V220.333H310.869ZM318.678 220.333V219.429H316.49V218.488L318.03 215.88H319.492V218.704H320.23V219.429H319.492V220.333H318.678ZM317.266 218.704H318.678V216.402H318.564L317.266 218.603V218.704ZM322.296 220.422C321.948 220.422 321.647 220.36 321.392 220.237C321.142 220.114 320.949 219.94 320.814 219.716C320.678 219.491 320.61 219.23 320.61 218.933V218.87H321.437V218.927C321.437 219.139 321.507 219.321 321.647 219.474C321.791 219.622 322.003 219.696 322.283 219.696C322.563 219.696 322.777 219.622 322.925 219.474C323.078 219.321 323.154 219.124 323.154 218.882V218.819C323.154 218.581 323.078 218.393 322.925 218.253C322.777 218.113 322.59 218.043 322.366 218.043C322.243 218.043 322.141 218.06 322.06 218.094C321.98 218.128 321.914 218.17 321.863 218.221C321.812 218.272 321.77 218.323 321.736 218.374H320.75V215.88H323.79V216.618H321.564V217.706H321.679C321.721 217.651 321.778 217.598 321.85 217.547C321.923 217.496 322.016 217.453 322.13 217.42C322.245 217.386 322.38 217.369 322.537 217.369C322.8 217.369 323.04 217.424 323.256 217.534C323.472 217.644 323.644 217.808 323.771 218.024C323.903 218.236 323.968 218.499 323.968 218.812V218.889C323.968 219.203 323.901 219.474 323.765 219.703C323.633 219.932 323.443 220.11 323.192 220.237C322.942 220.36 322.643 220.422 322.296 220.422ZM325.123 220.415L324.64 220.027L328.062 215.798L328.545 216.186L325.123 220.415ZM327.807 220.396C327.485 220.396 327.233 220.311 327.051 220.142C326.868 219.968 326.777 219.733 326.777 219.436V219.391C326.777 219.09 326.868 218.855 327.051 218.685C327.233 218.511 327.485 218.424 327.807 218.424C328.121 218.424 328.371 218.511 328.558 218.685C328.745 218.855 328.838 219.09 328.838 219.391V219.436C328.838 219.733 328.747 219.968 328.564 220.142C328.382 220.311 328.13 220.396 327.807 220.396ZM327.807 219.875C327.93 219.875 328.026 219.836 328.094 219.76C328.166 219.684 328.202 219.584 328.202 219.461V219.359C328.202 219.236 328.166 219.137 328.094 219.06C328.026 218.984 327.93 218.946 327.807 218.946C327.685 218.946 327.587 218.984 327.515 219.06C327.447 219.137 327.413 219.236 327.413 219.359V219.461C327.413 219.584 327.447 219.684 327.515 219.76C327.587 219.836 327.685 219.875 327.807 219.875ZM325.378 217.788C325.056 217.788 324.803 217.704 324.621 217.534C324.439 217.36 324.348 217.125 324.348 216.828V216.784C324.348 216.482 324.439 216.247 324.621 216.078C324.803 215.904 325.056 215.817 325.378 215.817C325.692 215.817 325.942 215.904 326.128 216.078C326.315 216.247 326.408 216.482 326.408 216.784V216.828C326.408 217.125 326.317 217.36 326.135 217.534C325.952 217.704 325.7 217.788 325.378 217.788ZM325.378 217.267C325.501 217.267 325.596 217.229 325.664 217.152C325.736 217.076 325.772 216.976 325.772 216.853V216.752C325.772 216.629 325.736 216.529 325.664 216.453C325.596 216.376 325.501 216.338 325.378 216.338C325.255 216.338 325.157 216.376 325.085 216.453C325.017 216.529 324.984 216.629 324.984 216.752V216.853C324.984 216.976 325.017 217.076 325.085 217.152C325.157 217.229 325.255 217.267 325.378 217.267Z" fill="#FFD3D3"/>
<path d="M160.449 143.687L154.671 133.001C153.673 131.154 151.743 130.002 149.643 129.999L66.0169 129.896" stroke="#FFD3D3" stroke-width="1.90807" stroke-linecap="round"/>
<path d="M73.4161 124.529V120.077H74.2557V123.766H76.2909V124.529H73.4161ZM76.8633 124.529V120.077H77.7029V124.529H76.8633ZM80.2703 124.618C79.7106 124.618 79.2654 124.465 78.9347 124.16C78.6039 123.851 78.4386 123.41 78.4386 122.837V121.769C78.4386 121.196 78.6039 120.757 78.9347 120.452C79.2654 120.143 79.7106 119.988 80.2703 119.988C80.83 119.988 81.2752 120.143 81.606 120.452C81.9367 120.757 82.1021 121.196 82.1021 121.769V122.837C82.1021 123.41 81.9367 123.851 81.606 124.16C81.2752 124.465 80.83 124.618 80.2703 124.618ZM80.2703 123.868C80.5841 123.868 80.8279 123.776 81.0017 123.594C81.1756 123.412 81.2625 123.168 81.2625 122.863V121.743C81.2625 121.438 81.1756 121.194 81.0017 121.012C80.8279 120.83 80.5841 120.738 80.2703 120.738C79.9608 120.738 79.717 120.83 79.5389 121.012C79.365 121.194 79.2781 121.438 79.2781 121.743V122.863C79.2781 123.168 79.365 123.412 79.5389 123.594C79.717 123.776 79.9608 123.868 80.2703 123.868ZM80.5629 125.674C80.3551 125.674 80.1855 125.608 80.0541 125.477C79.9269 125.35 79.8633 125.178 79.8633 124.962V124.529H80.6774V124.834C80.6774 124.962 80.7367 125.025 80.8555 125.025H81.2307V125.674H80.5629ZM84.5557 124.618C84.1911 124.618 83.8773 124.552 83.6144 124.421C83.3558 124.285 83.1565 124.094 83.0165 123.849C82.8809 123.598 82.813 123.304 82.813 122.964V120.077H83.6526V122.99C83.6526 123.261 83.7289 123.475 83.8815 123.632C84.0384 123.789 84.2631 123.868 84.5557 123.868C84.8483 123.868 85.0709 123.789 85.2235 123.632C85.3804 123.475 85.4589 123.261 85.4589 122.99V120.077H86.2984V122.964C86.2984 123.304 86.2285 123.598 86.0885 123.849C85.9528 124.094 85.7536 124.285 85.4907 124.421C85.232 124.552 84.9204 124.618 84.5557 124.618ZM87.1117 124.529V120.077H87.9513V124.529H87.1117ZM88.6615 124.529V123.791H89.2467V120.815H88.6615V120.077H90.4933C91.0912 120.077 91.5449 120.23 91.8544 120.535C92.1682 120.836 92.325 121.285 92.325 121.883V122.723C92.325 123.321 92.1682 123.772 91.8544 124.077C91.5449 124.379 91.0912 124.529 90.4933 124.529H88.6615ZM90.0862 123.766H90.506C90.8452 123.766 91.0933 123.677 91.2502 123.499C91.407 123.321 91.4855 123.07 91.4855 122.748V121.858C91.4855 121.531 91.407 121.281 91.2502 121.107C91.0933 120.929 90.8452 120.84 90.506 120.84H90.0862V123.766ZM93.0248 124.529V120.077H93.8643V124.529H93.0248ZM95.7321 124.529V120.84H94.4347V120.077H97.8692V120.84H96.5717V124.529H95.7321ZM99.5857 124.529V122.996L98.072 120.077H99.007L99.9483 121.985H100.063L101.004 120.077H101.939L100.425 122.996V124.529H99.5857ZM105.476 124.618C105.141 124.618 104.845 124.559 104.586 124.44C104.327 124.321 104.124 124.152 103.975 123.931C103.831 123.706 103.759 123.441 103.759 123.136V123.022H104.573V123.111C104.573 123.348 104.656 123.539 104.821 123.683C104.987 123.823 105.205 123.893 105.476 123.893C105.752 123.893 105.964 123.827 106.112 123.696C106.265 123.564 106.341 123.399 106.341 123.2V123.136C106.341 123 106.307 122.89 106.24 122.805C106.172 122.721 106.081 122.659 105.966 122.621C105.852 122.579 105.722 122.557 105.578 122.557H104.688V121.667L106.125 120.904V120.802H103.874V120.077H107.028V121.158L105.686 121.87V121.972H105.922C106.121 121.972 106.314 122.013 106.5 122.093C106.691 122.174 106.848 122.299 106.971 122.468C107.094 122.634 107.155 122.85 107.155 123.117V123.193C107.155 123.482 107.086 123.734 106.946 123.95C106.806 124.162 106.608 124.328 106.354 124.446C106.104 124.561 105.811 124.618 105.476 124.618ZM109.34 124.618C108.992 124.618 108.691 124.557 108.436 124.434C108.186 124.311 107.993 124.137 107.858 123.912C107.722 123.687 107.654 123.427 107.654 123.13V123.066H108.481V123.123C108.481 123.335 108.551 123.518 108.691 123.67C108.835 123.819 109.047 123.893 109.327 123.893C109.607 123.893 109.821 123.819 109.969 123.67C110.122 123.518 110.198 123.321 110.198 123.079V123.015C110.198 122.778 110.122 122.589 109.969 122.449C109.821 122.309 109.634 122.239 109.41 122.239C109.287 122.239 109.185 122.256 109.104 122.29C109.024 122.324 108.958 122.367 108.907 122.417C108.856 122.468 108.814 122.519 108.78 122.57H107.794V120.077H110.834V120.815H108.608V121.902H108.723C108.765 121.847 108.822 121.794 108.894 121.743C108.966 121.692 109.06 121.65 109.174 121.616C109.289 121.582 109.424 121.565 109.581 121.565C109.844 121.565 110.084 121.62 110.3 121.731C110.516 121.841 110.688 122.004 110.815 122.22C110.947 122.432 111.012 122.695 111.012 123.009V123.085C111.012 123.399 110.944 123.67 110.809 123.899C110.677 124.128 110.487 124.306 110.236 124.434C109.986 124.557 109.687 124.618 109.34 124.618ZM112.167 124.612L111.684 124.224L115.106 119.994L115.589 120.382L112.167 124.612ZM114.851 124.593C114.529 124.593 114.277 124.508 114.095 124.338C113.912 124.164 113.821 123.929 113.821 123.632V123.588C113.821 123.287 113.912 123.051 114.095 122.882C114.277 122.708 114.529 122.621 114.851 122.621C115.165 122.621 115.415 122.708 115.602 122.882C115.788 123.051 115.882 123.287 115.882 123.588V123.632C115.882 123.929 115.791 124.164 115.608 124.338C115.426 124.508 115.174 124.593 114.851 124.593ZM114.851 124.071C114.974 124.071 115.07 124.033 115.138 123.957C115.21 123.88 115.246 123.781 115.246 123.658V123.556C115.246 123.433 115.21 123.333 115.138 123.257C115.07 123.181 114.974 123.143 114.851 123.143C114.728 123.143 114.631 123.181 114.559 123.257C114.491 123.333 114.457 123.433 114.457 123.556V123.658C114.457 123.781 114.491 123.88 114.559 123.957C114.631 124.033 114.728 124.071 114.851 124.071ZM112.422 121.985C112.1 121.985 111.847 121.9 111.665 121.731C111.483 121.557 111.391 121.321 111.391 121.025V120.98C111.391 120.679 111.483 120.444 111.665 120.274C111.847 120.1 112.1 120.013 112.422 120.013C112.736 120.013 112.986 120.1 113.172 120.274C113.359 120.444 113.452 120.679 113.452 120.98V121.025C113.452 121.321 113.361 121.557 113.179 121.731C112.996 121.9 112.744 121.985 112.422 121.985ZM112.422 121.463C112.545 121.463 112.64 121.425 112.708 121.349C112.78 121.273 112.816 121.173 112.816 121.05V120.948C112.816 120.825 112.78 120.726 112.708 120.649C112.64 120.573 112.545 120.535 112.422 120.535C112.299 120.535 112.201 120.573 112.129 120.649C112.061 120.726 112.027 120.825 112.027 120.948V121.05C112.027 121.173 112.061 121.273 112.129 121.349C112.201 121.425 112.299 121.463 112.422 121.463Z" fill="#FFD3D3"/>
<path d="M173.485 67.7131V63.8273H172.119V63.0234H175.736V63.8273H174.37V67.7131H173.485ZM177.971 67.8069C177.382 67.8069 176.913 67.6461 176.564 67.3246C176.216 66.9985 176.042 66.534 176.042 65.931V64.8055C176.042 64.2025 176.216 63.7402 176.564 63.4187C176.913 63.0926 177.382 62.9296 177.971 62.9296C178.561 62.9296 179.03 63.0926 179.378 63.4187C179.726 63.7402 179.901 64.2025 179.901 64.8055V65.931C179.901 66.534 179.726 66.9985 179.378 67.3246C179.03 67.6461 178.561 67.8069 177.971 67.8069ZM177.971 67.0164C178.302 67.0164 178.559 66.9203 178.742 66.7283C178.925 66.5362 179.016 66.2794 179.016 65.9578V64.7787C179.016 64.4571 178.925 64.2003 178.742 64.0082C178.559 63.8162 178.302 63.7201 177.971 63.7201C177.645 63.7201 177.388 63.8162 177.201 64.0082C177.018 64.2003 176.926 64.4571 176.926 64.7787V65.9578C176.926 66.2794 177.018 66.5362 177.201 66.7283C177.388 66.9203 177.645 67.0164 177.971 67.0164ZM181.572 67.7131V63.8273H180.205V63.0234H183.823V63.8273H182.456V67.7131H181.572ZM183.672 67.7131L184.905 63.0234H186.446L187.678 67.7131H186.767L186.513 66.6814H184.838L184.583 67.7131H183.672ZM185.045 65.864H186.305L185.735 63.5795H185.615L185.045 65.864ZM188.24 67.7131V63.0234H189.124V66.9092H191.268V67.7131H188.24ZM194.997 67.8069C194.635 67.8069 194.316 67.7422 194.039 67.6126C193.762 67.4831 193.545 67.2978 193.389 67.0566C193.233 66.8154 193.155 66.5251 193.155 66.1856V65.998H194.026V66.1856C194.026 66.467 194.113 66.6792 194.287 66.8221C194.461 66.9605 194.698 67.0298 194.997 67.0298C195.301 67.0298 195.526 66.9695 195.674 66.8489C195.826 66.7283 195.902 66.5742 195.902 66.3866C195.902 66.2571 195.864 66.1521 195.788 66.0717C195.716 65.9913 195.609 65.9266 195.466 65.8774C195.328 65.8238 195.158 65.7747 194.957 65.73L194.803 65.6965C194.481 65.6251 194.204 65.5357 193.972 65.4286C193.744 65.3169 193.568 65.1717 193.443 64.9931C193.322 64.8144 193.262 64.5822 193.262 64.2963C193.262 64.0105 193.329 63.767 193.463 63.5661C193.601 63.3606 193.793 63.2043 194.039 63.0971C194.289 62.9854 194.582 62.9296 194.917 62.9296C195.252 62.9296 195.549 62.9877 195.808 63.1038C196.071 63.2154 196.277 63.3852 196.424 63.613C196.576 63.8363 196.652 64.1177 196.652 64.4571V64.6581H195.781V64.4571C195.781 64.2784 195.745 64.1355 195.674 64.0283C195.607 63.9167 195.508 63.8363 195.379 63.7871C195.249 63.7335 195.095 63.7067 194.917 63.7067C194.649 63.7067 194.45 63.7581 194.32 63.8608C194.195 63.9591 194.133 64.0953 194.133 64.2695C194.133 64.3856 194.162 64.4839 194.22 64.5643C194.282 64.6447 194.374 64.7117 194.495 64.7653C194.615 64.8189 194.769 64.8658 194.957 64.906L195.111 64.9395C195.446 65.0109 195.736 65.1025 195.982 65.2142C196.232 65.3258 196.426 65.4732 196.565 65.6563C196.703 65.8395 196.772 66.074 196.772 66.3598C196.772 66.6457 196.699 66.898 196.551 67.1169C196.408 67.3313 196.203 67.501 195.935 67.626C195.671 67.7466 195.359 67.8069 194.997 67.8069ZM199.241 67.8069C198.857 67.8069 198.526 67.7377 198.249 67.5992C197.977 67.4563 197.767 67.2553 197.62 66.9963C197.477 66.7328 197.405 66.4223 197.405 66.065V63.0234H198.29V66.0918C198.29 66.3777 198.37 66.6032 198.531 66.7685C198.696 66.9337 198.933 67.0164 199.241 67.0164C199.549 67.0164 199.784 66.9337 199.944 66.7685C200.11 66.6032 200.192 66.3777 200.192 66.0918V63.0234H201.077V66.065C201.077 66.4223 201.003 66.7328 200.856 66.9963C200.713 67.2553 200.503 67.4563 200.226 67.5992C199.953 67.7377 199.625 67.8069 199.241 67.8069ZM201.933 67.7131V63.0234H203.863C204.158 63.0234 204.417 63.0837 204.64 63.2043C204.868 63.3204 205.044 63.4857 205.169 63.7C205.299 63.9144 205.364 64.169 205.364 64.4638V64.5576C205.364 64.8479 205.297 65.1025 205.163 65.3214C205.033 65.5357 204.854 65.7032 204.627 65.8238C204.403 65.94 204.149 65.998 203.863 65.998H202.818V67.7131H201.933ZM202.818 65.1941H203.776C203.986 65.1941 204.155 65.136 204.285 65.0199C204.414 64.9037 204.479 64.7452 204.479 64.5442V64.4772C204.479 64.2762 204.414 64.1177 204.285 64.0015C204.155 63.8854 203.986 63.8273 203.776 63.8273H202.818V65.1941ZM205.977 67.7131V63.0234H207.906C208.201 63.0234 208.46 63.0837 208.683 63.2043C208.911 63.3204 209.088 63.4857 209.213 63.7C209.342 63.9144 209.407 64.169 209.407 64.4638V64.5576C209.407 64.8479 209.34 65.1025 209.206 65.3214C209.076 65.5357 208.898 65.7032 208.67 65.8238C208.447 65.94 208.192 65.998 207.906 65.998H206.861V67.7131H205.977ZM206.861 65.1941H207.819C208.029 65.1941 208.199 65.136 208.328 65.0199C208.458 64.9037 208.523 64.7452 208.523 64.5442V64.4772C208.523 64.2762 208.458 64.1177 208.328 64.0015C208.199 63.8854 208.029 63.8273 207.819 63.8273H206.861V65.1941ZM210.02 67.7131V63.0234H210.904V66.9092H213.048V67.7131H210.02ZM214.092 67.7131V66.0985L212.497 63.0234H213.482L214.474 65.0333H214.594L215.586 63.0234H216.571L214.976 66.0985V67.7131H214.092ZM219.988 67.7131V63.6531H219.868L219.238 65.1405H218.34L219.298 63.0234H220.846V67.7131H219.988ZM223.46 67.8069C222.906 67.8069 222.462 67.6551 222.127 67.3514C221.792 67.0432 221.624 66.5787 221.624 65.9578V64.7787C221.624 64.1757 221.792 63.7179 222.127 63.4053C222.462 63.0881 222.906 62.9296 223.46 62.9296C224.018 62.9296 224.463 63.0881 224.793 63.4053C225.128 63.7179 225.296 64.1757 225.296 64.7787V65.9578C225.296 66.5787 225.128 67.0432 224.793 67.3514C224.463 67.6551 224.018 67.8069 223.46 67.8069ZM223.46 67.0432C223.795 67.0432 224.04 66.9516 224.197 66.7685C224.358 66.5854 224.438 66.3241 224.438 65.9846V64.7385C224.438 64.3946 224.349 64.1355 224.17 63.9613C223.996 63.7827 223.759 63.6933 223.46 63.6933C223.152 63.6933 222.91 63.7849 222.736 63.968C222.567 64.1512 222.482 64.408 222.482 64.7385V65.9846C222.482 66.3375 222.562 66.6032 222.723 66.7819C222.888 66.9561 223.134 67.0432 223.46 67.0432ZM227.804 67.8069C227.25 67.8069 226.806 67.6551 226.471 67.3514C226.136 67.0432 225.968 66.5787 225.968 65.9578V64.7787C225.968 64.1757 226.136 63.7179 226.471 63.4053C226.806 63.0881 227.25 62.9296 227.804 62.9296C228.362 62.9296 228.807 63.0881 229.137 63.4053C229.472 63.7179 229.64 64.1757 229.64 64.7787V65.9578C229.64 66.5787 229.472 67.0432 229.137 67.3514C228.807 67.6551 228.362 67.8069 227.804 67.8069ZM227.804 67.0432C228.139 67.0432 228.385 66.9516 228.541 66.7685C228.702 66.5854 228.782 66.3241 228.782 65.9846V64.7385C228.782 64.3946 228.693 64.1355 228.514 63.9613C228.34 63.7827 228.103 63.6933 227.804 63.6933C227.496 63.6933 227.255 63.7849 227.081 63.968C226.911 64.1512 226.826 64.408 226.826 64.7385V65.9846C226.826 66.3375 226.906 66.6032 227.067 66.7819C227.232 66.9561 227.478 67.0432 227.804 67.0432ZM232.121 67.7131V63.0234H233.762L234.573 67.1102H234.694L235.504 63.0234H237.146V67.7131H236.288V63.6732H236.168L235.364 67.7131H233.903L233.099 63.6732H232.979V67.7131H232.121ZM238.029 67.7131V63.0234H238.913V67.7131H238.029ZM239.796 67.7131V63.0234H240.68V66.9092H242.824V67.7131H239.796ZM243.427 67.7131V63.0234H244.311V66.9092H246.455V67.7131H243.427ZM247.058 67.7131V63.0234H247.942V67.7131H247.058ZM250.647 67.8069C250.057 67.8069 249.588 67.6461 249.24 67.3246C248.891 66.9985 248.717 66.534 248.717 65.931V64.8055C248.717 64.2025 248.891 63.7402 249.24 63.4187C249.588 63.0926 250.057 62.9296 250.647 62.9296C251.236 62.9296 251.705 63.0926 252.054 63.4187C252.402 63.7402 252.576 64.2025 252.576 64.8055V65.931C252.576 66.534 252.402 66.9985 252.054 67.3246C251.705 67.6461 251.236 67.8069 250.647 67.8069ZM250.647 67.0164C250.977 67.0164 251.234 66.9203 251.417 66.7283C251.6 66.5362 251.692 66.2794 251.692 65.9578V64.7787C251.692 64.4571 251.6 64.2003 251.417 64.0082C251.234 63.8162 250.977 63.7201 250.647 63.7201C250.321 63.7201 250.064 63.8162 249.876 64.0082C249.693 64.2003 249.601 64.4571 249.601 64.7787V65.9578C249.601 66.2794 249.693 66.5362 249.876 66.7283C250.064 66.9203 250.321 67.0164 250.647 67.0164ZM253.352 67.7131V63.0234H255.033L255.965 67.1102H256.085V63.0234H256.956V67.7131H255.275L254.343 63.6264H254.223V67.7131H253.352Z" fill="#FFD3D3"/>
<path d="M129.527 87.355L129.535 80.8575C129.539 78.0826 131.791 75.8359 134.566 75.8392L295.342 76.0299C298.118 76.0332 300.365 78.2859 300.361 81.0611L300.353 87.5576" stroke="#FFD3D3" stroke-width="1.67491" stroke-linecap="round"/>
</g>
<defs>
<linearGradient id="paint0_linear_212_3030" x1="185.095" y1="207.89" x2="292.265" y2="173.545" gradientUnits="userSpaceOnUse">
<stop offset="0.0263714" stop-color="#FF0000"/>
<stop offset="1" stop-color="#580107"/>
</linearGradient>
<linearGradient id="paint1_linear_212_3030" x1="196.862" y1="220.611" x2="169.513" y2="114.236" gradientUnits="userSpaceOnUse">
<stop stop-color="#144C00"/>
<stop offset="1" stop-color="#43F100"/>
</linearGradient>
<linearGradient id="paint2_linear_212_3030" x1="196.462" y1="220.355" x2="266.326" y2="171.467" gradientUnits="userSpaceOnUse">
<stop stop-color="#7A6800"/>
<stop offset="1" stop-color="#FFD420"/>
</linearGradient>
<clipPath id="clip0_212_3030">
<rect width="429.894" height="237" fill="white" transform="translate(0 0.741455)"/>
</clipPath>
</defs>
</svg>
