<svg width="116" height="66" viewBox="0 0 116 66" fill="none" xmlns="http://www.w3.org/2000/svg">
<rect x="20.5" y="10.5" width="86" height="36" rx="6.5" fill="#FCE201"/>
<rect x="20.5" y="10.5" width="86" height="36" rx="6.5" stroke="black"/>
<g filter="url(#filter0_d_406_2189)">
<path d="M28.792 33V24.6H32.248C32.776 24.6 33.24 24.708 33.64 24.924C34.048 25.132 34.364 25.428 34.588 25.812C34.82 26.196 34.936 26.652 34.936 27.18V27.348C34.936 27.868 34.816 28.324 34.576 28.716C34.344 29.1 34.024 29.4 33.616 29.616C33.216 29.824 32.76 29.928 32.248 29.928H30.376V33H28.792ZM30.376 28.488H32.092C32.468 28.488 32.772 28.384 33.004 28.176C33.236 27.968 33.352 27.684 33.352 27.324V27.204C33.352 26.844 33.236 26.56 33.004 26.352C32.772 26.144 32.468 26.04 32.092 26.04H30.376V28.488ZM36.0822 33V24.6H37.5942V27.78H37.8102C37.8742 27.652 37.9742 27.524 38.1102 27.396C38.2462 27.268 38.4262 27.164 38.6502 27.084C38.8822 26.996 39.1742 26.952 39.5262 26.952C39.9902 26.952 40.3942 27.06 40.7382 27.276C41.0902 27.484 41.3622 27.776 41.5542 28.152C41.7462 28.52 41.8422 28.952 41.8422 29.448V33H40.3302V29.568C40.3302 29.12 40.2182 28.784 39.9942 28.56C39.7782 28.336 39.4662 28.224 39.0582 28.224C38.5942 28.224 38.2342 28.38 37.9782 28.692C37.7222 28.996 37.5942 29.424 37.5942 29.976V33H36.0822ZM45.3247 33.168C44.9007 33.168 44.5207 33.096 44.1847 32.952C43.8487 32.8 43.5807 32.584 43.3807 32.304C43.1887 32.016 43.0927 31.668 43.0927 31.26C43.0927 30.852 43.1887 30.512 43.3807 30.24C43.5807 29.96 43.8527 29.752 44.1967 29.616C44.5487 29.472 44.9487 29.4 45.3967 29.4H47.0287V29.064C47.0287 28.784 46.9407 28.556 46.7647 28.38C46.5887 28.196 46.3087 28.104 45.9247 28.104C45.5487 28.104 45.2687 28.192 45.0847 28.368C44.9007 28.536 44.7807 28.756 44.7247 29.028L43.3327 28.56C43.4287 28.256 43.5807 27.98 43.7887 27.732C44.0047 27.476 44.2887 27.272 44.6407 27.12C45.0007 26.96 45.4367 26.88 45.9487 26.88C46.7327 26.88 47.3527 27.076 47.8087 27.468C48.2647 27.86 48.4927 28.428 48.4927 29.172V31.392C48.4927 31.632 48.6047 31.752 48.8287 31.752H49.3087V33H48.3007C48.0047 33 47.7607 32.928 47.5687 32.784C47.3767 32.64 47.2807 32.448 47.2807 32.208V32.196H47.0527C47.0207 32.292 46.9487 32.42 46.8367 32.58C46.7247 32.732 46.5487 32.868 46.3087 32.988C46.0687 33.108 45.7407 33.168 45.3247 33.168ZM45.5887 31.944C46.0127 31.944 46.3567 31.828 46.6207 31.596C46.8927 31.356 47.0287 31.04 47.0287 30.648V30.528H45.5047C45.2247 30.528 45.0047 30.588 44.8447 30.708C44.6847 30.828 44.6047 30.996 44.6047 31.212C44.6047 31.428 44.6887 31.604 44.8567 31.74C45.0247 31.876 45.2687 31.944 45.5887 31.944ZM52.8393 33.168C52.0633 33.168 51.4273 33 50.9313 32.664C50.4353 32.328 50.1353 31.848 50.0313 31.224L51.4233 30.864C51.4793 31.144 51.5713 31.364 51.6993 31.524C51.8353 31.684 51.9993 31.8 52.1913 31.872C52.3913 31.936 52.6073 31.968 52.8393 31.968C53.1913 31.968 53.4513 31.908 53.6193 31.788C53.7873 31.66 53.8713 31.504 53.8713 31.32C53.8713 31.136 53.7913 30.996 53.6313 30.9C53.4713 30.796 53.2153 30.712 52.8633 30.648L52.5273 30.588C52.1113 30.508 51.7313 30.4 51.3873 30.264C51.0433 30.12 50.7673 29.924 50.5593 29.676C50.3513 29.428 50.2473 29.108 50.2473 28.716C50.2473 28.124 50.4633 27.672 50.8953 27.36C51.3273 27.04 51.8953 26.88 52.5993 26.88C53.2633 26.88 53.8153 27.028 54.2553 27.324C54.6953 27.62 54.9833 28.008 55.1193 28.488L53.7153 28.92C53.6513 28.616 53.5193 28.4 53.3193 28.272C53.1273 28.144 52.8873 28.08 52.5993 28.08C52.3113 28.08 52.0913 28.132 51.9393 28.236C51.7873 28.332 51.7113 28.468 51.7113 28.644C51.7113 28.836 51.7913 28.98 51.9513 29.076C52.1113 29.164 52.3273 29.232 52.5993 29.28L52.9353 29.34C53.3833 29.42 53.7873 29.528 54.1473 29.664C54.5153 29.792 54.8033 29.98 55.0113 30.228C55.2273 30.468 55.3353 30.796 55.3353 31.212C55.3353 31.836 55.1073 32.32 54.6513 32.664C54.2033 33 53.5993 33.168 52.8393 33.168ZM59.3723 33.168C58.7803 33.168 58.2563 33.044 57.8003 32.796C57.3523 32.54 57.0003 32.184 56.7443 31.728C56.4963 31.264 56.3723 30.72 56.3723 30.096V29.952C56.3723 29.328 56.4963 28.788 56.7443 28.332C56.9923 27.868 57.3403 27.512 57.7883 27.264C58.2363 27.008 58.7563 26.88 59.3483 26.88C59.9323 26.88 60.4403 27.012 60.8723 27.276C61.3043 27.532 61.6403 27.892 61.8803 28.356C62.1203 28.812 62.2403 29.344 62.2403 29.952V30.468H57.9083C57.9243 30.876 58.0763 31.208 58.3643 31.464C58.6523 31.72 59.0043 31.848 59.4203 31.848C59.8443 31.848 60.1563 31.756 60.3563 31.572C60.5563 31.388 60.7083 31.184 60.8123 30.96L62.0483 31.608C61.9363 31.816 61.7723 32.044 61.5563 32.292C61.3483 32.532 61.0683 32.74 60.7163 32.916C60.3643 33.084 59.9163 33.168 59.3723 33.168ZM57.9203 29.34H60.7043C60.6723 28.996 60.5323 28.72 60.2843 28.512C60.0443 28.304 59.7283 28.2 59.3363 28.2C58.9283 28.2 58.6043 28.304 58.3643 28.512C58.1243 28.72 57.9763 28.996 57.9203 29.34Z" fill="black"/>
</g>
<rect x="71" y="17" width="28" height="23" rx="4" fill="black"/>
<g filter="url(#filter1_d_406_2189)">
<path d="M81.504 33V31.992C81.504 31.408 81.6 30.924 81.792 30.54C81.984 30.148 82.26 29.828 82.62 29.58C82.988 29.324 83.436 29.116 83.964 28.956L84.768 28.704C85.064 28.608 85.312 28.492 85.512 28.356C85.712 28.212 85.864 28.04 85.968 27.84C86.08 27.64 86.136 27.412 86.136 27.156V27.108C86.136 26.708 86 26.392 85.728 26.16C85.456 25.92 85.084 25.8 84.612 25.8C84.148 25.8 83.772 25.928 83.484 26.184C83.204 26.432 83.064 26.792 83.064 27.264V27.48H81.528V27.288C81.528 26.68 81.664 26.164 81.936 25.74C82.208 25.316 82.576 24.992 83.04 24.768C83.512 24.544 84.036 24.432 84.612 24.432C85.188 24.432 85.708 24.544 86.172 24.768C86.636 24.984 87 25.292 87.264 25.692C87.536 26.084 87.672 26.548 87.672 27.084V27.204C87.672 27.74 87.56 28.196 87.336 28.572C87.12 28.94 86.824 29.244 86.448 29.484C86.072 29.716 85.644 29.908 85.164 30.06L84.396 30.3C84.052 30.404 83.784 30.52 83.592 30.648C83.4 30.768 83.264 30.904 83.184 31.056C83.112 31.2 83.076 31.376 83.076 31.584V31.632H87.6V33H81.504Z" fill="#F1D801"/>
</g>
<defs>
<filter id="filter0_d_406_2189" x="0.891993" y="0.699976" width="89.2484" height="64.368" filterUnits="userSpaceOnUse" color-interpolation-filters="sRGB">
<feFlood flood-opacity="0" result="BackgroundImageFix"/>
<feColorMatrix in="SourceAlpha" type="matrix" values="0 0 0 0 0 0 0 0 0 0 0 0 0 0 0 0 0 0 127 0" result="hardAlpha"/>
<feOffset dy="4"/>
<feGaussianBlur stdDeviation="13.95"/>
<feComposite in2="hardAlpha" operator="out"/>
<feColorMatrix type="matrix" values="0 0 0 0 0 0 0 0 0 0 0 0 0 0 0 0 0 0 0.91 0"/>
<feBlend mode="normal" in2="BackgroundImageFix" result="effect1_dropShadow_406_2189"/>
<feBlend mode="normal" in="SourceGraphic" in2="effect1_dropShadow_406_2189" result="shape"/>
</filter>
<filter id="filter1_d_406_2189" x="53.604" y="0.532007" width="61.968" height="64.368" filterUnits="userSpaceOnUse" color-interpolation-filters="sRGB">
<feFlood flood-opacity="0" result="BackgroundImageFix"/>
<feColorMatrix in="SourceAlpha" type="matrix" values="0 0 0 0 0 0 0 0 0 0 0 0 0 0 0 0 0 0 127 0" result="hardAlpha"/>
<feOffset dy="4"/>
<feGaussianBlur stdDeviation="13.95"/>
<feComposite in2="hardAlpha" operator="out"/>
<feColorMatrix type="matrix" values="0 0 0 0 0 0 0 0 0 0 0 0 0 0 0 0 0 0 0.91 0"/>
<feBlend mode="normal" in2="BackgroundImageFix" result="effect1_dropShadow_406_2189"/>
<feBlend mode="normal" in="SourceGraphic" in2="effect1_dropShadow_406_2189" result="shape"/>
</filter>
</defs>
</svg>
