<svg width="666" height="367" viewBox="0 0 666 367" fill="none" xmlns="http://www.w3.org/2000/svg">
<g clip-path="url(#clip0_214_3195)">
<path d="M210.351 36V9.05569H200.874V3.48101H225.961V9.05569H216.484V36H210.351ZM236.931 36.6504C234.639 36.6504 232.579 36.1858 230.752 35.2567C228.925 34.3276 227.485 32.9804 226.432 31.2151C225.379 29.4497 224.852 27.3283 224.852 24.8506V24.1073C224.852 21.6297 225.379 19.5082 226.432 17.7429C227.485 15.9776 228.925 14.6304 230.752 13.7013C232.579 12.7722 234.639 12.3076 236.931 12.3076C239.222 12.3076 241.282 12.7722 243.109 13.7013C244.936 14.6304 246.377 15.9776 247.43 17.7429C248.483 19.5082 249.009 21.6297 249.009 24.1073V24.8506C249.009 27.3283 248.483 29.4497 247.43 31.2151C246.377 32.9804 244.936 34.3276 243.109 35.2567C241.282 36.1858 239.222 36.6504 236.931 36.6504ZM236.931 31.4473C238.727 31.4473 240.213 30.8744 241.39 29.7285C242.567 28.5516 243.156 26.8792 243.156 24.7113V24.2467C243.156 22.0788 242.567 20.4219 241.39 19.2759C240.244 18.0991 238.758 17.5106 236.931 17.5106C235.134 17.5106 233.648 18.0991 232.471 19.2759C231.294 20.4219 230.706 22.0788 230.706 24.2467V24.7113C230.706 26.8792 231.294 28.5516 232.471 29.7285C233.648 30.8744 235.134 31.4473 236.931 31.4473ZM254.412 36V3.48101H260.266V21.4594H261.102L268.72 12.958H276.339L265.701 24.1073L276.711 36H269.185L261.102 26.8482H260.266V36H254.412ZM289.727 36.6504C287.435 36.6504 285.406 36.1703 283.641 35.2103C281.907 34.2192 280.544 32.841 279.553 31.0757C278.593 29.2794 278.113 27.1734 278.113 24.7577V24.2003C278.113 21.7846 278.593 19.694 279.553 17.9287C280.513 16.1324 281.86 14.7543 283.595 13.7942C285.329 12.8031 287.342 12.3076 289.634 12.3076C291.895 12.3076 293.861 12.8186 295.534 13.8406C297.206 14.8317 298.507 16.2254 299.436 18.0216C300.365 19.787 300.83 21.8465 300.83 24.2003V26.1978H284.059C284.121 27.7773 284.71 29.0626 285.825 30.0537C286.939 31.0447 288.302 31.5403 289.913 31.5403C291.554 31.5403 292.762 31.1841 293.536 30.4718C294.31 29.7595 294.899 28.9697 295.301 28.1025L300.086 30.6111C299.653 31.4164 299.018 32.299 298.182 33.2591C297.376 34.1882 296.293 34.9935 294.93 35.6748C293.567 36.3252 291.833 36.6504 289.727 36.6504ZM284.106 21.831H294.883C294.759 20.4993 294.218 19.4308 293.257 18.6256C292.328 17.8203 291.105 17.4177 289.587 17.4177C288.008 17.4177 286.754 17.8203 285.825 18.6256C284.895 19.4308 284.322 20.4993 284.106 21.831ZM306.04 36V12.958H311.8V15.9776H312.636C313.008 15.1724 313.705 14.4136 314.727 13.7013C315.749 12.958 317.297 12.5863 319.372 12.5863C321.169 12.5863 322.733 13.0044 324.064 13.8406C325.427 14.6459 326.48 15.7763 327.223 17.2319C327.967 18.6565 328.338 20.3289 328.338 22.2491V36H322.485V22.7137C322.485 20.9793 322.051 19.6786 321.184 18.8114C320.348 17.9442 319.14 17.5106 317.561 17.5106C315.764 17.5106 314.371 18.1146 313.38 19.3224C312.389 20.4993 311.893 22.1562 311.893 24.2932V36H306.04ZM345.63 36.6504C343.338 36.6504 341.278 36.1858 339.451 35.2567C337.624 34.3276 336.184 32.9804 335.131 31.2151C334.078 29.4497 333.551 27.3283 333.551 24.8506V24.1073C333.551 21.6297 334.078 19.5082 335.131 17.7429C336.184 15.9776 337.624 14.6304 339.451 13.7013C341.278 12.7722 343.338 12.3076 345.63 12.3076C347.922 12.3076 349.981 12.7722 351.808 13.7013C353.636 14.6304 355.076 15.9776 356.129 17.7429C357.182 19.5082 357.708 21.6297 357.708 24.1073V24.8506C357.708 27.3283 357.182 29.4497 356.129 31.2151C355.076 32.9804 353.636 34.3276 351.808 35.2567C349.981 36.1858 347.922 36.6504 345.63 36.6504ZM345.63 31.4473C347.426 31.4473 348.913 30.8744 350.089 29.7285C351.266 28.5516 351.855 26.8792 351.855 24.7113V24.2467C351.855 22.0788 351.266 20.4219 350.089 19.2759C348.944 18.0991 347.457 17.5106 345.63 17.5106C343.833 17.5106 342.347 18.0991 341.17 19.2759C339.993 20.4219 339.405 22.0788 339.405 24.2467V24.7113C339.405 26.8792 339.993 28.5516 341.17 29.7285C342.347 30.8744 343.833 31.4473 345.63 31.4473ZM363.111 36V12.958H368.872V15.4666H369.708C370.111 14.6923 370.776 14.0265 371.705 13.469C372.635 12.8805 373.858 12.5863 375.375 12.5863C377.017 12.5863 378.333 12.9115 379.324 13.5619C380.315 14.1813 381.074 15.002 381.601 16.0241H382.437C382.963 15.033 383.707 14.2123 384.667 13.5619C385.627 12.9115 386.989 12.5863 388.755 12.5863C390.179 12.5863 391.465 12.896 392.611 13.5154C393.787 14.1039 394.717 15.0175 395.398 16.2563C396.11 17.4642 396.466 18.9972 396.466 20.8554V36H390.613V21.2735C390.613 20.0038 390.288 19.0592 389.637 18.4397C388.987 17.7894 388.073 17.4642 386.896 17.4642C385.565 17.4642 384.527 17.8978 383.784 18.7649C383.072 19.6011 382.715 20.809 382.715 22.3885V36H376.862V21.2735C376.862 20.0038 376.537 19.0592 375.886 18.4397C375.236 17.7894 374.322 17.4642 373.146 17.4642C371.814 17.4642 370.776 17.8978 370.033 18.7649C369.321 19.6011 368.965 20.809 368.965 22.3885V36H363.111ZM402.762 36V12.958H408.615V36H402.762ZM405.689 10.2635C404.636 10.2635 403.737 9.92287 402.994 9.24152C402.282 8.56017 401.926 7.66202 401.926 6.54709C401.926 5.43215 402.282 4.53401 402.994 3.85266C403.737 3.17131 404.636 2.83063 405.689 2.83063C406.773 2.83063 407.671 3.17131 408.383 3.85266C409.095 4.53401 409.451 5.43215 409.451 6.54709C409.451 7.66202 409.095 8.56017 408.383 9.24152C407.671 9.92287 406.773 10.2635 405.689 10.2635ZM425.926 36.6504C423.696 36.6504 421.667 36.1858 419.84 35.2567C418.044 34.3276 416.619 32.9804 415.566 31.2151C414.513 29.4497 413.987 27.3128 413.987 24.8042V24.1538C413.987 21.6452 414.513 19.5082 415.566 17.7429C416.619 15.9776 418.044 14.6304 419.84 13.7013C421.667 12.7722 423.696 12.3076 425.926 12.3076C428.125 12.3076 430.014 12.6947 431.593 13.469C433.173 14.2432 434.443 15.3117 435.403 16.6744C436.394 18.0062 437.044 19.5237 437.354 21.2271L431.686 22.4349C431.562 21.5058 431.284 20.6696 430.85 19.9263C430.417 19.183 429.797 18.5946 428.992 18.161C428.218 17.7274 427.242 17.5106 426.065 17.5106C424.888 17.5106 423.82 17.7739 422.86 18.3004C421.931 18.7959 421.187 19.5547 420.63 20.5767C420.103 21.5678 419.84 22.7911 419.84 24.2467V24.7113C419.84 26.1669 420.103 27.4057 420.63 28.4277C421.187 29.4188 421.931 30.1776 422.86 30.7041C423.82 31.1996 424.888 31.4473 426.065 31.4473C427.83 31.4473 429.162 30.9983 430.06 30.1001C430.989 29.171 431.578 27.9632 431.826 26.4766L437.493 27.8238C437.091 29.4652 436.394 30.9673 435.403 32.33C434.443 33.6617 433.173 34.7147 431.593 35.489C430.014 36.2632 428.125 36.6504 425.926 36.6504ZM451.892 36.6504C448.888 36.6504 446.425 36 444.505 34.6992C442.585 33.3985 441.424 31.5403 441.021 29.1246L446.41 27.7309C446.627 28.8149 446.983 29.6665 447.478 30.2859C448.005 30.9054 448.64 31.3544 449.383 31.6332C450.157 31.8809 450.993 32.0048 451.892 32.0048C453.254 32.0048 454.261 31.7725 454.911 31.308C455.562 30.8124 455.887 30.2085 455.887 29.4962C455.887 28.7839 455.577 28.2419 454.958 27.8703C454.338 27.4676 453.347 27.1424 451.985 26.8947L450.684 26.6624C449.073 26.3527 447.602 25.9346 446.271 25.4081C444.939 24.8506 443.87 24.0919 443.065 23.1318C442.26 22.1717 441.857 20.9329 441.857 19.4153C441.857 17.1235 442.693 15.3737 444.366 14.1658C446.038 12.927 448.237 12.3076 450.963 12.3076C453.533 12.3076 455.67 12.8805 457.373 14.0265C459.077 15.1724 460.192 16.6744 460.718 18.5327L455.283 20.2051C455.035 19.0282 454.524 18.192 453.75 17.6965C453.007 17.2009 452.077 16.9532 450.963 16.9532C449.848 16.9532 448.996 17.1545 448.407 17.5571C447.819 17.9287 447.525 18.4552 447.525 19.1366C447.525 19.8799 447.835 20.4373 448.454 20.809C449.073 21.1497 449.91 21.4129 450.963 21.5987L452.263 21.831C453.998 22.1407 455.562 22.5588 456.955 23.0853C458.38 23.5808 459.495 24.3086 460.3 25.2687C461.136 26.1978 461.554 27.4676 461.554 29.0781C461.554 31.4938 460.672 33.3675 458.906 34.6992C457.172 36 454.834 36.6504 451.892 36.6504Z" fill="#FFD3D3"/>
<path d="M236.681 235.05C236.744 183.66 278.456 142.052 329.845 142.115C381.235 142.179 422.844 183.89 422.78 235.28C422.716 286.67 381.005 328.278 329.615 328.214C278.225 328.151 236.617 286.44 236.681 235.05ZM382.619 235.23C382.655 206.021 359.005 182.313 329.796 182.276C300.586 182.24 276.878 205.89 276.842 235.099C276.806 264.309 300.455 288.017 329.665 288.053C358.874 288.089 382.583 264.44 382.619 235.23Z" fill="url(#paint0_linear_214_3195)"/>
<path d="M244.382 272.232C237.051 255.352 234.89 236.677 238.173 218.568C241.455 200.46 250.034 183.732 262.823 170.499C275.613 157.266 292.04 148.123 310.026 144.225C328.012 140.328 346.75 141.852 363.87 148.604L349.135 185.965C339.404 182.127 328.754 181.261 318.531 183.476C308.307 185.691 298.971 190.888 291.701 198.409C284.432 205.931 279.556 215.439 277.69 225.732C275.824 236.024 277.053 246.639 281.22 256.233L244.382 272.232Z" fill="url(#paint1_linear_214_3195)"/>
<path d="M359.449 146.989C377.226 152.98 392.776 164.205 404.061 179.19C415.346 194.175 421.838 212.222 422.685 230.962L382.565 232.776C382.083 222.124 378.393 211.867 371.979 203.349C365.565 194.832 356.726 188.452 346.622 185.046L359.449 146.989Z" fill="url(#paint2_linear_214_3195)"/>
<path d="M408.912 205.972L422.084 186.284C423.579 184.05 426.089 182.709 428.777 182.709H562.131" stroke="#FFD3D3" stroke-width="2.68413" stroke-linecap="round"/>
<path d="M435.467 171.92L437.113 165.657H439.171L440.817 171.92H439.601L439.261 170.542H437.024L436.684 171.92H435.467ZM437.301 169.451H438.983L438.223 166.4H438.062L437.301 169.451ZM441.567 171.92V165.657H442.748V171.92H441.567ZM443.926 171.92V165.657H446.646C447.04 165.657 447.383 165.726 447.675 165.863C447.967 166 448.194 166.194 448.355 166.445C448.516 166.695 448.597 166.99 448.597 167.33V167.438C448.597 167.814 448.507 168.118 448.328 168.35C448.149 168.583 447.929 168.753 447.666 168.86V169.021C447.905 169.033 448.09 169.117 448.221 169.272C448.352 169.421 448.418 169.621 448.418 169.871V171.92H447.237V170.041C447.237 169.898 447.198 169.782 447.12 169.692C447.049 169.603 446.926 169.558 446.753 169.558H445.107V171.92H443.926ZM445.107 168.485H446.521C446.801 168.485 447.019 168.41 447.174 168.261C447.335 168.106 447.416 167.903 447.416 167.653V167.563C447.416 167.313 447.338 167.113 447.183 166.964C447.028 166.809 446.807 166.731 446.521 166.731H445.107V168.485ZM449.4 171.92V170.882H450.223V166.695H449.4V165.657H451.977C452.818 165.657 453.456 165.872 453.892 166.302C454.333 166.725 454.554 167.357 454.554 168.198V169.379C454.554 170.22 454.333 170.856 453.892 171.285C453.456 171.709 452.818 171.92 451.977 171.92H449.4ZM451.404 170.847H451.995C452.472 170.847 452.821 170.721 453.042 170.471C453.263 170.22 453.373 169.868 453.373 169.415V168.163C453.373 167.703 453.263 167.351 453.042 167.107C452.821 166.856 452.472 166.731 451.995 166.731H451.404V170.847ZM455.538 171.92V165.657H458.258C458.652 165.657 458.995 165.726 459.287 165.863C459.579 166 459.806 166.194 459.967 166.445C460.128 166.695 460.209 166.99 460.209 167.33V167.438C460.209 167.814 460.119 168.118 459.94 168.35C459.761 168.583 459.541 168.753 459.278 168.86V169.021C459.517 169.033 459.702 169.117 459.833 169.272C459.964 169.421 460.03 169.621 460.03 169.871V171.92H458.849V170.041C458.849 169.898 458.81 169.782 458.732 169.692C458.661 169.603 458.538 169.558 458.365 169.558H456.719V171.92H455.538ZM456.719 168.485H458.133C458.413 168.485 458.631 168.41 458.786 168.261C458.947 168.106 459.028 167.903 459.028 167.653V167.563C459.028 167.313 458.95 167.113 458.795 166.964C458.64 166.809 458.419 166.731 458.133 166.731H456.719V168.485ZM463.625 172.046C462.838 172.046 462.211 171.831 461.746 171.401C461.281 170.966 461.048 170.346 461.048 169.54V168.037C461.048 167.232 461.281 166.615 461.746 166.185C462.211 165.75 462.838 165.532 463.625 165.532C464.412 165.532 465.039 165.75 465.504 166.185C465.969 166.615 466.202 167.232 466.202 168.037V169.54C466.202 170.346 465.969 170.966 465.504 171.401C465.039 171.831 464.412 172.046 463.625 172.046ZM463.625 170.99C464.066 170.99 464.409 170.862 464.654 170.605C464.898 170.349 465.021 170.006 465.021 169.576V168.001C465.021 167.572 464.898 167.229 464.654 166.973C464.409 166.716 464.066 166.588 463.625 166.588C463.189 166.588 462.846 166.716 462.596 166.973C462.351 167.229 462.229 167.572 462.229 168.001V169.576C462.229 170.006 462.351 170.349 462.596 170.605C462.846 170.862 463.189 170.99 463.625 170.99ZM467.238 171.92V165.657H469.814C470.208 165.657 470.554 165.738 470.852 165.899C471.156 166.054 471.392 166.275 471.559 166.561C471.732 166.847 471.818 167.187 471.818 167.581V167.706C471.818 168.094 471.729 168.434 471.55 168.726C471.377 169.012 471.138 169.236 470.834 169.397C470.536 169.552 470.196 169.63 469.814 169.63H468.419V171.92H467.238ZM468.419 168.556H469.698C469.978 168.556 470.205 168.479 470.378 168.324C470.551 168.168 470.637 167.957 470.637 167.688V167.599C470.637 167.33 470.551 167.119 470.378 166.964C470.205 166.809 469.978 166.731 469.698 166.731H468.419V168.556ZM475.358 171.92L474.534 165.657H475.707L476.315 171.097H476.476L477.263 165.657H479.303L480.091 171.097H480.252L480.86 165.657H482.032L481.209 171.92H479.169L478.364 166.355H478.203L477.398 171.92H475.358ZM482.308 171.92L483.954 165.657H486.012L487.659 171.92H486.442L486.102 170.542H483.865L483.525 171.92H482.308ZM484.142 169.451H485.824L485.064 166.4H484.903L484.142 169.451ZM488.408 171.92V165.657H489.589V170.847H492.452V171.92H488.408ZM493.258 171.92V165.657H494.439V170.847H497.302V171.92H493.258ZM498.107 171.92V165.657H502.133V166.731H499.288V168.225H501.882V169.299H499.288V170.847H502.187V171.92H498.107ZM504.51 171.92V166.731H502.685V165.657H507.517V166.731H505.691V171.92H504.51ZM521.465 171.92V171.169C521.465 170.733 521.537 170.372 521.68 170.086C521.823 169.794 522.029 169.555 522.298 169.37C522.572 169.179 522.906 169.024 523.3 168.905L523.899 168.717C524.12 168.646 524.305 168.559 524.454 168.458C524.603 168.35 524.716 168.222 524.794 168.073C524.877 167.924 524.919 167.754 524.919 167.563V167.527C524.919 167.229 524.818 166.993 524.615 166.82C524.412 166.642 524.135 166.552 523.783 166.552C523.437 166.552 523.156 166.647 522.942 166.838C522.733 167.023 522.629 167.292 522.629 167.644V167.805H521.483V167.661C521.483 167.208 521.585 166.823 521.788 166.507C521.99 166.191 522.265 165.95 522.611 165.783C522.963 165.616 523.353 165.532 523.783 165.532C524.212 165.532 524.6 165.616 524.946 165.783C525.292 165.944 525.563 166.173 525.76 166.472C525.963 166.764 526.064 167.11 526.064 167.509V167.599C526.064 167.998 525.981 168.338 525.814 168.619C525.653 168.893 525.432 169.12 525.152 169.299C524.871 169.472 524.552 169.615 524.194 169.728L523.622 169.907C523.365 169.985 523.165 170.071 523.022 170.167C522.879 170.256 522.778 170.358 522.718 170.471C522.664 170.578 522.638 170.709 522.638 170.865V170.9H526.011V171.92H521.465ZM529.113 172.046C528.624 172.046 528.2 171.959 527.843 171.786C527.491 171.613 527.219 171.369 527.028 171.052C526.837 170.736 526.742 170.369 526.742 169.952V169.862H527.905V169.943C527.905 170.241 528.004 170.498 528.2 170.712C528.403 170.921 528.701 171.026 529.095 171.026C529.489 171.026 529.79 170.921 529.999 170.712C530.214 170.498 530.321 170.22 530.321 169.88V169.791C530.321 169.457 530.214 169.191 529.999 168.995C529.79 168.798 529.528 168.699 529.211 168.699C529.038 168.699 528.895 168.723 528.782 168.771C528.669 168.819 528.576 168.878 528.505 168.95C528.433 169.021 528.373 169.093 528.326 169.165H526.939V165.657H531.216V166.695H528.084V168.225H528.245C528.305 168.148 528.385 168.073 528.487 168.001C528.588 167.93 528.719 167.87 528.88 167.823C529.041 167.775 529.232 167.751 529.453 167.751C529.823 167.751 530.16 167.828 530.464 167.984C530.768 168.139 531.01 168.368 531.189 168.672C531.374 168.971 531.466 169.341 531.466 169.782V169.889C531.466 170.331 531.371 170.712 531.18 171.035C530.995 171.357 530.726 171.607 530.375 171.786C530.023 171.959 529.602 172.046 529.113 172.046ZM533.091 172.037L532.411 171.491L537.225 165.541L537.905 166.087L533.091 172.037ZM536.867 172.01C536.413 172.01 536.058 171.89 535.802 171.652C535.545 171.407 535.417 171.076 535.417 170.659V170.596C535.417 170.173 535.545 169.842 535.802 169.603C536.058 169.358 536.413 169.236 536.867 169.236C537.308 169.236 537.66 169.358 537.922 169.603C538.185 169.842 538.316 170.173 538.316 170.596V170.659C538.316 171.076 538.188 171.407 537.931 171.652C537.675 171.89 537.32 172.01 536.867 172.01ZM536.867 171.276C537.04 171.276 537.174 171.222 537.269 171.115C537.371 171.008 537.421 170.868 537.421 170.695V170.551C537.421 170.378 537.371 170.238 537.269 170.131C537.174 170.024 537.04 169.97 536.867 169.97C536.694 169.97 536.556 170.024 536.455 170.131C536.36 170.238 536.312 170.378 536.312 170.551V170.695C536.312 170.868 536.36 171.008 536.455 171.115C536.556 171.222 536.694 171.276 536.867 171.276ZM533.449 168.341C532.996 168.341 532.641 168.222 532.384 167.984C532.128 167.739 531.999 167.408 531.999 166.99V166.928C531.999 166.504 532.128 166.173 532.384 165.935C532.641 165.69 532.996 165.568 533.449 165.568C533.89 165.568 534.242 165.69 534.505 165.935C534.767 166.173 534.898 166.504 534.898 166.928V166.99C534.898 167.408 534.77 167.739 534.514 167.984C534.257 168.222 533.902 168.341 533.449 168.341ZM533.449 167.608C533.622 167.608 533.756 167.554 533.851 167.447C533.953 167.339 534.004 167.199 534.004 167.026V166.883C534.004 166.71 533.953 166.57 533.851 166.463C533.756 166.355 533.622 166.302 533.449 166.302C533.276 166.302 533.139 166.355 533.037 166.463C532.942 166.57 532.894 166.71 532.894 166.883V167.026C532.894 167.199 532.942 167.339 533.037 167.447C533.139 167.554 533.276 167.608 533.449 167.608Z" fill="#FFD3D3"/>
<path d="M355.23 316.583L368.402 336.271C369.896 338.505 372.407 339.846 375.094 339.846H507.33" stroke="#FFD3D3" stroke-width="2.68413" stroke-linecap="round"/>
<path d="M415.587 327.715V326.677H416.41V322.49H415.587V321.452H418.808C419.189 321.452 419.52 321.517 419.801 321.649C420.087 321.774 420.308 321.956 420.463 322.194C420.624 322.427 420.704 322.707 420.704 323.035V323.125C420.704 323.411 420.651 323.647 420.543 323.832C420.436 324.011 420.308 324.151 420.159 324.252C420.015 324.348 419.878 324.416 419.747 324.458V324.619C419.878 324.655 420.021 324.723 420.176 324.825C420.332 324.92 420.463 325.06 420.57 325.245C420.683 325.43 420.74 325.672 420.74 325.97V326.06C420.74 326.405 420.66 326.704 420.499 326.954C420.338 327.199 420.114 327.387 419.828 327.518C419.547 327.649 419.219 327.715 418.843 327.715H415.587ZM417.591 326.641H418.7C418.957 326.641 419.162 326.578 419.318 326.453C419.479 326.328 419.559 326.149 419.559 325.916V325.827C419.559 325.594 419.482 325.415 419.326 325.29C419.171 325.165 418.963 325.102 418.7 325.102H417.591V326.641ZM417.591 324.029H418.682C418.927 324.029 419.127 323.966 419.282 323.841C419.443 323.715 419.523 323.542 419.523 323.322V323.232C419.523 323.006 419.446 322.833 419.291 322.713C419.136 322.588 418.933 322.525 418.682 322.525H417.591V324.029ZM424.123 327.84C423.61 327.84 423.168 327.748 422.799 327.563C422.435 327.372 422.154 327.103 421.958 326.757C421.767 326.405 421.671 325.991 421.671 325.514V321.452H422.852V325.55C422.852 325.931 422.96 326.232 423.174 326.453C423.395 326.674 423.711 326.784 424.123 326.784C424.534 326.784 424.847 326.674 425.062 326.453C425.283 326.232 425.393 325.931 425.393 325.55V321.452H426.574V325.514C426.574 325.991 426.476 326.405 426.279 326.757C426.088 327.103 425.808 327.372 425.438 327.563C425.074 327.748 424.636 327.84 424.123 327.84ZM427.718 327.715V321.452H430.438C430.832 321.452 431.175 321.52 431.467 321.658C431.759 321.795 431.986 321.989 432.147 322.239C432.308 322.49 432.389 322.785 432.389 323.125V323.232C432.389 323.608 432.299 323.912 432.12 324.145C431.941 324.377 431.721 324.547 431.458 324.655V324.816C431.697 324.828 431.882 324.911 432.013 325.066C432.144 325.216 432.21 325.415 432.21 325.666V327.715H431.029V325.836C431.029 325.693 430.99 325.576 430.912 325.487C430.841 325.397 430.719 325.353 430.546 325.353H428.899V327.715H427.718ZM428.899 324.279H430.313C430.593 324.279 430.811 324.204 430.966 324.055C431.127 323.9 431.208 323.697 431.208 323.447V323.357C431.208 323.107 431.13 322.907 430.975 322.758C430.82 322.603 430.599 322.525 430.313 322.525H428.899V324.279ZM433.371 327.715V321.452H435.617L436.861 326.909H437.022V321.452H438.185V327.715H435.939L434.696 322.257H434.535V327.715H433.371ZM440.815 327.715V322.525H438.989V321.452H443.821V322.525H441.996V327.715H440.815ZM447.805 327.715V322.525H445.979V321.452H450.811V322.525H448.986V327.715H447.805ZM453.795 327.84C453.008 327.84 452.382 327.625 451.916 327.196C451.451 326.76 451.219 326.14 451.219 325.335V323.832C451.219 323.026 451.451 322.409 451.916 321.98C452.382 321.544 453.008 321.327 453.795 321.327C454.583 321.327 455.209 321.544 455.674 321.98C456.139 322.409 456.372 323.026 456.372 323.832V325.335C456.372 326.14 456.139 326.76 455.674 327.196C455.209 327.625 454.583 327.84 453.795 327.84ZM453.795 326.784C454.237 326.784 454.58 326.656 454.824 326.399C455.069 326.143 455.191 325.8 455.191 325.371V323.796C455.191 323.366 455.069 323.023 454.824 322.767C454.58 322.51 454.237 322.382 453.795 322.382C453.36 322.382 453.017 322.51 452.766 322.767C452.522 323.023 452.4 323.366 452.4 323.796V325.371C452.4 325.8 452.522 326.143 452.766 326.399C453.017 326.656 453.36 326.784 453.795 326.784ZM457.408 327.715V321.452H458.589V323.939H458.75L460.781 321.452H462.293L459.681 324.539L462.383 327.715H460.826L458.75 325.174H458.589V327.715H457.408ZM463.009 327.715V321.452H467.035V322.525H464.19V324.02H466.784V325.093H464.19V326.641H467.088V327.715H463.009ZM467.963 327.715V321.452H470.208L471.452 326.909H471.613V321.452H472.776V327.715H470.531L469.287 322.257H469.126V327.715H467.963ZM478.948 327.715V326.444H475.87V325.12L478.036 321.452H480.093V325.424H481.131V326.444H480.093V327.715H478.948ZM476.962 325.424H478.948V322.185H478.787L476.962 325.281V325.424ZM484.037 327.84C483.548 327.84 483.124 327.753 482.766 327.581C482.414 327.408 482.143 327.163 481.952 326.847C481.761 326.531 481.666 326.164 481.666 325.746V325.657H482.829V325.737C482.829 326.036 482.927 326.292 483.124 326.507C483.327 326.716 483.625 326.82 484.019 326.82C484.413 326.82 484.714 326.716 484.923 326.507C485.137 326.292 485.245 326.015 485.245 325.675V325.585C485.245 325.251 485.137 324.986 484.923 324.789C484.714 324.592 484.451 324.494 484.135 324.494C483.962 324.494 483.819 324.518 483.706 324.565C483.592 324.613 483.5 324.673 483.428 324.744C483.357 324.816 483.297 324.887 483.249 324.959H481.863V321.452H486.139V322.49H483.008V324.02H483.169C483.229 323.942 483.309 323.867 483.41 323.796C483.512 323.724 483.643 323.665 483.804 323.617C483.965 323.569 484.156 323.545 484.377 323.545C484.747 323.545 485.084 323.623 485.388 323.778C485.692 323.933 485.934 324.163 486.113 324.467C486.297 324.765 486.39 325.135 486.39 325.576V325.684C486.39 326.125 486.294 326.507 486.104 326.829C485.919 327.151 485.65 327.402 485.298 327.581C484.946 327.753 484.526 327.84 484.037 327.84ZM488.015 327.831L487.335 327.285L492.148 321.335L492.828 321.881L488.015 327.831ZM491.79 327.804C491.337 327.804 490.982 327.685 490.726 327.446C490.469 327.202 490.341 326.871 490.341 326.453V326.391C490.341 325.967 490.469 325.636 490.726 325.397C490.982 325.153 491.337 325.031 491.79 325.031C492.232 325.031 492.584 325.153 492.846 325.397C493.109 325.636 493.24 325.967 493.24 326.391V326.453C493.24 326.871 493.112 327.202 492.855 327.446C492.599 327.685 492.244 327.804 491.79 327.804ZM491.79 327.071C491.963 327.071 492.098 327.017 492.193 326.909C492.294 326.802 492.345 326.662 492.345 326.489V326.346C492.345 326.173 492.294 326.033 492.193 325.925C492.098 325.818 491.963 325.764 491.79 325.764C491.617 325.764 491.48 325.818 491.379 325.925C491.283 326.033 491.236 326.173 491.236 326.346V326.489C491.236 326.662 491.283 326.802 491.379 326.909C491.48 327.017 491.617 327.071 491.79 327.071ZM488.373 324.136C487.919 324.136 487.564 324.017 487.308 323.778C487.051 323.533 486.923 323.202 486.923 322.785V322.722C486.923 322.299 487.051 321.968 487.308 321.729C487.564 321.485 487.919 321.362 488.373 321.362C488.814 321.362 489.166 321.485 489.428 321.729C489.691 321.968 489.822 322.299 489.822 322.722V322.785C489.822 323.202 489.694 323.533 489.437 323.778C489.181 324.017 488.826 324.136 488.373 324.136ZM488.373 323.402C488.546 323.402 488.68 323.349 488.775 323.241C488.877 323.134 488.927 322.994 488.927 322.821V322.678C488.927 322.505 488.877 322.364 488.775 322.257C488.68 322.15 488.546 322.096 488.373 322.096C488.2 322.096 488.062 322.15 487.961 322.257C487.866 322.364 487.818 322.505 487.818 322.678V322.821C487.818 322.994 487.866 323.134 487.961 323.241C488.062 323.349 488.2 323.402 488.373 323.402Z" fill="#FFD3D3"/>
<path d="M256.364 220.336L248.236 205.304C246.831 202.705 244.117 201.085 241.163 201.081L123.524 200.936" stroke="#FFD3D3" stroke-width="2.68413" stroke-linecap="round"/>
<path d="M133.932 192.946V186.683H135.113V191.872H137.976V192.946H133.932ZM138.782 192.946V186.683H139.963V192.946H138.782ZM143.574 193.071C142.787 193.071 142.161 192.856 141.695 192.427C141.23 191.992 140.997 191.371 140.997 190.566V189.063C140.997 188.258 141.23 187.64 141.695 187.211C142.161 186.775 142.787 186.558 143.574 186.558C144.362 186.558 144.988 186.775 145.453 187.211C145.918 187.64 146.151 188.258 146.151 189.063V190.566C146.151 191.371 145.918 191.992 145.453 192.427C144.988 192.856 144.362 193.071 143.574 193.071ZM143.574 192.015C144.016 192.015 144.359 191.887 144.603 191.631C144.848 191.374 144.97 191.031 144.97 190.602V189.027C144.97 188.598 144.848 188.255 144.603 187.998C144.359 187.742 144.016 187.613 143.574 187.613C143.139 187.613 142.796 187.742 142.545 187.998C142.301 188.255 142.179 188.598 142.179 189.027V190.602C142.179 191.031 142.301 191.374 142.545 191.631C142.796 191.887 143.139 192.015 143.574 192.015ZM143.986 194.556C143.694 194.556 143.455 194.464 143.27 194.279C143.091 194.1 143.002 193.859 143.002 193.554V192.946H144.147V193.375C144.147 193.554 144.23 193.644 144.397 193.644H144.925V194.556H143.986ZM149.603 193.071C149.09 193.071 148.648 192.979 148.278 192.794C147.915 192.603 147.634 192.335 147.437 191.989C147.247 191.637 147.151 191.222 147.151 190.745V186.683H148.332V190.781C148.332 191.162 148.44 191.464 148.654 191.684C148.875 191.905 149.191 192.015 149.603 192.015C150.014 192.015 150.327 191.905 150.542 191.684C150.763 191.464 150.873 191.162 150.873 190.781V186.683H152.054V190.745C152.054 191.222 151.956 191.637 151.759 191.989C151.568 192.335 151.288 192.603 150.918 192.794C150.554 192.979 150.116 193.071 149.603 193.071ZM153.198 192.946V186.683H154.379V192.946H153.198ZM155.378 192.946V191.908H156.202V187.721H155.378V186.683H157.955C158.796 186.683 159.434 186.898 159.87 187.327C160.311 187.751 160.532 188.383 160.532 189.224V190.405C160.532 191.246 160.311 191.881 159.87 192.311C159.434 192.734 158.796 192.946 157.955 192.946H155.378ZM157.383 191.872H157.973C158.45 191.872 158.799 191.747 159.02 191.496C159.241 191.246 159.351 190.894 159.351 190.441V189.188C159.351 188.729 159.241 188.377 159.02 188.132C158.799 187.882 158.45 187.757 157.973 187.757H157.383V191.872ZM161.516 192.946V186.683H162.697V192.946H161.516ZM165.325 192.946V187.757H163.5V186.683H168.331V187.757H166.506V192.946H165.325ZM170.746 192.946V190.79L168.616 186.683H169.932L171.256 189.367H171.417L172.741 186.683H174.056L171.927 190.79V192.946H170.746ZM179.032 193.071C178.561 193.071 178.143 192.988 177.78 192.821C177.416 192.654 177.129 192.415 176.921 192.105C176.718 191.789 176.616 191.416 176.616 190.987V190.825H177.762V190.951C177.762 191.285 177.878 191.553 178.111 191.756C178.343 191.953 178.65 192.051 179.032 192.051C179.42 192.051 179.718 191.959 179.927 191.774C180.142 191.589 180.249 191.356 180.249 191.076V190.987C180.249 190.796 180.201 190.641 180.106 190.521C180.01 190.402 179.882 190.315 179.721 190.262C179.56 190.202 179.378 190.172 179.175 190.172H177.923V188.92L179.945 187.846V187.703H176.778V186.683H181.215V188.204L179.327 189.206V189.349H179.658C179.939 189.349 180.21 189.406 180.473 189.519C180.741 189.633 180.962 189.808 181.135 190.047C181.308 190.28 181.394 190.584 181.394 190.96V191.067C181.394 191.473 181.296 191.828 181.099 192.132C180.902 192.43 180.625 192.663 180.267 192.83C179.915 192.991 179.503 193.071 179.032 193.071ZM184.467 193.071C183.978 193.071 183.554 192.985 183.196 192.812C182.844 192.639 182.573 192.394 182.382 192.078C182.191 191.762 182.096 191.395 182.096 190.978V190.888H183.259V190.969C183.259 191.267 183.357 191.523 183.554 191.738C183.757 191.947 184.055 192.051 184.449 192.051C184.842 192.051 185.144 191.947 185.352 191.738C185.567 191.523 185.674 191.246 185.674 190.906V190.817C185.674 190.482 185.567 190.217 185.352 190.02C185.144 189.823 184.881 189.725 184.565 189.725C184.392 189.725 184.249 189.749 184.136 189.797C184.022 189.844 183.93 189.904 183.858 189.975C183.787 190.047 183.727 190.119 183.679 190.19H182.292V186.683H186.569V187.721H183.438V189.251H183.599C183.658 189.173 183.739 189.099 183.84 189.027C183.942 188.956 184.073 188.896 184.234 188.848C184.395 188.8 184.586 188.777 184.807 188.777C185.176 188.777 185.513 188.854 185.818 189.009C186.122 189.164 186.363 189.394 186.542 189.698C186.727 189.996 186.82 190.366 186.82 190.808V190.915C186.82 191.356 186.724 191.738 186.533 192.06C186.349 192.382 186.08 192.633 185.728 192.812C185.376 192.985 184.956 193.071 184.467 193.071ZM188.445 193.062L187.765 192.516L192.578 186.567L193.258 187.112L188.445 193.062ZM192.22 193.035C191.767 193.035 191.412 192.916 191.156 192.678C190.899 192.433 190.771 192.102 190.771 191.684V191.622C190.771 191.198 190.899 190.867 191.156 190.629C191.412 190.384 191.767 190.262 192.22 190.262C192.662 190.262 193.014 190.384 193.276 190.629C193.538 190.867 193.67 191.198 193.67 191.622V191.684C193.67 192.102 193.541 192.433 193.285 192.678C193.028 192.916 192.674 193.035 192.22 193.035ZM192.22 192.302C192.393 192.302 192.527 192.248 192.623 192.141C192.724 192.033 192.775 191.893 192.775 191.72V191.577C192.775 191.404 192.724 191.264 192.623 191.157C192.527 191.049 192.393 190.995 192.22 190.995C192.047 190.995 191.91 191.049 191.809 191.157C191.713 191.264 191.666 191.404 191.666 191.577V191.72C191.666 191.893 191.713 192.033 191.809 192.141C191.91 192.248 192.047 192.302 192.22 192.302ZM188.802 189.367C188.349 189.367 187.994 189.248 187.738 189.009C187.481 188.765 187.353 188.434 187.353 188.016V187.953C187.353 187.53 187.481 187.199 187.738 186.96C187.994 186.716 188.349 186.593 188.802 186.593C189.244 186.593 189.596 186.716 189.858 186.96C190.121 187.199 190.252 187.53 190.252 187.953V188.016C190.252 188.434 190.124 188.765 189.867 189.009C189.611 189.248 189.256 189.367 188.802 189.367ZM188.802 188.633C188.975 188.633 189.11 188.58 189.205 188.472C189.307 188.365 189.357 188.225 189.357 188.052V187.909C189.357 187.736 189.307 187.596 189.205 187.488C189.11 187.381 188.975 187.327 188.802 187.327C188.63 187.327 188.492 187.381 188.391 187.488C188.295 187.596 188.248 187.736 188.248 187.909V188.052C188.248 188.225 188.295 188.365 188.391 188.472C188.492 188.58 188.63 188.633 188.802 188.633Z" fill="#FFD3D3"/>
<path d="M268.646 103.964V97.9471H266.53V96.7022H272.132V97.9471H270.015V103.964H268.646ZM275.592 104.11C274.679 104.11 273.953 103.861 273.414 103.363C272.874 102.858 272.605 102.138 272.605 101.205V99.4618C272.605 98.5281 272.874 97.8122 273.414 97.3143C273.953 96.8094 274.679 96.5569 275.592 96.5569C276.505 96.5569 277.232 96.8094 277.771 97.3143C278.311 97.8122 278.58 98.5281 278.58 99.4618V101.205C278.58 102.138 278.311 102.858 277.771 103.363C277.232 103.861 276.505 104.11 275.592 104.11ZM275.592 102.885C276.104 102.885 276.502 102.737 276.785 102.439C277.069 102.142 277.211 101.744 277.211 101.246V99.4203C277.211 98.9223 277.069 98.5246 276.785 98.2272C276.502 97.9298 276.104 97.7811 275.592 97.7811C275.088 97.7811 274.69 97.9298 274.399 98.2272C274.116 98.5246 273.974 98.9223 273.974 99.4203V101.246C273.974 101.744 274.116 102.142 274.399 102.439C274.69 102.737 275.088 102.885 275.592 102.885ZM281.168 103.964V97.9471H279.052V96.7022H284.654V97.9471H282.538V103.964H281.168ZM284.42 103.964L286.329 96.7022H288.715L290.624 103.964H289.213L288.819 102.367H286.225L285.831 103.964H284.42ZM286.547 101.101H288.497L287.615 97.5633H287.429L286.547 101.101ZM291.493 103.964V96.7022H292.863V102.719H296.183V103.964H291.493ZM301.957 104.11C301.397 104.11 300.903 104.009 300.474 103.809C300.045 103.608 299.71 103.321 299.468 102.948C299.225 102.574 299.104 102.125 299.104 101.599V101.308H300.453V101.599C300.453 102.035 300.588 102.363 300.858 102.585C301.127 102.799 301.494 102.906 301.957 102.906C302.428 102.906 302.777 102.813 303.005 102.626C303.24 102.439 303.358 102.201 303.358 101.91C303.358 101.71 303.299 101.547 303.182 101.423C303.071 101.298 302.905 101.198 302.684 101.122C302.469 101.039 302.206 100.963 301.895 100.893L301.657 100.842C301.159 100.731 300.73 100.593 300.37 100.427C300.017 100.254 299.744 100.029 299.551 99.7523C299.364 99.4756 299.27 99.116 299.27 98.6733C299.27 98.2307 299.374 97.8537 299.582 97.5425C299.796 97.2244 300.093 96.9823 300.474 96.8163C300.861 96.6434 301.314 96.5569 301.833 96.5569C302.352 96.5569 302.812 96.6468 303.213 96.8267C303.621 96.9996 303.939 97.2624 304.167 97.6151C304.402 97.9609 304.52 98.3967 304.52 98.9223V99.2336H303.171V98.9223C303.171 98.6457 303.116 98.4243 303.005 98.2583C302.901 98.0854 302.749 97.9609 302.549 97.8849C302.348 97.8019 302.11 97.7604 301.833 97.7604C301.418 97.7604 301.11 97.8399 300.91 97.999C300.716 98.1511 300.619 98.3621 300.619 98.6318C300.619 98.8117 300.664 98.9638 300.754 99.0883C300.851 99.2128 300.993 99.3166 301.179 99.3995C301.366 99.4825 301.605 99.5552 301.895 99.6174L302.134 99.6693C302.653 99.7799 303.102 99.9217 303.482 100.095C303.87 100.268 304.171 100.496 304.385 100.779C304.599 101.063 304.707 101.426 304.707 101.869C304.707 102.311 304.593 102.702 304.364 103.041C304.143 103.373 303.825 103.636 303.41 103.829C303.002 104.016 302.518 104.11 301.957 104.11ZM308.529 104.11C307.934 104.11 307.423 104.002 306.994 103.788C306.572 103.567 306.247 103.255 306.018 102.854C305.797 102.446 305.686 101.966 305.686 101.412V96.7022H307.056V101.454C307.056 101.896 307.18 102.246 307.429 102.502C307.685 102.757 308.052 102.885 308.529 102.885C309.006 102.885 309.369 102.757 309.618 102.502C309.874 102.246 310.002 101.896 310.002 101.454V96.7022H311.372V101.412C311.372 101.966 311.258 102.446 311.029 102.854C310.808 103.255 310.483 103.567 310.054 103.788C309.632 104.002 309.124 104.11 308.529 104.11ZM312.698 103.964V96.7022H315.686C316.143 96.7022 316.544 96.7955 316.89 96.9823C317.242 97.1621 317.516 97.418 317.709 97.75C317.91 98.082 318.01 98.4762 318.01 98.9327V99.0779C318.01 99.5275 317.906 99.9217 317.699 100.261C317.498 100.593 317.222 100.852 316.869 101.039C316.523 101.219 316.129 101.308 315.686 101.308H314.068V103.964H312.698ZM314.068 100.064H315.551C315.876 100.064 316.139 99.9736 316.34 99.7938C316.54 99.614 316.641 99.3684 316.641 99.0572V98.9534C316.641 98.6422 316.54 98.3967 316.34 98.2168C316.139 98.037 315.876 97.9471 315.551 97.9471H314.068V100.064ZM318.96 103.964V96.7022H321.947C322.404 96.7022 322.805 96.7955 323.151 96.9823C323.504 97.1621 323.777 97.418 323.971 97.75C324.171 98.082 324.271 98.4762 324.271 98.9327V99.0779C324.271 99.5275 324.168 99.9217 323.96 100.261C323.76 100.593 323.483 100.852 323.13 101.039C322.784 101.219 322.39 101.308 321.947 101.308H320.329V103.964H318.96ZM320.329 100.064H321.813C322.138 100.064 322.401 99.9736 322.601 99.7938C322.802 99.614 322.902 99.3684 322.902 99.0572V98.9534C322.902 98.6422 322.802 98.3967 322.601 98.2168C322.401 98.037 322.138 97.9471 321.813 97.9471H320.329V100.064ZM325.221 103.964V96.7022H326.59V102.719H329.91V103.964H325.221ZM331.526 103.964V101.464L329.057 96.7022H330.582L332.117 99.8145H332.304L333.839 96.7022H335.364L332.895 101.464V103.964H331.526ZM340.657 103.964V97.6774H340.47L339.495 99.9805H338.105L339.589 96.7022H341.985V103.964H340.657ZM346.033 104.11C345.175 104.11 344.487 103.874 343.968 103.404C343.449 102.927 343.19 102.208 343.19 101.246V99.4203C343.19 98.4866 343.449 97.7777 343.968 97.2935C344.487 96.8025 345.175 96.5569 346.033 96.5569C346.897 96.5569 347.585 96.8025 348.097 97.2935C348.616 97.7777 348.875 98.4866 348.875 99.4203V101.246C348.875 102.208 348.616 102.927 348.097 103.404C347.585 103.874 346.897 104.11 346.033 104.11ZM346.033 102.927C346.551 102.927 346.932 102.785 347.174 102.502C347.423 102.218 347.547 101.813 347.547 101.288V99.3581C347.547 98.8255 347.409 98.4243 347.132 98.1546C346.863 97.8779 346.496 97.7396 346.033 97.7396C345.555 97.7396 345.182 97.8814 344.912 98.165C344.649 98.4485 344.518 98.8462 344.518 99.3581V101.288C344.518 101.834 344.642 102.246 344.891 102.522C345.147 102.792 345.528 102.927 346.033 102.927ZM352.76 104.11C351.902 104.11 351.214 103.874 350.695 103.404C350.177 102.927 349.917 102.208 349.917 101.246V99.4203C349.917 98.4866 350.177 97.7777 350.695 97.2935C351.214 96.8025 351.902 96.5569 352.76 96.5569C353.624 96.5569 354.313 96.8025 354.824 97.2935C355.343 97.7777 355.603 98.4866 355.603 99.4203V101.246C355.603 102.208 355.343 102.927 354.824 103.404C354.313 103.874 353.624 104.11 352.76 104.11ZM352.76 102.927C353.279 102.927 353.659 102.785 353.901 102.502C354.15 102.218 354.275 101.813 354.275 101.288V99.3581C354.275 98.8255 354.136 98.4243 353.86 98.1546C353.59 97.8779 353.223 97.7396 352.76 97.7396C352.283 97.7396 351.909 97.8814 351.639 98.165C351.377 98.4485 351.245 98.8462 351.245 99.3581V101.288C351.245 101.834 351.37 102.246 351.619 102.522C351.875 102.792 352.255 102.927 352.76 102.927ZM359.445 103.964V96.7022H361.986L363.242 103.031H363.429L364.684 96.7022H367.226V103.964H365.898V97.7085H365.711L364.466 103.964H362.204L360.959 97.7085H360.773V103.964H359.445ZM368.593 103.964V96.7022H369.963V103.964H368.593ZM371.329 103.964V96.7022H372.698V102.719H376.018V103.964H371.329ZM376.952 103.964V96.7022H378.321V102.719H381.641V103.964H376.952ZM382.575 103.964V96.7022H383.944V103.964H382.575ZM388.132 104.11C387.219 104.11 386.493 103.861 385.953 103.363C385.414 102.858 385.144 102.138 385.144 101.205V99.4618C385.144 98.5281 385.414 97.8122 385.953 97.3143C386.493 96.8094 387.219 96.5569 388.132 96.5569C389.045 96.5569 389.771 96.8094 390.311 97.3143C390.85 97.8122 391.12 98.5281 391.12 99.4618V101.205C391.12 102.138 390.85 102.858 390.311 103.363C389.771 103.861 389.045 104.11 388.132 104.11ZM388.132 102.885C388.644 102.885 389.042 102.737 389.325 102.439C389.609 102.142 389.75 101.744 389.75 101.246V99.4203C389.75 98.9223 389.609 98.5246 389.325 98.2272C389.042 97.9298 388.644 97.7811 388.132 97.7811C387.627 97.7811 387.229 97.9298 386.939 98.2272C386.655 98.5246 386.514 98.9223 386.514 99.4203V101.246C386.514 101.744 386.655 102.142 386.939 102.439C387.229 102.737 387.627 102.885 388.132 102.885ZM392.321 103.964V96.7022H394.925L396.367 103.031H396.554V96.7022H397.903V103.964H395.299L393.857 97.6359H393.67V103.964H392.321Z" fill="#FFD3D3"/>
<path d="M200.575 134.123L200.588 124.062C200.593 119.765 204.081 116.286 208.378 116.291L457.344 116.586C461.642 116.591 465.122 120.08 465.116 124.377L465.103 134.437" stroke="#FFD3D3" stroke-width="2.59364" stroke-linecap="round"/>
</g>
<defs>
<linearGradient id="paint0_linear_214_3195" x1="291.034" y1="310.653" x2="441.793" y2="262.338" gradientUnits="userSpaceOnUse">
<stop offset="0.0263714" stop-color="#FF0000"/>
<stop offset="1" stop-color="#580107"/>
</linearGradient>
<linearGradient id="paint1_linear_214_3195" x1="307.586" y1="328.547" x2="269.114" y2="178.907" gradientUnits="userSpaceOnUse">
<stop stop-color="#144C00"/>
<stop offset="1" stop-color="#43F100"/>
</linearGradient>
<linearGradient id="paint2_linear_214_3195" x1="307.024" y1="328.186" x2="405.303" y2="259.415" gradientUnits="userSpaceOnUse">
<stop stop-color="#7A6800"/>
<stop offset="1" stop-color="#FFD420"/>
</linearGradient>
<clipPath id="clip0_214_3195">
<rect width="665.701" height="367" fill="white"/>
</clipPath>
</defs>
</svg>
